<svg width="26" height="26" viewBox="0 0 26 26" fill="none" xmlns="http://www.w3.org/2000/svg">
<path d="M13 25.5C6.09625 25.5 0.5 19.9037 0.5 13C0.5 6.09625 6.09625 0.5 13 0.5C19.9037 0.5 25.5 6.09625 25.5 13C25.5 19.9037 19.9037 25.5 13 25.5ZM13 23C15.6522 23 18.1957 21.9464 20.0711 20.0711C21.9464 18.1957 23 15.6522 23 13C23 10.3478 21.9464 7.8043 20.0711 5.92893C18.1957 4.05357 15.6522 3 13 3C10.3478 3 7.8043 4.05357 5.92893 5.92893C4.05357 7.8043 3 10.3478 3 13C3 15.6522 4.05357 18.1957 5.92893 20.0711C7.8043 21.9464 10.3478 23 13 23ZM8 14.25H18C18 15.5761 17.4732 16.8479 16.5355 17.7855C15.5979 18.7232 14.3261 19.25 13 19.25C11.6739 19.25 10.4021 18.7232 9.46447 17.7855C8.52678 16.8479 8 15.5761 8 14.25ZM8 11.75C7.50272 11.75 7.02581 11.5525 6.67417 11.2008C6.32254 10.8492 6.125 10.3723 6.125 9.875C6.125 9.37772 6.32254 8.90081 6.67417 8.54917C7.02581 8.19754 7.50272 8 8 8C8.49728 8 8.97419 8.19754 9.32583 8.54917C9.67746 8.90081 9.875 9.37772 9.875 9.875C9.875 10.3723 9.67746 10.8492 9.32583 11.2008C8.97419 11.5525 8.49728 11.75 8 11.75ZM18 11.75C17.5027 11.75 17.0258 11.5525 16.6742 11.2008C16.3225 10.8492 16.125 10.3723 16.125 9.875C16.125 9.37772 16.3225 8.90081 16.6742 8.54917C17.0258 8.19754 17.5027 8 18 8C18.4973 8 18.9742 8.19754 19.3258 8.54917C19.6775 8.90081 19.875 9.37772 19.875 9.875C19.875 10.3723 19.6775 10.8492 19.3258 11.2008C18.9742 11.5525 18.4973 11.75 18 11.75Z" fill="white"/>
</svg>
