<svg width="123" height="18" viewBox="0 0 123 18" fill="none" xmlns="http://www.w3.org/2000/svg">
<path d="M26.2839 15.8588C26.0844 15.915 25.8533 15.9668 25.593 16.0185C25.3327 16.0702 25.0603 16.1129 24.7757 16.1512C24.4911 16.1872 24.1992 16.2186 23.9048 16.2411C23.6105 16.2636 23.3259 16.2749 23.0559 16.2749C22.4064 16.2749 21.825 16.1872 21.3141 16.0117C20.8033 15.8363 20.3727 15.5845 20.0224 15.2561C19.6722 14.9278 19.4046 14.5297 19.2197 14.062C19.0348 13.5942 18.9424 13.0702 18.9424 12.4878C18.9424 11.8963 19.0227 11.3611 19.1832 10.8866C19.3438 10.4098 19.5724 10.005 19.8741 9.67217C20.1757 9.33933 20.543 9.08521 20.976 8.9098C21.4114 8.73439 21.9077 8.64668 22.4696 8.64668C22.7785 8.64668 23.0583 8.67367 23.3015 8.72989C23.5472 8.78611 23.7954 8.86482 24.0435 8.96602V5.66242L26.279 5.32959V15.8588H26.2839ZM21.2266 12.3911C21.2266 13.0297 21.3822 13.5425 21.6912 13.9315C22.0001 14.3206 22.4623 14.514 23.0729 14.514C23.2724 14.514 23.4572 14.5073 23.6275 14.4938C23.7978 14.4803 23.9364 14.4645 24.0483 14.4443V10.6842C23.9073 10.601 23.7248 10.5312 23.501 10.4773C23.2748 10.421 23.0486 10.3941 22.8175 10.3941C21.7569 10.3941 21.2266 11.0597 21.2266 12.3911Z" fill="#FF9A01"/>
<path d="M31.2195 8.604C31.8787 8.604 32.4309 8.67372 32.8712 8.81315C33.3115 8.95258 33.6642 9.15048 33.9294 9.4091C34.1945 9.66772 34.3818 9.98256 34.4913 10.3536C34.6007 10.7247 34.6567 11.1362 34.6567 11.5883V15.8881C34.3356 15.9533 33.8904 16.0298 33.3212 16.1175C32.752 16.2052 32.0611 16.2502 31.2511 16.2502C30.7403 16.2502 30.2781 16.2075 29.8621 16.1242C29.4461 16.041 29.0885 15.9039 28.7893 15.7149C28.4901 15.526 28.259 15.2787 28.0985 14.9728C27.9379 14.667 27.8577 14.2937 27.8577 13.8484C27.8577 13.4233 27.9501 13.0613 28.135 12.7667C28.3199 12.4698 28.568 12.2359 28.8769 12.0583C29.1858 11.8829 29.541 11.7547 29.9424 11.676C30.3413 11.5973 30.7573 11.559 31.1879 11.559C31.4773 11.559 31.7352 11.5703 31.9614 11.5928C32.1876 11.6152 32.3701 11.6467 32.5087 11.6827V11.4893C32.5087 11.1385 32.3944 10.8551 32.1633 10.6437C31.9322 10.4301 31.5333 10.3244 30.9616 10.3244C30.5821 10.3244 30.2051 10.3491 29.8353 10.4009C29.4656 10.4526 29.1445 10.5245 28.8745 10.6167L28.5899 8.95258C28.7188 8.9166 28.8818 8.87612 29.0764 8.83564C29.271 8.79291 29.4851 8.75693 29.7137 8.72544C29.9448 8.69396 30.1856 8.66472 30.4411 8.64223C30.7013 8.61525 30.9592 8.604 31.2195 8.604ZM31.3995 14.6512C31.6184 14.6512 31.8301 14.6467 32.0295 14.6377C32.229 14.6287 32.3895 14.6152 32.5087 14.595V13.0275C32.4187 13.0096 32.2825 12.9916 32.1025 12.9713C31.9225 12.9533 31.7571 12.9443 31.6063 12.9443C31.3971 12.9443 31.1976 12.9556 31.0127 12.9781C30.8278 13.0006 30.6649 13.0455 30.5262 13.1108C30.3851 13.176 30.2756 13.2637 30.1954 13.3739C30.1151 13.4841 30.0762 13.6235 30.0762 13.7899C30.0762 14.1137 30.1929 14.3386 30.4289 14.4623C30.6673 14.5905 30.9908 14.6512 31.3995 14.6512Z" fill="#FF9A01"/>
<path d="M36.6077 6.9803L38.8432 6.64746V8.79739H41.5288V10.5178H38.8432V13.0837C38.8432 13.5178 38.9259 13.8664 39.0913 14.125C39.2567 14.3836 39.59 14.514 40.0887 14.514C40.3295 14.514 40.5752 14.4938 40.8306 14.4511C41.086 14.4106 41.3171 14.3521 41.5288 14.2779L41.845 15.8881C41.575 15.9893 41.2758 16.077 40.9449 16.1512C40.6141 16.2254 40.2103 16.2614 39.7286 16.2614C39.1181 16.2614 38.6121 16.1849 38.2132 16.032C37.8118 15.8791 37.4931 15.6677 37.2523 15.3933C37.0115 15.1212 36.8436 14.7906 36.7487 14.4016C36.6539 14.0125 36.6052 13.583 36.6052 13.1107L36.6077 6.9803Z" fill="#FF9A01"/>
<path d="M45.8806 8.604C46.5398 8.604 47.092 8.67372 47.5323 8.81315C47.9726 8.95258 48.3254 9.15048 48.5905 9.4091C48.8557 9.66772 49.043 9.98256 49.1524 10.3536C49.2619 10.7247 49.3178 11.1362 49.3178 11.5883V15.8881C48.9967 15.9533 48.5516 16.0298 47.9824 16.1175C47.4131 16.2052 46.7223 16.2502 45.9122 16.2502C45.4014 16.2502 44.9392 16.2075 44.5232 16.1242C44.1073 16.041 43.7497 15.9039 43.4505 15.7149C43.1513 15.526 42.9202 15.2787 42.7596 14.9728C42.5991 14.667 42.5188 14.2937 42.5188 13.8484C42.5188 13.4233 42.6112 13.0613 42.7961 12.7667C42.981 12.4698 43.2291 12.2359 43.538 12.0583C43.847 11.8829 44.2021 11.7547 44.6035 11.676C45.0025 11.5973 45.4184 11.559 45.849 11.559C46.1385 11.559 46.3963 11.5703 46.6226 11.5928C46.8488 11.6152 47.0312 11.6467 47.1699 11.6827V11.4893C47.1699 11.1385 47.0556 10.8551 46.8245 10.6437C46.5934 10.4301 46.1944 10.3244 45.6228 10.3244C45.2433 10.3244 44.8662 10.3491 44.4965 10.4009C44.1267 10.4526 43.8056 10.5245 43.5356 10.6167L43.251 8.95258C43.3799 8.9166 43.5429 8.87612 43.7375 8.83564C43.9321 8.79291 44.1462 8.75693 44.3749 8.72544C44.6059 8.69396 44.8468 8.66472 45.1022 8.64223C45.3625 8.61525 45.6203 8.604 45.8806 8.604ZM46.0606 14.6512C46.2796 14.6512 46.4912 14.6467 46.6907 14.6377C46.8901 14.6287 47.0507 14.6152 47.1699 14.595V13.0275C47.0799 13.0096 46.9437 12.9916 46.7636 12.9713C46.5836 12.9533 46.4182 12.9443 46.2674 12.9443C46.0582 12.9443 45.8587 12.9556 45.6738 12.9781C45.489 13.0006 45.326 13.0455 45.1873 13.1108C45.0462 13.176 44.9368 13.2637 44.8565 13.3739C44.7762 13.4841 44.7373 13.6235 44.7373 13.7899C44.7373 14.1137 44.8541 14.3386 45.09 14.4623C45.3284 14.5905 45.652 14.6512 46.0606 14.6512Z" fill="#FF9A01"/>
<path d="M54.4359 5.32959C54.8568 5.32959 55.1998 5.35882 55.4649 5.41954C55.7301 5.48026 55.9028 5.53199 55.983 5.57921L55.7884 6.35733C55.679 6.3101 55.516 6.26287 55.3019 6.21115C55.0879 6.15942 54.8154 6.13469 54.4846 6.13469C53.7937 6.13469 53.3024 6.29661 53.0056 6.62044C52.7112 6.94428 52.5629 7.46152 52.5629 8.17442V8.92329H55.6838V9.68566H52.5629V16.095H51.5874V8.14518C51.5874 7.2119 51.8209 6.508 52.2855 6.03574C52.7477 5.56572 53.4653 5.32959 54.4359 5.32959Z" fill="#FF9A01"/>
<path d="M59.5834 8.75439C60.0942 8.75439 60.5272 8.82186 60.8824 8.95454C61.2375 9.08948 61.5246 9.27389 61.7459 9.51002C61.9649 9.74615 62.1254 10.025 62.2251 10.3488C62.3249 10.6727 62.376 11.0235 62.376 11.4036V15.9261C62.2762 15.953 62.1303 15.9845 61.9405 16.016C61.7508 16.0475 61.5294 16.0835 61.2813 16.1195C61.0308 16.1554 60.7534 16.1869 60.4494 16.2094C60.1453 16.2319 59.8315 16.2432 59.5104 16.2432C59.0993 16.2432 58.7222 16.2004 58.3768 16.1172C58.0314 16.034 57.7322 15.9013 57.4768 15.7214C57.2214 15.5415 57.0219 15.3099 56.8759 15.0288C56.73 14.7477 56.6594 14.4013 56.6594 13.9943C56.6594 13.6052 56.7397 13.2724 56.9003 12.9958C57.0608 12.7192 57.2846 12.4898 57.5765 12.3099C57.866 12.13 58.2114 11.9973 58.6128 11.9141C59.0117 11.8309 59.4472 11.7904 59.9191 11.7904C60.0602 11.7904 60.2061 11.7971 60.3618 11.8106C60.5175 11.8241 60.6659 11.8421 60.8118 11.8668C60.9578 11.8893 61.0818 11.9141 61.1864 11.9366C61.291 11.959 61.364 11.9815 61.4029 11.9995V11.5565C61.4029 11.3069 61.3835 11.064 61.3421 10.8279C61.3032 10.5917 61.2156 10.3803 61.0794 10.1892C60.9432 10.0003 60.7534 9.84735 60.5102 9.73041C60.2645 9.61572 59.9434 9.55724 59.542 9.55724C58.9728 9.55724 58.5471 9.59547 58.2674 9.66744C57.9876 9.74165 57.7808 9.80237 57.6519 9.84735L57.5157 9.05574C57.686 8.98153 57.9487 8.91182 58.3038 8.84885C58.6541 8.78813 59.0823 8.75439 59.5834 8.75439ZM59.6734 15.4426C60.0529 15.4426 60.3861 15.4313 60.6707 15.4088C60.9553 15.3863 61.1986 15.3548 61.3981 15.3189V12.7934C61.2886 12.7462 61.1135 12.6989 60.8726 12.6472C60.6318 12.5955 60.3034 12.5707 59.8826 12.5707C59.6418 12.5707 59.3912 12.5865 59.1334 12.6202C58.8731 12.6517 58.6322 12.7214 58.4133 12.8271C58.1919 12.9328 58.0119 13.079 57.8733 13.2634C57.7322 13.4478 57.6641 13.6929 57.6641 13.9988C57.6641 14.2664 57.7103 14.4935 57.8076 14.6779C57.9025 14.8623 58.0387 15.0108 58.2138 15.121C58.389 15.2312 58.5982 15.3121 58.8439 15.3638C59.0847 15.4178 59.362 15.4426 59.6734 15.4426Z" fill="#FF9A01"/>
<path d="M64.8643 9.17324C65.1537 9.09902 65.5454 9.01581 66.0343 8.92361C66.5233 8.83141 67.1241 8.78418 67.8344 8.78418C68.4255 8.78418 68.9169 8.86289 69.3134 9.02031C69.7075 9.17773 70.0237 9.40262 70.2597 9.69273C70.4956 9.98508 70.6635 10.3337 70.7632 10.7407C70.863 11.1477 70.914 11.5953 70.914 12.0855V16.0953H69.9386V12.3779C69.9386 11.8696 69.9021 11.4401 69.8267 11.087C69.7513 10.7362 69.6272 10.4483 69.4521 10.2257C69.2769 10.0031 69.0458 9.8434 68.7612 9.7467C68.4766 9.65 68.119 9.60052 67.6885 9.60052C67.2287 9.60052 66.8298 9.62301 66.4965 9.67024C66.1608 9.71746 65.9443 9.75794 65.8446 9.79393V16.093H64.8691V9.17324H64.8643Z" fill="#FF9A01"/>
<path d="M75.7599 8.75439C76.2707 8.75439 76.7037 8.82186 77.0589 8.95454C77.414 9.08948 77.7011 9.27389 77.9225 9.51002C78.1438 9.74615 78.3019 10.025 78.4017 10.3488C78.5014 10.6727 78.5525 11.0235 78.5525 11.4036V15.9261C78.4528 15.953 78.3068 15.9845 78.1171 16.016C77.9273 16.0475 77.706 16.0835 77.4578 16.1195C77.2073 16.1554 76.93 16.1869 76.6259 16.2094C76.3218 16.2319 76.008 16.2432 75.6869 16.2432C75.2758 16.2432 74.8988 16.2004 74.5533 16.1172C74.2079 16.034 73.9087 15.9013 73.6533 15.7214C73.3979 15.5415 73.1984 15.3099 73.0524 15.0288C72.9065 14.7477 72.8359 14.4013 72.8359 13.9943C72.8359 13.6052 72.9162 13.2724 73.0768 12.9958C73.2373 12.7192 73.4611 12.4898 73.753 12.3099C74.0425 12.13 74.3879 11.9973 74.7893 11.9141C75.1882 11.8309 75.6237 11.7904 76.0956 11.7904C76.2367 11.7904 76.3826 11.7971 76.5383 11.8106C76.694 11.8241 76.8424 11.8421 76.9883 11.8668C77.1343 11.8893 77.2584 11.9141 77.363 11.9366C77.4676 11.959 77.5405 11.9815 77.5795 11.9995V11.5565C77.5795 11.3069 77.56 11.064 77.5186 10.8279C77.4773 10.5917 77.3922 10.3803 77.2559 10.1892C77.1221 10.0003 76.93 9.84735 76.6867 9.73041C76.441 9.61572 76.1199 9.55724 75.7185 9.55724C75.1493 9.55724 74.7236 9.59547 74.4439 9.66744C74.1641 9.74165 73.9574 9.80237 73.8284 9.84735L73.6922 9.05574C73.8625 8.98153 74.1252 8.91182 74.4804 8.84885C74.8307 8.78813 75.2588 8.75439 75.7599 8.75439ZM75.8499 15.4426C76.2294 15.4426 76.5626 15.4313 76.8473 15.4088C77.1319 15.3863 77.3751 15.3548 77.5746 15.3189V12.7934C77.4651 12.7462 77.29 12.6989 77.0492 12.6472C76.8083 12.5955 76.4799 12.5707 76.0591 12.5707C75.8183 12.5707 75.5677 12.5865 75.3099 12.6202C75.0496 12.6517 74.8088 12.7214 74.5898 12.8271C74.3685 12.9328 74.1885 13.079 74.0498 13.2634C73.9087 13.4478 73.8406 13.6929 73.8406 13.9988C73.8406 14.2664 73.8868 14.4935 73.9841 14.6779C74.079 14.8623 74.2152 15.0108 74.3904 15.121C74.5655 15.2312 74.7747 15.3121 75.0204 15.3638C75.2612 15.4178 75.5385 15.4426 75.8499 15.4426Z" fill="#FF9A01"/>
<path d="M81.9557 8.92332H85.0475V9.68569H81.9557V13.4998C81.9557 13.9068 81.9922 14.2374 82.0676 14.4915C82.143 14.7457 82.25 14.9413 82.3911 15.0807C82.5322 15.2202 82.7 15.3124 82.9019 15.3574C83.1014 15.4046 83.3228 15.4271 83.5612 15.4271C83.9723 15.4271 84.3007 15.3821 84.5512 15.2944C84.8018 15.2067 84.9964 15.1257 85.1375 15.0515L85.3783 15.8004C85.2372 15.8836 84.994 15.9781 84.6437 16.0837C84.2934 16.1894 83.9139 16.2434 83.5028 16.2434C83.0236 16.2434 82.6198 16.1849 82.2938 16.0703C81.9678 15.9556 81.7076 15.7801 81.513 15.544C81.3184 15.3079 81.1797 15.0155 81.0994 14.6625C81.0191 14.3116 80.9802 13.8956 80.9802 13.4143V6.81388L81.9557 6.64746V8.92332Z" fill="#FF9A01"/>
<path d="M88.0492 6.7576C88.0492 6.97124 87.9787 7.1399 87.84 7.26359C87.6989 7.38953 87.5286 7.45025 87.3292 7.45025C87.1297 7.45025 86.9594 7.38728 86.8183 7.26359C86.6772 7.1399 86.6091 6.97124 86.6091 6.7576C86.6091 6.54395 86.6797 6.37529 86.8183 6.2516C86.9594 6.12566 87.1273 6.06494 87.3292 6.06494C87.5286 6.06494 87.6989 6.12791 87.84 6.2516C87.9787 6.37529 88.0492 6.5462 88.0492 6.7576ZM87.823 16.0949H86.8475V8.92326H87.823V16.0949Z" fill="#FF9A01"/>
<path d="M93.6173 16.248C93.0164 16.248 92.4861 16.1603 92.0264 15.9849C91.5666 15.8095 91.1847 15.5576 90.8782 15.2293C90.5741 14.901 90.3406 14.5074 90.18 14.0509C90.0195 13.5921 89.9392 13.0861 89.9392 12.5329C89.9392 11.9684 90.0219 11.4557 90.1873 10.9924C90.3528 10.5291 90.5911 10.1311 90.9001 9.79826C91.209 9.46542 91.5861 9.20905 92.0264 9.02914C92.4667 8.84923 92.9629 8.75928 93.5127 8.75928C93.9335 8.75928 94.3251 8.79076 94.69 8.85598C95.0549 8.9212 95.3371 9.0044 95.539 9.1056L95.2836 9.88147C95.0841 9.78926 94.8579 9.71505 94.6073 9.65883C94.3568 9.60261 94.0211 9.57562 93.6027 9.57562C92.7415 9.57562 92.0896 9.83199 91.6444 10.3447C91.1993 10.8575 90.9755 11.5861 90.9755 12.5306C90.9755 12.9557 91.0266 13.347 91.1263 13.7023C91.226 14.0576 91.389 14.3635 91.6128 14.6176C91.8391 14.8717 92.1285 15.0719 92.4837 15.2135C92.8388 15.3575 93.2718 15.4294 93.7827 15.4294C94.2035 15.4294 94.5562 15.3845 94.8409 15.2968C95.1255 15.2091 95.3347 15.1326 95.4636 15.0674L95.6728 15.8455C95.4928 15.9377 95.2106 16.0276 94.8238 16.1153C94.4395 16.2031 94.0357 16.248 93.6173 16.248Z" fill="#FF9A01"/>
<path d="M98.8984 15.4563C99.4579 15.4563 99.9201 15.3709 100.287 15.2C100.652 15.0291 100.835 14.7412 100.835 14.3319C100.835 14.1385 100.803 13.9721 100.737 13.8327C100.672 13.6932 100.565 13.5695 100.414 13.4571C100.263 13.3469 100.066 13.2389 99.8204 13.1377C99.5747 13.0366 99.2731 12.9151 98.913 12.7779C98.6236 12.6677 98.3487 12.553 98.0884 12.4383C97.8281 12.3237 97.597 12.1887 97.3976 12.0358C97.1981 11.8829 97.0375 11.7007 96.9183 11.4871C96.7991 11.2734 96.7383 11.0148 96.7383 10.709C96.7383 10.1265 96.9767 9.65424 97.4511 9.29442C97.9254 8.9346 98.5798 8.75244 99.4093 8.75244C99.9396 8.75244 100.377 8.79517 100.723 8.87838C101.068 8.96159 101.312 9.0358 101.45 9.10102L101.224 9.90612C101.105 9.84989 100.9 9.77568 100.616 9.68348C100.331 9.59127 99.9128 9.54405 99.3631 9.54405C99.1417 9.54405 98.9349 9.56429 98.7403 9.60702C98.5457 9.64974 98.373 9.71271 98.2222 9.80267C98.0714 9.89037 97.9522 10.0028 97.8622 10.1355C97.7722 10.2682 97.7284 10.4346 97.7284 10.628C97.7284 10.8237 97.7673 10.9901 97.8476 11.1295C97.9279 11.2689 98.0446 11.3926 98.2003 11.4983C98.356 11.604 98.5457 11.7052 98.7695 11.7974C98.9933 11.8896 99.2512 11.9908 99.5431 12.101C99.8423 12.2112 100.132 12.3237 100.407 12.4383C100.682 12.553 100.925 12.6925 101.134 12.8544C101.343 13.0163 101.513 13.2097 101.645 13.4369C101.774 13.664 101.839 13.9473 101.839 14.2892C101.839 14.9369 101.577 15.4271 101.051 15.7599C100.526 16.0928 99.8082 16.2592 98.8984 16.2592C98.2173 16.2592 97.6968 16.2052 97.3367 16.0995C96.9767 15.9938 96.7359 15.9129 96.6167 15.8566L96.8721 15.0381C96.9013 15.056 96.967 15.0875 97.0667 15.128C97.1665 15.1685 97.3027 15.2157 97.473 15.2674C97.6432 15.3192 97.8451 15.3619 98.0811 15.4001C98.3171 15.4384 98.5895 15.4563 98.8984 15.4563Z" fill="#FF9A01"/>
<path d="M105.111 15.499C105.111 15.7126 105.038 15.8925 104.895 16.041C104.749 16.1894 104.547 16.2636 104.287 16.2636C104.026 16.2636 103.824 16.1894 103.678 16.041C103.532 15.8925 103.462 15.7126 103.462 15.499C103.462 15.2853 103.535 15.1054 103.678 14.957C103.824 14.8086 104.026 14.7344 104.287 14.7344C104.547 14.7344 104.749 14.8086 104.895 14.957C105.038 15.1054 105.111 15.2853 105.111 15.499Z" fill="#FF9A01"/>
<path d="M107.422 9.17324C107.712 9.09902 108.103 9.01581 108.592 8.92361C109.081 8.83141 109.682 8.78418 110.392 8.78418C110.983 8.78418 111.475 8.86289 111.871 9.02031C112.265 9.17773 112.582 9.40262 112.818 9.69273C113.054 9.98508 113.221 10.3337 113.321 10.7407C113.421 11.1477 113.472 11.5953 113.472 12.0855V16.0953H112.496V12.3779C112.496 11.8696 112.46 11.4401 112.385 11.087C112.309 10.7362 112.185 10.4483 112.01 10.2257C111.835 10.0031 111.604 9.8434 111.319 9.7467C111.034 9.65 110.677 9.60052 110.246 9.60052C109.787 9.60052 109.388 9.62301 109.054 9.67024C108.719 9.71746 108.502 9.75794 108.402 9.79393V16.093H107.427V9.17324H107.422Z" fill="#FF9A01"/>
<path d="M117.926 16.2209C117.595 16.2119 117.308 16.1714 117.062 16.104C116.817 16.0342 116.612 15.9285 116.447 15.7846C116.281 15.6407 116.157 15.4563 116.072 15.2291C115.987 15.002 115.946 14.7186 115.946 14.3768V5.49601L116.921 5.32959V14.3476C116.921 14.5702 116.943 14.7479 116.989 14.8828C117.036 15.0177 117.101 15.1234 117.191 15.2022C117.281 15.2809 117.398 15.3393 117.544 15.3753C117.69 15.4136 117.863 15.445 118.062 15.472L117.926 16.2209Z" fill="#FF9A01"/>
<path d="M122.502 14.5343C122.502 14.793 122.455 15.0223 122.365 15.2225C122.275 15.4226 122.154 15.5936 122.003 15.733C121.852 15.8724 121.677 15.9781 121.478 16.0523C121.278 16.1265 121.069 16.1625 120.852 16.1625C120.636 16.1625 120.427 16.1265 120.227 16.0523C120.028 15.9781 119.853 15.8724 119.702 15.733C119.551 15.5936 119.429 15.4226 119.339 15.2225C119.249 15.0223 119.203 14.793 119.203 14.5343C119.203 14.2802 119.249 14.0508 119.339 13.8484C119.429 13.646 119.551 13.4751 119.702 13.3379C119.853 13.2007 120.028 13.0951 120.227 13.0208C120.427 12.9466 120.636 12.9106 120.852 12.9106C121.069 12.9106 121.278 12.9466 121.478 13.0208C121.677 13.0951 121.852 13.2007 122.003 13.3379C122.154 13.4751 122.275 13.646 122.365 13.8484C122.455 14.0508 122.502 14.2802 122.502 14.5343ZM122.215 14.5343C122.215 14.3274 122.181 14.1385 122.112 13.9676C122.044 13.7967 121.95 13.6505 121.83 13.5291C121.711 13.4076 121.568 13.3132 121.4 13.248C121.232 13.1828 121.049 13.149 120.852 13.149C120.655 13.149 120.473 13.1828 120.305 13.248C120.137 13.3132 119.994 13.4076 119.875 13.5291C119.755 13.6505 119.66 13.7967 119.592 13.9676C119.524 14.1385 119.49 14.3274 119.49 14.5343C119.49 14.7412 119.524 14.9301 119.592 15.1011C119.66 15.272 119.755 15.4181 119.875 15.5396C119.994 15.661 120.137 15.7555 120.305 15.8229C120.473 15.8904 120.655 15.9241 120.852 15.9241C121.049 15.9241 121.232 15.8904 121.4 15.8229C121.568 15.7555 121.711 15.661 121.83 15.5396C121.95 15.4181 122.044 15.272 122.112 15.1011C122.181 14.9301 122.215 14.7412 122.215 14.5343ZM121.378 15.4249C121.293 15.2832 121.205 15.1505 121.115 15.0223C121.025 14.8942 120.945 14.793 120.877 14.7187C120.855 14.721 120.833 14.7232 120.813 14.7232C120.794 14.7232 120.777 14.7232 120.76 14.7232H120.453V15.4249H120.186V13.6843C120.261 13.6685 120.344 13.6573 120.436 13.6483C120.529 13.6393 120.616 13.6348 120.697 13.6348C120.972 13.6348 121.183 13.682 121.327 13.7742C121.47 13.8664 121.543 14.0081 121.543 14.197C121.543 14.3049 121.512 14.4016 121.446 14.4871C121.38 14.5726 121.285 14.6355 121.159 14.6783C121.186 14.7052 121.22 14.7457 121.264 14.8019C121.307 14.8582 121.354 14.9189 121.402 14.9886C121.451 15.0583 121.499 15.1303 121.548 15.209C121.597 15.2877 121.638 15.3597 121.675 15.4249H121.378ZM120.453 14.5208H120.697C120.777 14.5208 120.852 14.5163 120.921 14.5073C120.989 14.4984 121.047 14.4804 121.098 14.4556C121.149 14.4309 121.188 14.3972 121.215 14.3544C121.242 14.3117 121.256 14.2577 121.256 14.1925C121.256 14.1295 121.242 14.0756 121.21 14.0328C121.178 13.9901 121.139 13.9541 121.088 13.9271C121.037 13.9001 120.981 13.8799 120.916 13.8687C120.85 13.8574 120.782 13.8507 120.711 13.8507C120.663 13.8507 120.616 13.8507 120.573 13.8529C120.529 13.8552 120.49 13.8574 120.453 13.8597V14.5208Z" fill="#FF9A01"/>
<path d="M17.3248 3.49025V0C16.2058 0.00224887 15.1842 0.188906 14.2817 0.532984C14.2768 0.535233 14.2695 0.537481 14.2646 0.53973V10.7811V10.7834C14.6247 9.61844 15.6609 8.86956 17.0621 8.86506V5.51424C16.055 5.51649 15.1306 5.68066 14.3036 5.97301C14.5201 4.4865 15.6804 3.49475 17.3248 3.49025Z" fill="#FF9A01"/>
<path d="M10.1949 6.63186C9.4408 5.66034 8.09073 5.03516 6.39279 5.03516C3.56128 5.03516 0 6.9557 0 11.5187C0 15.2585 2.96773 17.9999 7.17365 17.9999C7.6553 17.9999 8.11749 17.9639 8.56265 17.8965V14.2353C8.15641 14.413 7.68935 14.5119 7.17365 14.5119C5.33949 14.5119 4.09888 13.2908 4.09888 11.5209C4.09888 9.75105 5.33949 8.52991 7.17365 8.52991C8.75968 8.52991 9.93218 9.51267 10.2168 10.9115V6.66784L10.1949 6.63186Z" fill="#FF9A01"/>
<path d="M11.6812 2.33895C10.8298 3.34869 10.2971 4.65529 10.2168 6.19127V6.19352V6.66803V10.9117V11.186V17.4919V17.4941C10.8006 17.2715 11.3333 16.9836 11.8053 16.6328C12.5326 16.0953 13.1456 15.3464 13.5786 14.5076C14.0116 13.6665 14.2646 12.7355 14.2646 11.8314V10.7835V10.7812V0.539847V0.537598C13.2259 0.935649 12.3477 1.54734 11.6812 2.33895Z" fill="#FF9A01"/>
</svg>
