<svg width="214" height="94" viewBox="0 0 214 94" fill="none" xmlns="http://www.w3.org/2000/svg">
<g clip-path="url(#clip0)">
<path d="M15.6337 1.79445C15.989 12.4914 16.2271 23.1946 16.1504 33.9C16.111 39.2523 15.9935 44.6053 15.731 49.9535C15.5037 55.3078 14.9995 60.6467 14.2204 65.9487C13.8369 68.6119 13.2108 71.2345 12.3498 73.7835C11.9223 75.0838 11.2607 76.2948 10.3977 77.3569C9.93906 77.905 9.33174 78.3086 8.649 78.5191C7.95104 78.694 7.21565 78.6431 6.54841 78.3736C5.90009 78.1296 5.29245 77.7887 4.74616 77.3625C4.20195 76.9486 3.69873 76.4833 3.24346 75.9731C2.33211 74.9582 1.5785 73.812 1.00792 72.5727C0.417399 71.332 0.0760574 69.9873 0.00326981 68.615C-0.0214935 67.2361 0.251573 65.8682 0.803797 64.6047C1.88472 62.0797 3.73045 59.9934 5.7741 58.2422C7.83753 56.4884 10.1537 55.0566 12.6443 53.995C13.8962 53.4533 15.2117 53.073 16.5594 52.8631C17.2542 52.7583 17.9615 52.7697 18.6526 52.8967L18.9171 52.9542C19.0044 52.9796 19.0902 53.0178 19.1767 53.0496L19.435 53.1509L19.6771 53.3015C20.0097 53.5017 20.2766 53.7946 20.4454 54.1444C20.6112 54.4789 20.7075 54.8436 20.7286 55.2165C20.7558 55.5687 20.7496 55.9227 20.7101 56.2738C20.631 56.9515 20.508 57.6234 20.3419 58.2852C20.0293 59.5956 19.6748 60.8797 19.4257 62.1788C19.1537 63.4609 19.0602 64.7746 19.1479 66.0824C19.1996 66.7251 19.3273 67.3594 19.5284 67.9719C19.7356 68.5783 20.0174 69.1566 20.3673 69.6934C21.1049 70.7588 22.0656 71.6506 23.1825 72.3067C24.3054 72.9769 25.5131 73.4934 26.7732 73.8422C28.0377 74.2017 29.337 74.4245 30.649 74.5068C31.9596 74.6002 33.2763 74.5618 34.5792 74.3921C37.1838 74.0297 39.645 72.98 41.7102 71.3508C43.7884 69.7173 45.608 67.7788 47.1074 65.601C47.8695 64.5173 48.5744 63.3928 49.2407 62.2448C49.8908 61.0872 50.511 59.9116 51.0785 58.7091C53.3143 53.8705 55.0514 48.8163 56.2628 43.625C57.5101 38.439 58.3377 33.1607 58.7376 27.8416C58.9364 25.1843 59.016 22.5185 58.9525 19.8579C58.9005 17.2007 58.6553 14.5508 58.2188 11.9292C57.7448 9.33247 57.0595 6.73383 55.7731 4.46851C55.161 3.34337 54.2956 2.3763 53.2454 1.64387C52.1683 0.984935 50.9061 0.695016 49.6498 0.817985C48.3615 0.949445 47.1035 1.29169 45.926 1.83105C44.7244 2.3721 43.5647 3.00168 42.4563 3.71461C41.3356 4.40833 40.2649 5.17987 39.2521 6.02355C38.2552 6.88572 37.3209 7.8177 36.4561 8.81244C34.7188 10.8082 33.2286 13.0066 32.0179 15.36C30.7956 17.712 29.8056 20.1778 29.062 22.7223C28.3219 25.2682 27.8366 27.8814 27.6135 30.5234C27.3734 33.1602 27.4578 35.8165 27.8648 38.4327C28.2458 41.0441 29.0622 43.573 30.2797 45.914C30.8879 47.0764 31.6166 48.1716 32.4537 49.1814C32.8742 49.6829 33.3244 50.1586 33.802 50.606C34.0419 50.8284 34.2755 51.058 34.5201 51.2749L35.2941 51.8789C37.4004 53.4594 39.804 54.598 42.3606 55.2262C44.922 55.8798 47.5632 56.1659 50.205 56.0759C55.517 55.8732 60.7446 54.6803 65.6194 52.5585C70.5295 50.5141 75.0129 47.5664 78.8372 43.868C80.7272 42.0154 82.3635 39.9203 83.7034 37.6374C85.0067 35.3322 85.9917 32.8606 86.6313 30.2904C87.5951 26.4235 87.9148 22.4239 87.5778 18.4527C87.487 17.1428 87.2599 15.846 86.9 14.5834C86.86 14.4552 86.8052 14.3321 86.737 14.2165C86.7437 14.2015 86.6914 14.214 86.8444 14.2578C87.0618 14.2584 87.0823 14.1335 87.0739 14.1623C87.0546 14.2132 87.0407 14.266 87.0323 14.3198C86.984 14.6377 86.9525 14.958 86.9379 15.2792C86.8989 15.9405 86.875 16.6095 86.8474 17.2777C86.7942 18.6151 86.7334 19.9548 86.6492 21.293C86.4827 23.9698 86.229 26.6425 85.8727 29.3017C85.1717 34.6251 84.0327 39.8815 82.4674 45.0174C80.9017 50.1546 78.8519 55.1314 76.3457 59.8806C73.811 64.61 70.8853 69.1189 67.5992 73.36C64.3433 77.6248 60.676 81.5585 56.6503 85.1045C54.6297 86.8697 52.4715 88.4708 50.1965 89.8925C47.925 91.3299 45.4681 92.4504 42.8939 93.223C40.3143 94.0133 37.5881 94.2011 34.9246 93.7722C32.2756 93.2618 29.7997 92.0856 27.7299 90.3542C25.6745 88.6284 23.9066 86.5864 22.4924 84.3048C21.7777 83.1727 21.1197 82.008 20.5183 80.8107C19.9246 79.6115 19.376 78.3916 18.8723 77.1511C19.383 78.3877 19.939 79.6038 20.5404 80.7995C21.1508 81.9895 21.8154 83.1489 22.5341 84.2779C23.9578 86.544 25.7326 88.569 27.7921 90.2771C29.856 91.9826 32.3193 93.135 34.9505 93.6258C37.5906 94.0341 40.2892 93.8312 42.8387 93.0327C45.389 92.2499 47.8206 91.1225 50.0663 89.6817C52.3202 88.2537 54.4566 86.6481 56.4554 84.8801C60.442 81.3244 64.0694 77.3848 67.2851 73.1183C70.5384 68.8825 73.4342 64.3835 75.9427 59.6676C78.4183 54.9368 80.4393 49.9813 81.9784 44.8679C83.5173 39.755 84.6317 34.5237 85.3105 29.2273C85.6558 26.5811 85.8989 23.9219 86.0554 21.257C86.1346 19.9244 86.1905 18.5907 86.239 17.2542C86.2644 16.5856 86.2857 15.9174 86.3232 15.2429C86.3378 14.8957 86.3713 14.5496 86.4235 14.2061C86.4408 14.0944 86.4734 13.9857 86.5201 13.8829C86.5536 13.8038 86.6118 13.7378 86.6859 13.6945C86.76 13.6513 86.8461 13.6332 86.9313 13.6429C86.9917 13.6533 87.0493 13.6759 87.1006 13.7094C87.1519 13.743 87.1957 13.7867 87.2295 13.8379C87.3408 14.0045 87.4278 14.1862 87.4879 14.3775C87.8703 15.6875 88.113 17.0344 88.2119 18.3956C88.5695 22.4395 88.2577 26.5146 87.2892 30.4569C86.6406 33.089 85.636 35.6202 84.3032 37.9804C82.9348 40.3196 81.2624 42.4668 79.3298 44.3659C75.4463 48.1316 70.8915 51.1348 65.9016 53.2198C60.9444 55.3837 55.6271 56.6023 50.223 56.8131C47.5122 56.9079 44.8017 56.6169 42.1726 55.9488C39.5195 55.2986 37.0249 54.1192 34.838 52.4814L34.0303 51.8518C33.7746 51.626 33.53 51.3871 33.2795 51.1551C32.7808 50.6886 32.3104 50.1925 31.871 49.6696C30.9986 48.62 30.2389 47.4814 29.6044 46.2727C28.3444 43.8582 27.498 41.2493 27.1007 38.5545C26.6808 35.8771 26.591 33.1583 26.8331 30.459C27.0576 27.7643 27.5494 25.0985 28.3013 22.5012C29.0567 19.9049 30.0636 17.3886 31.3079 14.9881C32.5446 12.5764 34.069 10.3237 35.8477 8.27927C36.7396 7.25581 37.7031 6.29714 38.731 5.41053L39.5277 4.77442C39.7937 4.56279 40.0567 4.3474 40.3424 4.1615C40.9028 3.77288 41.4599 3.38409 42.0321 3.03631C43.1749 2.30354 44.3705 1.65677 45.6091 1.10135C46.8687 0.52753 48.2142 0.165247 49.5914 0.0290406C51.0181 -0.104514 52.4495 0.22989 53.6696 0.9818C54.8243 1.78236 55.7761 2.84198 56.4488 4.07607C57.8084 6.48143 58.496 9.14474 58.9792 11.7954C59.4194 14.4552 59.6654 17.1436 59.7153 19.8393C59.7764 22.5291 59.6928 25.2186 59.4893 27.8976C59.0804 33.2566 58.2404 38.5739 56.9777 43.7978C55.7487 49.0365 53.9891 54.1361 51.7261 59.0174C51.1502 60.2341 50.5202 61.4253 49.8589 62.5994C49.1811 63.7645 48.4629 64.9073 47.6846 66.0113C46.1414 68.246 44.2693 70.2342 42.132 71.9085C41.0472 72.7391 39.8674 73.4373 38.6175 73.9885C37.3601 74.5341 36.0324 74.9002 34.6732 75.0759C33.323 75.2506 31.9587 75.289 30.6008 75.1907C29.2418 75.1043 27.8964 74.87 26.5881 74.4921C25.2701 74.1221 24.0077 73.5764 22.8349 72.8699C21.6399 72.1603 20.6138 71.1987 19.8278 70.052C19.4482 69.4662 19.1433 68.8352 18.9203 68.1737C18.7057 67.5132 18.5701 66.8297 18.5165 66.1372C18.4281 64.7711 18.5293 63.3994 18.817 62.061C19.0768 60.7321 19.4399 59.4359 19.7522 58.1451C19.9143 57.5095 20.0351 56.864 20.114 56.2128C20.2157 55.6057 20.1475 54.9823 19.9167 54.4117C19.7737 54.158 19.574 53.941 19.3332 53.7775C19.0924 53.614 18.8171 53.5085 18.5288 53.4692C17.9029 53.3544 17.2624 53.3436 16.633 53.4373C15.3352 53.6364 14.0679 53.999 12.8612 54.5167C10.4195 55.5481 8.14734 56.9422 6.12128 58.6521C4.11426 60.3578 2.31289 62.3918 1.27257 64.8038C0.744803 65.9981 0.480739 67.2923 0.498403 68.598C0.564591 69.906 0.886521 71.1884 1.44596 72.3724C1.99232 73.5695 2.71538 74.6777 3.5909 75.6597C4.02491 76.1497 4.50497 76.5968 5.02447 76.9949C5.53263 77.3949 6.09834 77.7156 6.70238 77.9462C7.28213 78.1864 7.92319 78.2357 8.53281 78.0871C9.13357 77.9006 9.66776 77.5445 10.0712 77.0616C10.8999 76.0431 11.5365 74.8822 11.95 73.6356C12.8082 71.1138 13.4381 68.5198 13.8319 65.885C14.6413 60.6005 15.1767 55.2776 15.4361 49.9377C15.7311 44.597 15.8814 39.2478 15.9535 33.8979C16.0958 23.1972 15.9235 12.4933 15.6337 1.79445Z" fill="#131921" stroke="#131921"/>
<path d="M77.9778 75.1256C81.1086 66.1859 84.2878 57.2623 87.622 48.395C89.2921 43.9626 90.9969 39.5426 92.7859 35.1553C93.6789 32.9611 94.6028 30.7792 95.5576 28.6097C96.5199 26.4437 97.5091 24.2876 98.6234 22.1883C99.1715 21.1289 99.7836 20.1039 100.456 19.1191C100.795 18.6089 101.199 18.1458 101.659 17.7421C101.919 17.5 102.263 17.369 102.618 17.3772C102.815 17.3987 102.996 17.4939 103.126 17.6437C103.242 17.7707 103.335 17.9162 103.401 18.0741C103.623 18.65 103.754 19.2565 103.791 19.8724C103.846 20.4717 103.865 21.0694 103.868 21.6658C103.873 22.8585 103.815 24.0461 103.736 25.231C103.401 29.9689 102.768 34.6687 102.121 39.3625C101.464 44.0554 100.749 48.7383 100.053 53.4225C99.7052 55.7646 99.3618 58.1069 99.043 60.4513C98.7304 62.795 98.4199 65.1437 98.2491 67.4898C98.2102 68.0753 98.1793 68.6621 98.1867 69.2385C98.187 69.5181 98.2076 69.7974 98.2483 70.0741C98.263 70.1802 98.2935 70.2835 98.3388 70.3805C98.3574 70.4023 98.3339 70.3614 98.2684 70.3543C98.2078 70.3554 98.2219 70.3698 98.2538 70.3392C98.4303 70.1584 98.5771 69.9507 98.6889 69.724C98.8253 69.4766 98.9504 69.2152 99.0702 68.9507C99.3094 68.4207 99.5278 67.8752 99.7375 67.3261C100.57 65.1245 101.293 62.8702 102.006 60.6159C103.421 56.1016 104.759 51.5589 106.097 47.0163C107.435 42.4733 108.766 37.927 110.147 33.3936C110.838 31.1272 111.542 28.8638 112.278 26.609C113.018 24.3554 113.775 22.1065 114.659 19.8913C114.883 19.3381 115.114 18.787 115.371 18.2417C115.621 17.6772 115.925 17.1377 116.277 16.6304C116.38 16.4876 116.499 16.3569 116.632 16.2409C116.716 16.1662 116.812 16.1059 116.916 16.0625C117.063 15.9981 117.227 15.9881 117.381 16.0342C117.523 16.0801 117.648 16.1695 117.737 16.2897C117.801 16.3736 117.854 16.4654 117.895 16.5628C117.962 16.7221 118.013 16.8879 118.046 17.0575C118.156 17.6638 118.211 18.2787 118.211 18.895C118.239 21.2984 118.037 23.6618 117.838 26.0275C117.416 30.7539 116.864 35.4596 116.332 40.1661C115.799 44.872 115.259 49.5763 114.827 54.2863C114.615 56.641 114.426 58.998 114.327 61.3526C114.28 62.5292 114.254 63.7068 114.296 64.8724C114.313 65.4482 114.363 66.0226 114.446 66.5928C114.485 66.8626 114.547 67.1287 114.629 67.3885C114.702 67.6242 114.857 67.8505 114.9 67.8395C114.912 67.8425 114.939 67.8501 115.02 67.8146C115.116 67.7674 115.205 67.706 115.283 67.6324C115.48 67.4508 115.659 67.2499 115.816 67.0325C116.153 66.5674 116.461 66.0819 116.739 65.5789C117.308 64.5626 117.82 63.5026 118.311 62.433C119.29 60.2901 120.184 58.1018 121.052 55.9034C122.782 51.503 124.398 47.0534 125.991 42.5959L130.712 29.1966C132.293 24.7305 133.839 20.2547 135.597 15.8377C135.82 15.2862 136.05 14.7366 136.293 14.1897C136.533 13.6284 136.81 13.0836 137.122 12.5587C137.216 12.4033 137.33 12.2605 137.461 12.134C137.513 12.0866 137.57 12.0462 137.633 12.0139C137.693 11.9836 137.76 11.9658 137.827 11.9616C137.895 11.9573 137.963 11.9667 138.027 11.9892C138.144 12.0355 138.241 12.1233 138.298 12.236C138.329 12.2953 138.353 12.3584 138.367 12.4237C138.422 12.7552 138.431 13.0929 138.391 13.4266C138.34 14.0377 138.251 14.6278 138.155 15.2174C137.76 17.5687 137.261 19.8836 136.772 22.2029C135.783 26.8369 134.771 31.4615 133.832 36.1007C132.891 40.7392 132.014 45.3899 131.285 50.0622C130.505 54.7207 130.022 59.4243 129.841 64.1444C129.739 66.4869 129.923 68.8332 130.389 71.1311C130.605 72.2494 131.096 73.2965 131.816 74.1788C132.179 74.5795 132.649 74.8676 133.171 75.0092C133.702 75.1355 134.257 75.12 134.78 74.9644C135.877 74.6091 136.906 74.0729 137.826 73.3779C138.785 72.7065 139.704 71.9682 140.616 71.2184C142.434 69.7125 144.223 68.1576 146.057 66.6546C149.697 63.6038 153.579 60.8541 157.665 58.4327C161.767 56.0302 166.116 54.079 170.637 52.6132C172.897 51.8843 175.195 51.283 177.522 50.8124C179.848 50.3235 182.211 50.0317 184.585 49.9402C186.968 49.8213 189.354 50.0778 191.657 50.7003C192.228 50.871 192.79 51.0745 193.338 51.3096C193.612 51.4285 193.882 51.5556 194.145 51.6937C194.41 51.8305 194.68 51.9569 194.934 52.1115C195.971 52.6957 196.954 53.371 197.872 54.1296C199.685 55.6669 201.31 57.4129 202.713 59.3315C203.429 60.2765 204.111 61.2453 204.795 62.2114C205.461 63.188 206.179 64.1281 206.945 65.0277C207.327 65.4752 207.767 65.8695 208.254 66.1999C208.736 66.536 209.329 66.6739 209.91 66.5852C210.484 66.4525 210.996 66.1276 211.36 65.6642C211.737 65.2102 212.048 64.7051 212.283 64.164C213.256 62.0011 213.647 59.6324 214 57.2993C213.663 59.6354 213.29 62.0056 212.328 64.1848C212.094 64.7323 211.784 65.244 211.407 65.7046C211.036 66.1823 210.513 66.5187 209.924 66.6582C209.324 66.7546 208.71 66.6169 208.208 66.2734C207.712 65.9419 207.262 65.5454 206.872 65.0943C206.096 64.197 205.369 63.2587 204.694 62.2835C204.004 61.3218 203.316 60.3591 202.595 59.4218C201.187 57.524 199.559 55.7992 197.747 54.2831C196.834 53.5388 195.856 52.8773 194.826 52.3064C194.573 52.1552 194.305 52.0324 194.043 51.8991C193.782 51.7644 193.515 51.641 193.245 51.5259C192.704 51.2985 192.151 51.1023 191.587 50.9383C189.308 50.3397 186.949 50.1032 184.596 50.2374C182.239 50.3448 179.896 50.6509 177.592 51.1523C175.282 51.6363 173.001 52.2499 170.76 52.9903C166.275 54.4681 161.962 56.4247 157.895 58.8263C153.841 61.2507 149.991 64.0008 146.382 67.0495C144.56 68.5549 142.781 70.1135 140.959 71.6341C140.046 72.3917 139.121 73.1404 138.144 73.8313C137.173 74.5688 136.085 75.1373 134.926 75.5129C134.309 75.6959 133.654 75.7141 133.028 75.5656C132.4 75.3988 131.832 75.0558 131.392 74.577C130.598 73.6246 130.054 72.4886 129.811 71.2724C129.323 68.9256 129.124 66.5278 129.219 64.1326C129.381 59.383 129.848 54.6487 130.615 49.9586C131.333 45.2688 132.211 40.6083 133.145 35.9618C134.08 31.3153 135.087 26.6849 136.069 22.0536C136.554 19.7381 137.05 17.4205 137.437 15.1001C137.53 14.5211 137.617 13.939 137.664 13.3698C137.693 13.1149 137.691 12.8575 137.658 12.6031C137.664 12.5484 137.599 12.5815 137.773 12.6756C137.801 12.6873 137.832 12.693 137.863 12.6924C137.894 12.6919 137.924 12.685 137.953 12.6723C137.96 12.6739 137.962 12.6642 137.946 12.6821C137.867 12.7649 137.798 12.856 137.739 12.9538C137.179 13.9715 136.691 15.0275 136.281 16.1141C134.541 20.5005 132.998 24.9831 131.424 29.447L126.72 42.8558C125.131 47.3194 123.519 51.7763 121.789 56.1937C120.921 58.4012 120.026 60.5999 119.04 62.7667C118.545 63.8493 118.027 64.9241 117.441 65.9747C117.147 66.5088 116.82 67.0242 116.462 67.5178C116.272 67.7805 116.056 68.023 115.816 68.2416C115.677 68.3697 115.519 68.4755 115.348 68.555C115.233 68.6102 115.109 68.6421 114.982 68.6489C114.855 68.6556 114.728 68.637 114.608 68.5942C114.39 68.5031 114.209 68.3429 114.091 68.1384C113.999 67.9845 113.923 67.8212 113.866 67.6514C113.768 67.3471 113.695 67.0353 113.649 66.719C113.562 66.117 113.51 65.5104 113.492 64.9024C113.451 63.7008 113.479 62.5088 113.528 61.3195C113.631 58.9416 113.824 56.576 114.04 54.214C114.479 49.4909 115.025 44.7839 115.565 40.0782C116.103 35.3728 116.66 30.6695 117.088 25.9608C117.288 23.6092 117.491 21.2448 117.467 18.9099C117.468 18.3413 117.419 17.7738 117.32 17.2138C117.297 17.0926 117.262 16.974 117.215 16.8598C117.18 16.7581 117.104 16.7053 117.162 16.7429C117.241 16.7478 117.187 16.7357 117.108 16.8087C117.018 16.8887 116.938 16.9782 116.868 17.0756C116.546 17.5424 116.269 18.0381 116.038 18.5562C115.79 19.0821 115.562 19.6228 115.341 20.1669C114.466 22.3494 113.708 24.5909 112.968 26.8353C112.231 29.0821 111.526 31.3407 110.833 33.6035C109.448 38.1296 108.111 42.6727 106.768 47.2144C105.421 51.7554 104.084 56.3004 102.65 60.8198C101.926 63.0779 101.194 65.3333 100.342 67.5586C100.127 68.1146 99.9033 68.6681 99.6533 69.2164C99.5278 69.4905 99.3964 69.7632 99.246 70.0337C99.0946 70.3383 98.8888 70.6126 98.6387 70.8431C98.5228 70.9417 98.3739 70.9928 98.2219 70.986C98.1358 70.9769 98.0531 70.9478 97.9804 70.9009C97.9076 70.8541 97.8469 70.7908 97.803 70.7161C97.7124 70.5497 97.6528 70.3683 97.627 70.1805C97.5816 69.8712 97.5592 69.559 97.5599 69.2463C97.5546 68.6384 97.5889 68.0417 97.6307 67.4461C97.8132 65.0681 98.1339 62.7193 98.4562 60.3703C98.7848 58.0227 99.1375 55.68 99.4943 53.3383C100.209 48.6553 100.942 43.9768 101.617 39.2908C102.281 34.6051 102.931 29.9116 103.284 25.1996C103.366 24.022 103.428 22.8428 103.428 21.667C103.428 21.0793 103.411 20.4923 103.36 19.9121C103.328 19.344 103.212 18.7839 103.013 18.2506C102.907 18.0062 102.746 17.8019 102.562 17.7966C102.322 17.8067 102.093 17.9042 101.919 18.0707C101.489 18.4489 101.11 18.882 100.792 19.3587C100.127 20.3276 99.5183 21.3346 98.9703 22.3746C97.8495 24.4512 96.8471 26.5958 95.8721 28.7503C94.9017 30.9078 93.9639 33.0803 93.0588 35.268C91.241 39.6391 89.5062 44.0455 87.806 48.4651C84.4113 57.3068 81.1704 66.2078 77.9778 75.1256Z" fill="#131921" stroke="#131921"/>
</g>
<defs>
<clipPath id="clip0">
<rect width="214" height="94" fill="white"/>
</clipPath>
</defs>
</svg>
