<svg width="34" height="34" viewBox="0 0 34 34" fill="none" xmlns="http://www.w3.org/2000/svg">
<path d="M17 15.3333C19.2101 15.3333 21.3298 16.2113 22.8926 17.7741C24.4554 19.3369 25.3333 21.4565 25.3333 23.6666V33.6666H22V23.6666C22.0001 22.3913 21.5128 21.1641 20.6379 20.2362C19.7629 19.3083 18.5665 18.7498 17.2933 18.675L17 18.6666C15.7247 18.6666 14.4975 19.1539 13.5696 20.0288C12.6417 20.9037 12.0832 22.1002 12.0083 23.3733L12 23.6666V33.6666H8.66668V23.6666C8.66668 21.4565 9.54465 19.3369 11.1075 17.7741C12.6703 16.2113 14.7899 15.3333 17 15.3333ZM6.16668 20.3333C6.63168 20.3333 7.08334 20.3883 7.51668 20.49C7.23172 21.3383 7.06296 22.2213 7.01501 23.115L7.00001 23.6666V23.81C6.80843 23.7414 6.60917 23.6966 6.40668 23.6766L6.16668 23.6666C5.54521 23.6667 4.94603 23.8982 4.48598 24.316C4.02593 24.7338 3.738 25.308 3.67834 25.9266L3.66668 26.1666V33.6666H0.333344V26.1666C0.333344 24.6196 0.947925 23.1358 2.04189 22.0419C3.13585 20.9479 4.61958 20.3333 6.16668 20.3333ZM27.8333 20.3333C29.3804 20.3333 30.8642 20.9479 31.9581 22.0419C33.0521 23.1358 33.6667 24.6196 33.6667 26.1666V33.6666H30.3333V26.1666C30.3333 25.5452 30.1018 24.946 29.684 24.4859C29.2661 24.0259 28.6919 23.738 28.0733 23.6783L27.8333 23.6666C27.5417 23.6666 27.2617 23.7166 27 23.8083V23.6666C27 22.5566 26.82 21.49 26.485 20.4933C26.9167 20.3883 27.3683 20.3333 27.8333 20.3333ZM6.16668 10.3333C7.27175 10.3333 8.33155 10.7723 9.11296 11.5537C9.89436 12.3351 10.3333 13.3949 10.3333 14.5C10.3333 15.605 9.89436 16.6649 9.11296 17.4463C8.33155 18.2277 7.27175 18.6666 6.16668 18.6666C5.06161 18.6666 4.0018 18.2277 3.2204 17.4463C2.439 16.6649 2.00001 15.605 2.00001 14.5C2.00001 13.3949 2.439 12.3351 3.2204 11.5537C4.0018 10.7723 5.06161 10.3333 6.16668 10.3333ZM27.8333 10.3333C28.9384 10.3333 29.9982 10.7723 30.7796 11.5537C31.561 12.3351 32 13.3949 32 14.5C32 15.605 31.561 16.6649 30.7796 17.4463C29.9982 18.2277 28.9384 18.6666 27.8333 18.6666C26.7283 18.6666 25.6685 18.2277 24.8871 17.4463C24.1057 16.6649 23.6667 15.605 23.6667 14.5C23.6667 13.3949 24.1057 12.3351 24.8871 11.5537C25.6685 10.7723 26.7283 10.3333 27.8333 10.3333ZM6.16668 13.6666C5.94566 13.6666 5.7337 13.7544 5.57742 13.9107C5.42114 14.067 5.33334 14.279 5.33334 14.5C5.33334 14.721 5.42114 14.933 5.57742 15.0892C5.7337 15.2455 5.94566 15.3333 6.16668 15.3333C6.38769 15.3333 6.59965 15.2455 6.75593 15.0892C6.91221 14.933 7.00001 14.721 7.00001 14.5C7.00001 14.279 6.91221 14.067 6.75593 13.9107C6.59965 13.7544 6.38769 13.6666 6.16668 13.6666ZM27.8333 13.6666C27.6123 13.6666 27.4004 13.7544 27.2441 13.9107C27.0878 14.067 27 14.279 27 14.5C27 14.721 27.0878 14.933 27.2441 15.0892C27.4004 15.2455 27.6123 15.3333 27.8333 15.3333C28.0544 15.3333 28.2663 15.2455 28.4226 15.0892C28.5789 14.933 28.6667 14.721 28.6667 14.5C28.6667 14.279 28.5789 14.067 28.4226 13.9107C28.2663 13.7544 28.0544 13.6666 27.8333 13.6666ZM17 0.333313C18.7681 0.333313 20.4638 1.03569 21.7141 2.28593C22.9643 3.53618 23.6667 5.23187 23.6667 6.99998C23.6667 8.76809 22.9643 10.4638 21.7141 11.714C20.4638 12.9643 18.7681 13.6666 17 13.6666C15.2319 13.6666 13.5362 12.9643 12.286 11.714C11.0357 10.4638 10.3333 8.76809 10.3333 6.99998C10.3333 5.23187 11.0357 3.53618 12.286 2.28593C13.5362 1.03569 15.2319 0.333313 17 0.333313ZM17 3.66665C16.116 3.66665 15.2681 4.01784 14.643 4.64296C14.0179 5.26808 13.6667 6.11592 13.6667 6.99998C13.6667 7.88404 14.0179 8.73188 14.643 9.357C15.2681 9.98212 16.116 10.3333 17 10.3333C17.8841 10.3333 18.7319 9.98212 19.357 9.357C19.9822 8.73188 20.3333 7.88404 20.3333 6.99998C20.3333 6.11592 19.9822 5.26808 19.357 4.64296C18.7319 4.01784 17.8841 3.66665 17 3.66665Z" fill="white"/>
</svg>
