<svg width="36" height="37" viewBox="0 0 36 37" fill="none" xmlns="http://www.w3.org/2000/svg">
<path d="M5.66664 8.69001L0.261642 3.28668L2.61998 0.928345L8.02331 6.33334H33.4266C33.6864 6.33333 33.9426 6.39403 34.1748 6.51062C34.4069 6.62721 34.6086 6.79645 34.7637 7.00484C34.9188 7.21322 35.0231 7.45498 35.0681 7.71082C35.1132 7.96666 35.0979 8.2295 35.0233 8.47835L31.0233 21.8117C30.9204 22.1552 30.7095 22.4563 30.4218 22.6704C30.1342 22.8844 29.7852 23 29.4266 23H8.99998V26.3333H27.3333V29.6667H7.33331C6.89128 29.6667 6.46736 29.4911 6.1548 29.1785C5.84224 28.866 5.66664 28.442 5.66664 28V8.69001ZM8.99998 9.66668V19.6667H28.1866L31.1866 9.66668H8.99998ZM8.16664 36.3333C7.5036 36.3333 6.86772 36.07 6.39888 35.6011C5.93003 35.1323 5.66664 34.4964 5.66664 33.8333C5.66664 33.1703 5.93003 32.5344 6.39888 32.0656C6.86772 31.5967 7.5036 31.3333 8.16664 31.3333C8.82968 31.3333 9.46557 31.5967 9.93441 32.0656C10.4033 32.5344 10.6666 33.1703 10.6666 33.8333C10.6666 34.4964 10.4033 35.1323 9.93441 35.6011C9.46557 36.07 8.82968 36.3333 8.16664 36.3333ZM28.1666 36.3333C27.5036 36.3333 26.8677 36.07 26.3989 35.6011C25.93 35.1323 25.6666 34.4964 25.6666 33.8333C25.6666 33.1703 25.93 32.5344 26.3989 32.0656C26.8677 31.5967 27.5036 31.3333 28.1666 31.3333C28.8297 31.3333 29.4656 31.5967 29.9344 32.0656C30.4032 32.5344 30.6666 33.1703 30.6666 33.8333C30.6666 34.4964 30.4032 35.1323 29.9344 35.6011C29.4656 36.07 28.8297 36.3333 28.1666 36.3333Z" fill="white"/>
</svg>
