<svg width="44" height="44" viewBox="0 0 44 44" fill="none" xmlns="http://www.w3.org/2000/svg">
<circle cx="22" cy="22" r="21" stroke="#FF9A01" stroke-width="2"/>
<g clip-path="url(#clip0)">
<path d="M15 19C15.2652 19 15.5196 19.1054 15.7071 19.2929C15.8946 19.4804 16 19.7348 16 20C17.5711 19.9977 19.097 20.5263 20.33 21.5H22.5C23.833 21.5 25.03 22.08 25.854 23H29C29.9453 22.9997 30.8712 23.2674 31.6705 23.772C32.4698 24.2767 33.1097 24.9975 33.516 25.851C31.151 28.972 27.322 31 23 31C20.21 31 17.85 30.397 15.94 29.342C15.87 29.5351 15.7422 29.7018 15.574 29.8196C15.4058 29.9373 15.2053 30.0003 15 30H12C11.7348 30 11.4804 29.8946 11.2929 29.7071C11.1054 29.5196 11 29.2652 11 29V20C11 19.7348 11.1054 19.4804 11.2929 19.2929C11.4804 19.1054 11.7348 19 12 19H15ZM16.001 22L16 27.022L16.045 27.054C17.84 28.314 20.178 29 23 29C26.004 29 28.799 27.844 30.835 25.87L30.968 25.737L30.848 25.637C30.3758 25.2672 29.8034 25.0477 29.205 25.007L29 25H26.889C26.961 25.322 27 25.656 27 26V27H18V25L24.79 24.999L24.756 24.921C24.5644 24.5205 24.2696 24.1783 23.9019 23.9295C23.5343 23.6806 23.107 23.5341 22.664 23.505L22.5 23.5H19.57C19.1053 23.0247 18.5503 22.6472 17.9375 22.3896C17.3248 22.132 16.6667 21.9995 16.002 22H16.001ZM14 21H13V28H14V21ZM28 15C28.7956 15 29.5587 15.3161 30.1213 15.8787C30.6839 16.4413 31 17.2043 31 18C31 18.7956 30.6839 19.5587 30.1213 20.1213C29.5587 20.6839 28.7956 21 28 21C27.2044 21 26.4413 20.6839 25.8787 20.1213C25.3161 19.5587 25 18.7956 25 18C25 17.2043 25.3161 16.4413 25.8787 15.8787C26.4413 15.3161 27.2044 15 28 15ZM28 17C27.7348 17 27.4804 17.1054 27.2929 17.2929C27.1054 17.4804 27 17.7348 27 18C27 18.2652 27.1054 18.5196 27.2929 18.7071C27.4804 18.8946 27.7348 19 28 19C28.2652 19 28.5196 18.8946 28.7071 18.7071C28.8946 18.5196 29 18.2652 29 18C29 17.7348 28.8946 17.4804 28.7071 17.2929C28.5196 17.1054 28.2652 17 28 17ZM21 12C21.7956 12 22.5587 12.3161 23.1213 12.8787C23.6839 13.4413 24 14.2044 24 15C24 15.7956 23.6839 16.5587 23.1213 17.1213C22.5587 17.6839 21.7956 18 21 18C20.2044 18 19.4413 17.6839 18.8787 17.1213C18.3161 16.5587 18 15.7956 18 15C18 14.2044 18.3161 13.4413 18.8787 12.8787C19.4413 12.3161 20.2044 12 21 12ZM21 14C20.7348 14 20.4804 14.1054 20.2929 14.2929C20.1054 14.4804 20 14.7348 20 15C20 15.2652 20.1054 15.5196 20.2929 15.7071C20.4804 15.8946 20.7348 16 21 16C21.2652 16 21.5196 15.8946 21.7071 15.7071C21.8946 15.5196 22 15.2652 22 15C22 14.7348 21.8946 14.4804 21.7071 14.2929C21.5196 14.1054 21.2652 14 21 14Z" fill="#FF9A01" stroke="#232F3E"/>
</g>
<defs>
<clipPath id="clip0">
<rect width="24" height="24" fill="white" transform="translate(10 10)"/>
</clipPath>
</defs>
</svg>
