<svg width="36" height="36" viewBox="0 0 36 36" fill="none" xmlns="http://www.w3.org/2000/svg">
<circle cx="18" cy="18" r="18" fill="white"/>
<path d="M7.69336 22H6V15.4727L3.97852 16.0996V14.7227L7.51172 13.457H7.69336V22ZM16.2129 18.4727C16.2129 19.6523 15.9688 20.5547 15.4805 21.1797C14.9922 21.8047 14.2773 22.1172 13.3359 22.1172C12.4062 22.1172 11.6953 21.8105 11.2031 21.1973C10.7109 20.584 10.459 19.7051 10.4473 18.5605V16.9902C10.4473 15.7988 10.6934 14.8945 11.1855 14.2773C11.6816 13.6602 12.3945 13.3516 13.3242 13.3516C14.2539 13.3516 14.9648 13.6582 15.457 14.2715C15.9492 14.8809 16.2012 15.7578 16.2129 16.9023V18.4727ZM14.5195 16.75C14.5195 16.043 14.4219 15.5293 14.2266 15.209C14.0352 14.8848 13.7344 14.7227 13.3242 14.7227C12.9258 14.7227 12.6309 14.877 12.4395 15.1855C12.252 15.4902 12.1523 15.9688 12.1406 16.6211V18.6953C12.1406 19.3906 12.2344 19.9082 12.4219 20.248C12.6133 20.584 12.918 20.752 13.3359 20.752C13.75 20.752 14.0488 20.5898 14.2324 20.2656C14.416 19.9414 14.5117 19.4453 14.5195 18.7773V16.75ZM23.1035 18.4727C23.1035 19.6523 22.8594 20.5547 22.3711 21.1797C21.8828 21.8047 21.168 22.1172 20.2266 22.1172C19.2969 22.1172 18.5859 21.8105 18.0938 21.1973C17.6016 20.584 17.3496 19.7051 17.3379 18.5605V16.9902C17.3379 15.7988 17.584 14.8945 18.0762 14.2773C18.5723 13.6602 19.2852 13.3516 20.2148 13.3516C21.1445 13.3516 21.8555 13.6582 22.3477 14.2715C22.8398 14.8809 23.0918 15.7578 23.1035 16.9023V18.4727ZM21.4102 16.75C21.4102 16.043 21.3125 15.5293 21.1172 15.209C20.9258 14.8848 20.625 14.7227 20.2148 14.7227C19.8164 14.7227 19.5215 14.877 19.3301 15.1855C19.1426 15.4902 19.043 15.9688 19.0312 16.6211V18.6953C19.0312 19.3906 19.125 19.9082 19.3125 20.248C19.5039 20.584 19.8086 20.752 20.2266 20.752C20.6406 20.752 20.9395 20.5898 21.123 20.2656C21.3066 19.9414 21.4023 19.4453 21.4102 18.7773V16.75ZM24.2285 15.1094C24.2285 14.5859 24.3984 14.1621 24.7383 13.8379C25.0781 13.5098 25.5234 13.3457 26.0742 13.3457C26.6328 13.3457 27.082 13.5078 27.4219 13.832C27.7617 14.1523 27.9316 14.5879 27.9316 15.1387V15.5605C27.9316 16.0879 27.7617 16.5117 27.4219 16.832C27.082 17.1523 26.6367 17.3125 26.0859 17.3125C25.5312 17.3125 25.082 17.1523 24.7383 16.832C24.3984 16.5078 24.2285 16.0723 24.2285 15.5254V15.1094ZM25.3535 15.5605C25.3535 15.7949 25.4199 15.9844 25.5527 16.1289C25.6895 16.2695 25.8672 16.3398 26.0859 16.3398C26.3047 16.3398 26.4785 16.2676 26.6074 16.123C26.7363 15.9785 26.8008 15.7852 26.8008 15.543V15.1094C26.8008 14.875 26.7363 14.6855 26.6074 14.541C26.4785 14.3965 26.3008 14.3242 26.0742 14.3242C25.8594 14.3242 25.6855 14.3965 25.5527 14.541C25.4199 14.6816 25.3535 14.8789 25.3535 15.1328V15.5605ZM28.3066 19.9082C28.3066 19.3809 28.4785 18.957 28.8223 18.6367C29.166 18.3125 29.6113 18.1504 30.1582 18.1504C30.7129 18.1504 31.1602 18.3105 31.5 18.6309C31.8438 18.9473 32.0156 19.3848 32.0156 19.9434V20.3652C32.0156 20.8887 31.8477 21.3125 31.5117 21.6367C31.1758 21.957 30.7285 22.1172 30.1699 22.1172C29.6074 22.1172 29.1562 21.9551 28.8164 21.6309C28.4766 21.3066 28.3066 20.877 28.3066 20.3418V19.9082ZM29.4316 20.3652C29.4316 20.5801 29.502 20.7637 29.6426 20.916C29.7832 21.0684 29.959 21.1445 30.1699 21.1445C30.6465 21.1445 30.8848 20.8809 30.8848 20.3535V19.9082C30.8848 19.6738 30.8184 19.4863 30.6855 19.3457C30.5527 19.2012 30.377 19.1289 30.1582 19.1289C29.9395 19.1289 29.7637 19.2012 29.6309 19.3457C29.498 19.4863 29.4316 19.6797 29.4316 19.9258V20.3652ZM26.4199 21.3613L25.5938 20.916L29.7598 14.248L30.5859 14.6934L26.4199 21.3613Z" fill="#2DCB83"/>
<path d="M18 7.08341L15.5508 8.57925L16.2166 5.78758L14.0375 3.92091L16.8979 3.69175L18 1.04175L19.1021 3.69175L21.9629 3.92091L19.7833 5.78758L20.4491 8.57925L18 7.08341Z" fill="#2DCB83"/>
<path d="M8.99996 8.66658L7.04062 9.86325L7.57329 7.62992L5.82996 6.13658L8.11829 5.95325L8.99996 3.83325L9.88162 5.95325L12.1703 6.13658L10.4266 7.62992L10.9593 9.86325L8.99996 8.66658Z" fill="#2DCB83"/>
<path d="M27 8.66658L25.0406 9.86325L25.5733 7.62992L23.83 6.13658L26.1183 5.95325L27 3.83325L27.8816 5.95325L30.1703 6.13658L28.4266 7.62992L28.9593 9.86325L27 8.66658Z" fill="#2DCB83"/>
<g clip-path="url(#clip0)">
<path d="M18 28.9166L20.4492 27.4208L19.7834 30.2124L21.9625 32.0791L19.1021 32.3083L18 34.9583L16.8979 32.3083L14.0371 32.0791L16.2167 30.2124L15.5509 27.4208L18 28.9166Z" fill="#2DCB83"/>
</g>
<g clip-path="url(#clip1)">
<path d="M27 27.3334L28.9594 26.1367L28.4267 28.3701L30.17 29.8634L27.8817 30.0467L27 32.1667L26.1184 30.0467L23.8297 29.8634L25.5734 28.3701L25.0407 26.1367L27 27.3334Z" fill="#2DCB83"/>
</g>
<g clip-path="url(#clip2)">
<path d="M9.00004 27.3334L10.9594 26.1367L10.4267 28.3701L12.17 29.8634L9.88171 30.0467L9.00004 32.1667L8.11838 30.0467L5.82971 29.8634L7.57338 28.3701L7.04071 26.1367L9.00004 27.3334Z" fill="#2DCB83"/>
</g>
<defs>
<clipPath id="clip0">
<rect width="10" height="10" fill="white" transform="translate(23 36) rotate(180)"/>
</clipPath>
<clipPath id="clip1">
<rect width="8" height="8" fill="white" transform="translate(31 33) rotate(180)"/>
</clipPath>
<clipPath id="clip2">
<rect width="8" height="8" fill="white" transform="translate(13 33) rotate(180)"/>
</clipPath>
</defs>
</svg>
