<svg width="123" height="19" viewBox="0 0 123 19" fill="none" xmlns="http://www.w3.org/2000/svg">
<path d="M26.2839 16.2709C26.0844 16.3277 25.8533 16.38 25.593 16.4323C25.3327 16.4846 25.0603 16.5278 24.7757 16.5664C24.4911 16.6028 24.1992 16.6346 23.9048 16.6573C23.6105 16.6801 23.3259 16.6914 23.0559 16.6914C22.4064 16.6914 21.825 16.6028 21.3141 16.4255C20.8033 16.2481 20.3727 15.9935 20.0224 15.6616C19.6722 15.3297 19.4046 14.9273 19.2197 14.4545C19.0348 13.9816 18.9424 13.452 18.9424 12.8632C18.9424 12.2653 19.0227 11.7242 19.1832 11.2446C19.3438 10.7626 19.5724 10.3534 19.8741 10.017C20.1757 9.68053 20.543 9.42364 20.976 9.24632C21.4114 9.069 21.9077 8.98034 22.4696 8.98034C22.7785 8.98034 23.0583 9.00762 23.3015 9.06446C23.5472 9.12129 23.7954 9.20086 24.0435 9.30316V5.96365L26.279 5.6272V16.2709H26.2839ZM21.2266 12.7654C21.2266 13.411 21.3822 13.9294 21.6912 14.3226C22.0001 14.7159 22.4623 14.9114 23.0729 14.9114C23.2724 14.9114 23.4572 14.9046 23.6275 14.891C23.7978 14.8773 23.9364 14.8614 24.0483 14.841V11.04C23.9073 10.9559 23.7248 10.8854 23.501 10.8308C23.2748 10.774 23.0486 10.7467 22.8175 10.7467C21.7569 10.7467 21.2266 11.4196 21.2266 12.7654Z" fill="#5c667e"/>
<path d="M31.2195 8.93677C31.8787 8.93677 32.4309 9.00724 32.8712 9.14819C33.3115 9.28913 33.6642 9.48918 33.9294 9.75062C34.1945 10.012 34.3818 10.3303 34.4913 10.7054C34.6007 11.0805 34.6567 11.4965 34.6567 11.9535V16.3001C34.3356 16.366 33.8904 16.4433 33.3212 16.5319C32.752 16.6206 32.0611 16.6661 31.2511 16.6661C30.7403 16.6661 30.2781 16.6229 29.8621 16.5387C29.4461 16.4546 29.0885 16.316 28.7893 16.125C28.4901 15.934 28.259 15.684 28.0985 15.3748C27.9379 15.0656 27.8577 14.6883 27.8577 14.2381C27.8577 13.8085 27.9501 13.4425 28.135 13.1447C28.3199 12.8446 28.568 12.6082 28.8769 12.4286C29.1858 12.2513 29.541 12.1217 29.9424 12.0421C30.3413 11.9626 30.7573 11.9239 31.1879 11.9239C31.4773 11.9239 31.7352 11.9353 31.9614 11.958C32.1876 11.9807 32.3701 12.0126 32.5087 12.0489V11.8534C32.5087 11.4988 32.3944 11.2124 32.1633 10.9987C31.9322 10.7827 31.5333 10.6759 30.9616 10.6759C30.5821 10.6759 30.2051 10.7009 29.8353 10.7531C29.4656 10.8054 29.1445 10.8782 28.8745 10.9714L28.5899 9.28913C28.7188 9.25276 28.8818 9.21184 29.0764 9.17092C29.271 9.12773 29.4851 9.09135 29.7137 9.05953C29.9448 9.0277 30.1856 8.99815 30.4411 8.97541C30.7013 8.94813 30.9592 8.93677 31.2195 8.93677ZM31.3995 15.0497C31.6184 15.0497 31.8301 15.0452 32.0295 15.0361C32.229 15.027 32.3895 15.0134 32.5087 14.9929V13.4084C32.4187 13.3902 32.2825 13.372 32.1025 13.3516C31.9225 13.3334 31.7571 13.3243 31.6063 13.3243C31.3971 13.3243 31.1976 13.3356 31.0127 13.3584C30.8278 13.3811 30.6649 13.4266 30.5262 13.4925C30.3851 13.5584 30.2756 13.6471 30.1954 13.7585C30.1151 13.8699 30.0762 14.0108 30.0762 14.179C30.0762 14.5064 30.1929 14.7337 30.4289 14.8588C30.6673 14.9883 30.9908 15.0497 31.3995 15.0497Z" fill="#5c667e"/>
<path d="M36.6077 7.29519L38.8432 6.95874V9.13204H41.5288V10.8711H38.8432V13.465C38.8432 13.9037 38.9259 14.2561 39.0913 14.5175C39.2567 14.779 39.59 14.9108 40.0887 14.9108C40.3295 14.9108 40.5752 14.8904 40.8306 14.8472C41.086 14.8062 41.3171 14.7471 41.5288 14.6721L41.845 16.2998C41.575 16.4021 41.2758 16.4908 40.9449 16.5658C40.6141 16.6408 40.2103 16.6772 39.7286 16.6772C39.1181 16.6772 38.6121 16.5999 38.2132 16.4453C37.8118 16.2907 37.4931 16.077 37.2523 15.7997C37.0115 15.5246 36.8436 15.1904 36.7487 14.7971C36.6539 14.4039 36.6052 13.9697 36.6052 13.4923L36.6077 7.29519Z" fill="#5c667e"/>
<path d="M45.8805 8.93677C46.5397 8.93677 47.0919 9.00724 47.5322 9.14819C47.9725 9.28913 48.3252 9.48918 48.5904 9.75062C48.8555 10.012 49.0428 10.3303 49.1523 10.7054C49.2618 11.0805 49.3177 11.4965 49.3177 11.9535V16.3001C48.9966 16.366 48.5515 16.4433 47.9822 16.5319C47.413 16.6206 46.7222 16.6661 45.9121 16.6661C45.4013 16.6661 44.9391 16.6229 44.5231 16.5387C44.1071 16.4546 43.7496 16.316 43.4504 16.125C43.1511 15.934 42.9201 15.684 42.7595 15.3748C42.599 15.0656 42.5187 14.6883 42.5187 14.2381C42.5187 13.8085 42.6111 13.4425 42.796 13.1447C42.9809 12.8446 43.229 12.6082 43.5379 12.4286C43.8469 12.2513 44.202 12.1217 44.6034 12.0421C45.0023 11.9626 45.4183 11.9239 45.8489 11.9239C46.1383 11.9239 46.3962 11.9353 46.6224 11.958C46.8487 11.9807 47.0311 12.0126 47.1698 12.0489V11.8534C47.1698 11.4988 47.0554 11.2124 46.8243 10.9987C46.5932 10.7827 46.1943 10.6759 45.6226 10.6759C45.2432 10.6759 44.8661 10.7009 44.4964 10.7531C44.1266 10.8054 43.8055 10.8782 43.5355 10.9714L43.2509 9.28913C43.3798 9.25276 43.5428 9.21184 43.7374 9.17092C43.932 9.12773 44.1461 9.09135 44.3747 9.05953C44.6058 9.0277 44.8467 8.99815 45.1021 8.97541C45.3624 8.94813 45.6202 8.93677 45.8805 8.93677ZM46.0605 15.0497C46.2794 15.0497 46.4911 15.0452 46.6905 15.0361C46.89 15.027 47.0506 15.0134 47.1698 14.9929V13.4084C47.0798 13.3902 46.9435 13.372 46.7635 13.3516C46.5835 13.3334 46.4181 13.3243 46.2673 13.3243C46.0581 13.3243 45.8586 13.3356 45.6737 13.3584C45.4889 13.3811 45.3259 13.4266 45.1872 13.4925C45.0461 13.5584 44.9367 13.6471 44.8564 13.7585C44.7761 13.8699 44.7372 14.0108 44.7372 14.179C44.7372 14.5064 44.854 14.7337 45.0899 14.8588C45.3283 14.9883 45.6518 15.0497 46.0605 15.0497Z" fill="#5c667e"/>
<path d="M54.436 5.62695C54.8568 5.62695 55.1998 5.6565 55.465 5.71788C55.7301 5.77926 55.9028 5.83155 55.9831 5.87929L55.7885 6.66586C55.679 6.61812 55.5161 6.57038 55.302 6.51809C55.0879 6.46581 54.8155 6.4408 54.4847 6.4408C53.7938 6.4408 53.3024 6.60448 53.0057 6.93184C52.7113 7.2592 52.5629 7.78206 52.5629 8.5027V9.25972H55.6839V10.0304H52.5629V16.5093H51.5875V8.47315C51.5875 7.52972 51.821 6.81817 52.2856 6.34078C52.7478 5.86565 53.4654 5.62695 54.436 5.62695Z" fill="#5c667e"/>
<path d="M59.5833 9.08911C60.0941 9.08911 60.5271 9.15731 60.8822 9.29144C61.2374 9.42784 61.5244 9.61425 61.7458 9.85295C61.9647 10.0916 62.1253 10.3735 62.225 10.7009C62.3248 11.0283 62.3758 11.3829 62.3758 11.7671V16.3387C62.2761 16.366 62.1302 16.3978 61.9404 16.4297C61.7507 16.4615 61.5293 16.4979 61.2812 16.5342C61.0306 16.5706 60.7533 16.6024 60.4493 16.6252C60.1452 16.6479 59.8314 16.6593 59.5103 16.6593C59.0992 16.6593 58.7221 16.6161 58.3767 16.532C58.0313 16.4478 57.7321 16.3137 57.4766 16.1319C57.2212 15.95 57.0218 15.7158 56.8758 15.4317C56.7298 15.1475 56.6593 14.7974 56.6593 14.3859C56.6593 13.9927 56.7396 13.6562 56.9001 13.3766C57.0607 13.097 57.2845 12.8651 57.5764 12.6832C57.8659 12.5014 58.2113 12.3672 58.6127 12.2831C59.0116 12.199 59.447 12.1581 59.919 12.1581C60.06 12.1581 60.206 12.1649 60.3617 12.1786C60.5174 12.1922 60.6657 12.2104 60.8117 12.2354C60.9577 12.2581 61.0817 12.2831 61.1863 12.3059C61.2909 12.3286 61.3639 12.3513 61.4028 12.3695V11.9217C61.4028 11.6693 61.3834 11.4238 61.342 11.1851C61.3031 10.9464 61.2155 10.7327 61.0793 10.5395C60.9431 10.3485 60.7533 10.1939 60.5101 10.0757C60.2644 9.95979 59.9433 9.90069 59.5419 9.90069C58.9727 9.90069 58.547 9.93933 58.2672 10.0121C57.9875 10.0871 57.7807 10.1485 57.6518 10.1939L57.5156 9.39374C57.6859 9.31872 57.9486 9.24824 58.3037 9.18459C58.654 9.12321 59.0821 9.08911 59.5833 9.08911ZM59.6733 15.85C60.0527 15.85 60.386 15.8386 60.6706 15.8159C60.9552 15.7931 61.1985 15.7613 61.398 15.7249V13.172C61.2885 13.1243 61.1133 13.0765 60.8725 13.0242C60.6317 12.9719 60.3033 12.9469 59.8825 12.9469C59.6416 12.9469 59.3911 12.9629 59.1332 12.997C58.8729 13.0288 58.6321 13.0992 58.4132 13.2061C58.1918 13.3129 58.0118 13.4607 57.8732 13.6471C57.7321 13.8335 57.664 14.0813 57.664 14.3905C57.664 14.661 57.7102 14.8906 57.8075 15.077C57.9023 15.2635 58.0386 15.4135 58.2137 15.5249C58.3889 15.6363 58.5981 15.7181 58.8438 15.7704C59.0846 15.825 59.3619 15.85 59.6733 15.85Z" fill="#5c667e"/>
<path d="M64.8644 9.51218C65.1539 9.43716 65.5455 9.35305 66.0344 9.25984C66.5234 9.16664 67.1242 9.1189 67.8345 9.1189C68.4257 9.1189 68.917 9.19846 69.3135 9.3576C69.7076 9.51673 70.0238 9.74406 70.2598 10.0373C70.4958 10.3328 70.6636 10.6852 70.7634 11.0967C70.8631 11.5082 70.9142 11.9605 70.9142 12.4561V16.5095H69.9387V12.7517C69.9387 12.2379 69.9022 11.8037 69.8268 11.4468C69.7514 11.0921 69.6273 10.8012 69.4522 10.5761C69.2771 10.351 69.046 10.1896 68.7613 10.0919C68.4767 9.99413 68.1191 9.94411 67.6886 9.94411C67.2288 9.94411 66.8299 9.96684 66.4966 10.0146C66.1609 10.0623 65.9444 10.1032 65.8447 10.1396V16.5072H64.8692V9.51218H64.8644Z" fill="#5c667e"/>
<path d="M75.7598 9.08911C76.2706 9.08911 76.7036 9.15731 77.0588 9.29144C77.4139 9.42784 77.701 9.61425 77.9223 9.85295C78.1437 10.0916 78.3018 10.3735 78.4015 10.7009C78.5013 11.0283 78.5524 11.3829 78.5524 11.7671V16.3387C78.4526 16.366 78.3067 16.3978 78.1169 16.4297C77.9272 16.4615 77.7058 16.4979 77.4577 16.5342C77.2072 16.5706 76.9298 16.6024 76.6258 16.6252C76.3217 16.6479 76.0079 16.6593 75.6868 16.6593C75.2757 16.6593 74.8986 16.6161 74.5532 16.532C74.2078 16.4478 73.9086 16.3137 73.6532 16.1319C73.3977 15.95 73.1983 15.7158 73.0523 15.4317C72.9064 15.1475 72.8358 14.7974 72.8358 14.3859C72.8358 13.9927 72.9161 13.6562 73.0766 13.3766C73.2372 13.097 73.461 12.8651 73.7529 12.6832C74.0424 12.5014 74.3878 12.3672 74.7892 12.2831C75.1881 12.199 75.6236 12.1581 76.0955 12.1581C76.2366 12.1581 76.3825 12.1649 76.5382 12.1786C76.6939 12.1922 76.8423 12.2104 76.9882 12.2354C77.1342 12.2581 77.2582 12.2831 77.3628 12.3059C77.4674 12.3286 77.5404 12.3513 77.5793 12.3695V11.9217C77.5793 11.6693 77.5599 11.4238 77.5185 11.1851C77.4772 10.9464 77.392 10.7327 77.2558 10.5395C77.122 10.3485 76.9298 10.1939 76.6866 10.0757C76.4409 9.95979 76.1198 9.90069 75.7184 9.90069C75.1492 9.90069 74.7235 9.93933 74.4438 10.0121C74.164 10.0871 73.9572 10.1485 73.8283 10.1939L73.6921 9.39374C73.8624 9.31872 74.1251 9.24824 74.4802 9.18459C74.8305 9.12321 75.2587 9.08911 75.7598 9.08911ZM75.8498 15.85C76.2293 15.85 76.5625 15.8386 76.8471 15.8159C77.1317 15.7931 77.375 15.7613 77.5745 15.7249V13.172C77.465 13.1243 77.2899 13.0765 77.049 13.0242C76.8082 12.9719 76.4798 12.9469 76.059 12.9469C75.8182 12.9469 75.5676 12.9629 75.3097 12.997C75.0495 13.0288 74.8086 13.0992 74.5897 13.2061C74.3683 13.3129 74.1883 13.4607 74.0497 13.6471C73.9086 13.8335 73.8405 14.0813 73.8405 14.3905C73.8405 14.661 73.8867 14.8906 73.984 15.077C74.0789 15.2635 74.2151 15.4135 74.3902 15.5249C74.5654 15.6363 74.7746 15.7181 75.0203 15.7704C75.2611 15.825 75.5384 15.85 75.8498 15.85Z" fill="#5c667e"/>
<path d="M81.9557 9.25934H85.0475V10.03H81.9557V13.8855C81.9557 14.297 81.9922 14.6312 82.0676 14.8881C82.143 15.145 82.25 15.3427 82.3911 15.4837C82.5322 15.6246 82.7 15.7178 82.9019 15.7633C83.1014 15.8111 83.3228 15.8338 83.5612 15.8338C83.9723 15.8338 84.3007 15.7883 84.5512 15.6997C84.8018 15.611 84.9964 15.5292 85.1375 15.4541L85.3783 16.2112C85.2372 16.2953 84.994 16.3907 84.6437 16.4976C84.2934 16.6044 83.9139 16.659 83.5028 16.659C83.0236 16.659 82.6198 16.5999 82.2938 16.484C81.9678 16.368 81.7076 16.1907 81.513 15.952C81.3184 15.7133 81.1797 15.4178 81.0994 15.0609C81.0191 14.7062 80.9802 14.2857 80.9802 13.7992V7.12697L81.9557 6.95874V9.25934Z" fill="#5c667e"/>
<path d="M88.0492 7.07054C88.0492 7.28651 87.9787 7.45701 87.84 7.58204C87.6989 7.70935 87.5286 7.77073 87.3292 7.77073C87.1297 7.77073 86.9594 7.70707 86.8183 7.58204C86.6772 7.45701 86.6091 7.28651 86.6091 7.07054C86.6091 6.85458 86.6797 6.68408 86.8183 6.55905C86.9594 6.43174 87.1273 6.37036 87.3292 6.37036C87.5286 6.37036 87.6989 6.43401 87.84 6.55905C87.9787 6.68408 88.0492 6.85685 88.0492 7.07054ZM87.823 16.5094H86.8475V9.25975H87.823V16.5094Z" fill="#5c667e"/>
<path d="M93.6173 16.6639C93.0164 16.6639 92.4861 16.5752 92.0264 16.3979C91.5666 16.2206 91.1847 15.966 90.8782 15.6341C90.5741 15.3022 90.3406 14.9044 90.18 14.4429C90.0195 13.9791 89.9392 13.4676 89.9392 12.9084C89.9392 12.3378 90.0219 11.8195 90.1873 11.3512C90.3528 10.8829 90.5911 10.4805 90.9001 10.144C91.209 9.80757 91.5861 9.54841 92.0264 9.36655C92.4667 9.18468 92.9629 9.09375 93.5127 9.09375C93.9335 9.09375 94.3251 9.12558 94.69 9.1915C95.0549 9.25743 95.3371 9.34154 95.539 9.44384L95.2836 10.2281C95.0841 10.1349 94.8579 10.0599 94.6073 10.0031C94.3568 9.94624 94.0211 9.91896 93.6027 9.91896C92.7415 9.91896 92.0896 10.1781 91.6444 10.6964C91.1993 11.2148 90.9755 11.9513 90.9755 12.9061C90.9755 13.3358 91.0266 13.7313 91.1263 14.0905C91.226 14.4497 91.389 14.7589 91.6128 15.0157C91.8391 15.2726 92.1285 15.475 92.4837 15.6182C92.8388 15.7637 93.2718 15.8364 93.7827 15.8364C94.2035 15.8364 94.5562 15.7909 94.8409 15.7023C95.1255 15.6136 95.3347 15.5363 95.4636 15.4704L95.6728 16.257C95.4928 16.3502 95.2106 16.4411 94.8238 16.5298C94.4395 16.6184 94.0357 16.6639 93.6173 16.6639Z" fill="#5c667e"/>
<path d="M98.8983 15.8637C99.4578 15.8637 99.92 15.7773 100.287 15.6045C100.652 15.4318 100.835 15.1408 100.835 14.727C100.835 14.5315 100.803 14.3633 100.737 14.2223C100.672 14.0814 100.565 13.9564 100.414 13.8427C100.263 13.7313 100.066 13.6222 99.8203 13.5199C99.5746 13.4176 99.2729 13.2948 98.9129 13.1562C98.6234 13.0448 98.3486 12.9288 98.0883 12.8129C97.828 12.6969 97.5969 12.5605 97.3974 12.406C97.198 12.2514 97.0374 12.0672 96.9182 11.8513C96.799 11.6353 96.7382 11.3739 96.7382 11.0647C96.7382 10.4759 96.9766 9.99852 97.4509 9.63479C97.9253 9.27105 98.5797 9.08691 99.4092 9.08691C99.9395 9.08691 100.377 9.13011 100.723 9.21422C101.068 9.29833 101.311 9.37335 101.45 9.43928L101.224 10.2531C101.105 10.1963 100.9 10.1213 100.616 10.0281C100.331 9.93486 99.9127 9.88712 99.3629 9.88712C99.1416 9.88712 98.9348 9.90758 98.7402 9.95078C98.5456 9.99397 98.3729 10.0576 98.2221 10.1486C98.0713 10.2372 97.9521 10.3509 97.862 10.485C97.772 10.6191 97.7283 10.7874 97.7283 10.9829C97.7283 11.1806 97.7672 11.3489 97.8475 11.4898C97.9277 11.6308 98.0445 11.7558 98.2002 11.8626C98.3559 11.9695 98.5456 12.0718 98.7694 12.165C98.9932 12.2582 99.251 12.3605 99.543 12.4719C99.8422 12.5833 100.132 12.6969 100.407 12.8129C100.681 12.9288 100.925 13.0698 101.134 13.2335C101.343 13.3971 101.513 13.5926 101.645 13.8222C101.774 14.0518 101.839 14.3383 101.839 14.6838C101.839 15.3385 101.577 15.8341 101.051 16.1706C100.526 16.507 99.8081 16.6753 98.8983 16.6753C98.2172 16.6753 97.6966 16.6207 97.3366 16.5139C96.9766 16.407 96.7358 16.3252 96.6166 16.2683L96.872 15.4408C96.9012 15.459 96.9669 15.4909 97.0666 15.5318C97.1663 15.5727 97.3026 15.6204 97.4728 15.6727C97.6431 15.725 97.845 15.7682 98.081 15.8069C98.3169 15.8455 98.5894 15.8637 98.8983 15.8637Z" fill="#5c667e"/>
<path d="M105.111 15.9067C105.111 16.1227 105.038 16.3045 104.895 16.4546C104.749 16.6046 104.547 16.6796 104.287 16.6796C104.026 16.6796 103.824 16.6046 103.678 16.4546C103.532 16.3045 103.462 16.1227 103.462 15.9067C103.462 15.6908 103.535 15.5089 103.678 15.3588C103.824 15.2088 104.026 15.1338 104.287 15.1338C104.547 15.1338 104.749 15.2088 104.895 15.3588C105.038 15.5089 105.111 15.6908 105.111 15.9067Z" fill="#5c667e"/>
<path d="M107.422 9.51218C107.712 9.43716 108.103 9.35305 108.592 9.25984C109.081 9.16664 109.682 9.1189 110.392 9.1189C110.983 9.1189 111.475 9.19846 111.871 9.3576C112.265 9.51673 112.582 9.74406 112.818 10.0373C113.054 10.3328 113.221 10.6852 113.321 11.0967C113.421 11.5082 113.472 11.9605 113.472 12.4561V16.5095H112.496V12.7517C112.496 12.2379 112.46 11.8037 112.385 11.4468C112.309 11.0921 112.185 10.8012 112.01 10.5761C111.835 10.351 111.604 10.1896 111.319 10.0919C111.034 9.99413 110.677 9.94411 110.246 9.94411C109.787 9.94411 109.388 9.96684 109.054 10.0146C108.719 10.0623 108.502 10.1032 108.402 10.1396V16.5072H107.427V9.51218H107.422Z" fill="#5c667e"/>
<path d="M117.926 16.6366C117.595 16.6276 117.308 16.5866 117.062 16.5184C116.817 16.448 116.612 16.3411 116.447 16.1956C116.282 16.0501 116.158 15.8637 116.072 15.6341C115.987 15.4045 115.946 15.1181 115.946 14.7725V5.79518L116.921 5.62695V14.743C116.921 14.968 116.943 15.1476 116.99 15.284C117.036 15.4204 117.101 15.5273 117.191 15.6068C117.281 15.6864 117.398 15.7455 117.544 15.7819C117.69 15.8205 117.863 15.8524 118.062 15.8796L117.926 16.6366Z" fill="#5c667e"/>
<path d="M122.502 14.9316C122.502 15.1931 122.455 15.4249 122.365 15.6273C122.275 15.8296 122.154 16.0024 122.003 16.1433C121.852 16.2842 121.677 16.3911 121.478 16.4661C121.278 16.5411 121.069 16.5775 120.852 16.5775C120.636 16.5775 120.427 16.5411 120.227 16.4661C120.028 16.3911 119.853 16.2842 119.702 16.1433C119.551 16.0024 119.429 15.8296 119.339 15.6273C119.249 15.4249 119.203 15.1931 119.203 14.9316C119.203 14.6747 119.249 14.4429 119.339 14.2383C119.429 14.0337 119.551 13.8609 119.702 13.7222C119.853 13.5835 120.028 13.4767 120.227 13.4017C120.427 13.3267 120.636 13.2903 120.852 13.2903C121.069 13.2903 121.278 13.3267 121.478 13.4017C121.677 13.4767 121.852 13.5835 122.003 13.7222C122.154 13.8609 122.275 14.0337 122.365 14.2383C122.455 14.4429 122.502 14.6747 122.502 14.9316ZM122.215 14.9316C122.215 14.7225 122.181 14.5315 122.112 14.3587C122.044 14.186 121.95 14.0382 121.83 13.9154C121.711 13.7927 121.568 13.6972 121.4 13.6313C121.232 13.5654 121.049 13.5313 120.852 13.5313C120.655 13.5313 120.473 13.5654 120.305 13.6313C120.137 13.6972 119.994 13.7927 119.875 13.9154C119.755 14.0382 119.66 14.186 119.592 14.3587C119.524 14.5315 119.49 14.7225 119.49 14.9316C119.49 15.1408 119.524 15.3317 119.592 15.5045C119.66 15.6773 119.755 15.825 119.875 15.9478C119.994 16.0706 120.137 16.166 120.305 16.2342C120.473 16.3024 120.655 16.3365 120.852 16.3365C121.049 16.3365 121.232 16.3024 121.4 16.2342C121.568 16.166 121.711 16.0706 121.83 15.9478C121.95 15.825 122.044 15.6773 122.112 15.5045C122.181 15.3317 122.215 15.1408 122.215 14.9316ZM121.378 15.8319C121.293 15.6886 121.205 15.5545 121.115 15.4249C121.025 15.2954 120.945 15.1931 120.877 15.118C120.855 15.1203 120.833 15.1226 120.813 15.1226C120.794 15.1226 120.777 15.1226 120.76 15.1226H120.453V15.8319H120.186V14.0723C120.261 14.0564 120.344 14.045 120.436 14.0359C120.529 14.0268 120.616 14.0223 120.697 14.0223C120.972 14.0223 121.183 14.07 121.327 14.1632C121.47 14.2564 121.543 14.3997 121.543 14.5906C121.543 14.6997 121.512 14.7975 121.446 14.8839C121.38 14.9703 121.285 15.0339 121.159 15.0771C121.186 15.1044 121.22 15.1453 121.264 15.2021C121.307 15.259 121.354 15.3204 121.402 15.3908C121.451 15.4613 121.499 15.5341 121.548 15.6136C121.597 15.6932 121.638 15.7659 121.675 15.8319H121.378ZM120.453 14.918H120.697C120.777 14.918 120.852 14.9134 120.921 14.9043C120.989 14.8952 121.047 14.8771 121.098 14.8521C121.149 14.827 121.188 14.7929 121.215 14.7498C121.242 14.7066 121.256 14.652 121.256 14.5861C121.256 14.5224 121.242 14.4679 121.21 14.4247C121.178 14.3815 121.139 14.3451 121.088 14.3178C121.037 14.2905 120.981 14.2701 120.916 14.2587C120.85 14.2474 120.782 14.2405 120.711 14.2405C120.663 14.2405 120.616 14.2405 120.573 14.2428C120.529 14.2451 120.49 14.2474 120.453 14.2496V14.918Z" fill="#5c667e"/>
<path d="M17.3247 3.7672V0.239014C16.2057 0.241287 15.1841 0.429973 14.2816 0.777791C14.2767 0.780064 14.2694 0.782337 14.2646 0.784611V11.1373V11.1396C14.6246 9.962 15.6608 9.20498 17.062 9.20044V5.81319C16.0549 5.81547 15.1305 5.98142 14.3035 6.27695C14.52 4.77428 15.6803 3.77175 17.3247 3.7672Z" fill="#5c667e"/>
<path d="M10.1949 6.94316C9.4408 5.96108 8.09073 5.3291 6.39279 5.3291C3.56128 5.3291 0 7.27052 0 11.8831C0 15.6636 2.96773 18.4348 7.17365 18.4348C7.6553 18.4348 8.11749 18.3984 8.56265 18.3302V14.6293C8.15641 14.8088 7.68935 14.9089 7.17365 14.9089C5.33949 14.9089 4.09888 13.6745 4.09888 11.8854C4.09888 10.0963 5.33949 8.86184 7.17365 8.86184C8.75968 8.86184 9.93218 9.85528 10.2168 11.2693V6.97953L10.1949 6.94316Z" fill="#5c667e"/>
<path d="M11.6812 2.6034C10.8298 3.62412 10.2971 4.94492 10.2168 6.4976V6.49987V6.97954V11.2693V11.5466V17.921V17.9233C10.8006 17.6982 11.3333 17.4073 11.8053 17.0526C12.5326 16.5093 13.1456 15.7523 13.5786 14.9043C14.0116 14.0541 14.2646 13.113 14.2646 12.1991V11.1397V11.1374V0.784745V0.782471C13.2259 1.18485 12.3477 1.80319 11.6812 2.6034Z" fill="#5c667e"/>
</svg>
