<svg width="30" height="30" viewBox="0 0 30 30" fill="none" xmlns="http://www.w3.org/2000/svg">
<path d="M27.495 22.7875C27.495 23.6963 26.9888 25.4463 25.8525 26.4075C25.625 26.5825 25.3963 26.4838 25.4963 26.2288C25.8275 25.4188 26.5863 23.545 26.23 23.1138C25.98 22.7863 24.9425 22.81 24.0575 22.8863C23.6525 22.9375 23.2988 22.9613 23.0225 23.0175C22.7688 23.0388 22.7163 22.8138 22.9713 22.6388C23.2988 22.4075 23.6525 22.2325 24.0588 22.1038C25.4963 21.6738 27.1588 21.9325 27.3963 22.2075C27.4413 22.26 27.4963 22.4075 27.4963 22.7863L27.495 22.7875ZM25.0938 24.405C24.7637 24.6571 24.4171 24.8868 24.0563 25.0925C21.4038 26.6863 17.9688 27.5213 14.9838 27.5213C10.18 27.5213 5.88379 25.75 2.62379 22.7863C2.34504 22.5588 2.57629 22.2288 2.90254 22.4075C6.41504 24.4575 10.7625 25.6975 15.2638 25.6975C18.095 25.6975 21.1488 25.1675 24.0575 24.0275C24.26 23.9513 24.4875 23.8475 24.6863 23.775C25.145 23.5688 25.5488 24.0788 25.0938 24.405ZM17.3813 10.6175C17.3813 9.31625 17.4325 8.55 17.0013 7.8925C16.6188 7.35125 15.96 7.02625 15.0413 7.0775C14.0438 7.1325 12.9725 7.78625 12.6988 8.985C12.6463 9.26 12.485 9.53 12.1538 9.58875L9.10879 9.20125C8.89129 9.15125 8.56129 8.985 8.66879 8.55C9.32254 5.11 12.2625 3.91125 15.0413 3.75H15.695C17.22 3.75 19.1788 4.18625 20.4325 5.33C21.9538 6.75 21.7925 8.6575 21.7925 10.73V15.6388C21.7925 17.1113 22.3888 17.7638 22.99 18.5313C23.1525 18.805 23.2075 19.1275 22.9338 19.35C22.3338 19.8938 21.1913 20.8738 20.5375 21.4175C20.32 21.5838 19.9275 21.6013 19.775 21.4738C18.8125 20.6675 18.5775 20.22 17.9813 19.4013C16.9438 20.49 16.0738 21.0913 15.0375 21.4175C14.3088 21.6025 13.5594 21.6932 12.8075 21.6875C10.195 21.6875 8.12504 20.0588 8.12504 16.8375C8.12504 14.2763 9.48754 12.535 11.5 11.7113C13.5125 10.8863 16.4375 10.6238 17.38 10.6188L17.3813 10.6175ZM16.7838 17.1075C17.4338 16.0175 17.38 15.125 17.38 13.1263C16.5663 13.1263 15.7475 13.1825 15.0413 13.3488C13.735 13.7275 12.6988 14.55 12.6988 16.2925C12.6988 17.655 13.4075 18.5825 14.605 18.5825C14.77 18.5825 14.915 18.5625 15.0413 18.5263C15.8788 18.2938 16.4013 17.8738 16.7838 17.1075Z" fill="white"/>
</svg>
