<svg width="42" height="74" viewBox="0 0 42 74" fill="none" xmlns="http://www.w3.org/2000/svg">
<path d="M3.64671 70.0958C4.46215 69.5154 5.30414 68.9946 6.07356 68.3888C10.6318 64.8559 15.1899 61.323 19.2278 57.3224C28.0925 48.6811 34.3081 38.5272 37.2571 26.5635C38.5487 21.2207 39.5254 15.7932 39.1308 10.0099C39.0081 8.10193 38.8005 6.23672 38.5009 4.32051C38.3112 3.27303 37.9252 2.25137 37.6046 1.2211C37.4576 0.735758 37.4752 0.386485 37.9723 0.258023C38.4695 0.129562 38.9755 0.409965 39.2269 0.818495C39.5579 1.4058 39.8235 2.00171 40.0042 2.64033C40.8615 5.80795 41.2535 8.94214 41.3111 12.0257C41.4372 18.9168 40.0734 25.3415 38.1186 31.5285C35.5469 39.7522 31.2536 47.0668 25.672 53.6676C20.7996 59.4498 14.8671 64.3304 8.72408 69.0496C8.411 69.28 8.14393 69.5359 7.92997 69.911C8.19181 69.8766 8.49965 69.8676 8.78094 69.7991C10.3572 69.371 11.9334 68.9429 13.5097 68.5148C14.0068 68.3863 14.5305 68.3175 15.1267 68.3337C15.723 68.3499 16.2556 68.6899 16.3177 69.2179C16.339 69.499 16.033 69.8231 15.6863 69.9003C12.992 70.6962 10.2057 71.4411 7.51141 72.2371C5.85024 72.7079 4.21564 73.2383 2.60049 73.7346C2.3192 73.8031 2.01846 73.9057 1.73718 73.9743C0.820749 74.0948 0.116416 73.525 0.098463 72.7073C0.0771417 72.4262 0.213297 72.1875 0.303445 71.9233C1.40802 68.1823 2.49315 64.4753 3.64373 60.7598C3.78512 60.2996 3.89996 59.7798 4.17937 59.3961C4.36154 59.1829 4.90466 59.0799 5.21961 59.1647C5.51511 59.2835 5.85849 59.743 5.92582 60.0496C6.00026 60.4498 5.85176 60.8163 5.76872 61.1742C5.08308 63.7562 4.35143 66.3127 3.66579 68.8947C3.58275 69.2526 3.49971 69.6105 3.41667 69.9683C3.46268 69.9938 3.5547 70.0448 3.64671 70.0958Z" fill="#FFB341"/>
</svg>
