<svg width="26" height="26" viewBox="0 0 26 26" fill="none" xmlns="http://www.w3.org/2000/svg">
<path d="M9.25002 0.25V2.75H16.75V0.25H19.25V2.75H24.25C24.5815 2.75 24.8995 2.8817 25.1339 3.11612C25.3683 3.35054 25.5 3.66848 25.5 4V24C25.5 24.3315 25.3683 24.6495 25.1339 24.8839C24.8995 25.1183 24.5815 25.25 24.25 25.25H1.75002C1.4185 25.25 1.10056 25.1183 0.866136 24.8839C0.631715 24.6495 0.500019 24.3315 0.500019 24V4C0.500019 3.66848 0.631715 3.35054 0.866136 3.11612C1.10056 2.8817 1.4185 2.75 1.75002 2.75H6.75002V0.25H9.25002ZM23 11.5H3.00002V22.75H23V11.5ZM16.795 12.92L18.5625 14.6875L12.375 20.875L7.95502 16.455L9.72502 14.6875L12.3763 17.34L16.7963 12.92H16.795ZM6.75002 5.25H3.00002V9H23V5.25H19.25V6.5H16.75V5.25H9.25002V6.5H6.75002V5.25Z" fill="white"/>
</svg>
