<svg width="9" height="10" viewBox="0 0 9 10" fill="none" xmlns="http://www.w3.org/2000/svg">
<path d="M2.86358 10C1.93162 8.40305 0.998578 6.80673 0.0644431 5.21104C0.0223256 5.14847 0.000221162 5.07457 0.00106065 4.99915C0.00190014 4.92373 0.0256439 4.85034 0.0691438 4.78873C0.957976 3.26608 1.84483 1.7423 2.72971 0.217388C2.82371 0.0552344 2.95284 -0.000344273 3.13448 1.60286e-06C4.83443 0.00323835 6.53439 -0.000143335 8.23433 0.00339514C8.64674 0.0042516 8.74891 0.200056 8.54018 0.571265C7.7563 1.96532 6.97496 3.36082 6.18145 4.74947C6.07156 4.94177 6.06546 5.08266 6.17771 5.27754C6.97064 6.65408 7.74496 8.04121 8.5394 9.41688C8.67793 9.65676 8.68837 9.83319 8.45792 10L2.86358 10ZM3.02051 0.931218C2.94587 1.05041 2.89236 1.13067 2.844 1.21387C2.15534 2.39875 1.4714 3.58635 0.77503 4.76673C0.667907 4.94831 0.665613 5.08077 0.774107 5.26417C1.48297 6.46241 2.17782 7.66882 2.88072 8.87055C2.91943 8.93672 2.93225 9.03616 3.04067 9.05064C3.76657 7.77271 4.49249 6.4963 5.21844 5.2214C5.29492 5.08756 5.31537 4.98147 5.23124 4.83436C4.4971 3.5507 3.77239 2.26173 3.02051 0.93122L3.02051 0.931218ZM3.5567 0.601996C4.2778 1.88187 4.9716 3.1133 5.6932 4.39405C6.39837 3.15395 7.07148 1.96657 7.7492 0.781785C7.86975 0.57105 7.72112 0.602314 7.60103 0.602275C6.27621 0.601833 4.95138 0.601997 3.5567 0.601997L3.5567 0.601996ZM3.56818 9.38005H7.81882L5.69239 5.60857L3.56818 9.38005Z" fill="white"/>
</svg>
