<svg width="210" height="60" viewBox="0 0 210 60" fill="none" xmlns="http://www.w3.org/2000/svg">
<g clip-path="url(#clip0)">
<path d="M80.393 19.9266C80.3503 19.8408 80.2647 19.7549 80.1577 19.7549C79.8583 19.7549 78.9813 20.4634 77.4412 20.4634C75.4306 20.4634 75.0883 18.9819 75.0883 17.7796H80.8422C81.2486 17.7796 81.3342 17.6508 81.3342 17.2428C81.3342 14.6449 80.6925 11.3813 77.0562 11.3813C74.19 11.3813 72.3718 13.7431 72.3718 17.1569C72.3718 21.1075 74.3397 22.7178 77.1632 22.7178C78.853 22.7178 80.9919 22.0093 80.9919 21.451C80.9919 21.3652 80.9706 21.2793 80.9278 21.2149L80.393 19.9266ZM75.0883 15.7828C75.1525 15.1816 75.2381 13.3781 76.9065 13.3781C78.3824 13.3781 78.4466 14.9025 78.4466 15.7828H75.0883ZM89.2057 16.0834C89.2057 15.6969 89.1415 15.6325 88.7565 15.6325H83.5373C83.1523 15.6325 83.0882 15.6969 83.0882 16.0834V17.6508C83.0882 18.0372 83.1523 18.1016 83.5373 18.1016H88.7565C89.1415 18.1016 89.2057 18.0372 89.2057 17.6508V16.0834ZM98.1279 19.9481C98.0851 19.8837 98.0423 19.8408 97.9781 19.8408C97.5931 19.8408 97.1653 20.5708 96.0744 20.5708C94.4274 20.5708 93.8713 19.4758 93.8713 17.114C93.8713 14.6449 94.513 13.5284 95.9675 13.5284C97.0798 13.5284 97.7856 14.3872 97.9995 14.3872C98.0637 14.3872 98.1065 14.3228 98.1493 14.2799L98.9407 12.8843C98.9621 12.8199 99.0049 12.7555 99.0049 12.6911C99.0049 12.0255 97.1225 11.3813 95.9675 11.3813C92.8018 11.3813 90.9837 13.6358 90.9837 17.2643C90.9837 20.8928 92.759 22.7178 95.7322 22.7178C97.0156 22.7178 98.7482 22.0952 98.7482 21.5799C98.7482 21.5155 98.7054 21.4296 98.684 21.3652L98.1279 19.9481ZM104.754 20.5708C103.257 20.5708 103 19.0463 103 17.0496C103 15.0528 103.278 13.5284 104.754 13.5284C106.23 13.5284 106.508 15.0528 106.508 17.0496C106.508 19.0678 106.251 20.5708 104.754 20.5708ZM109.396 17.0496C109.396 13.5928 107.62 11.3813 104.754 11.3813C101.866 11.3813 100.112 13.5928 100.112 17.0496C100.112 20.5063 101.866 22.7178 104.754 22.7178C107.642 22.7178 109.396 20.5063 109.396 17.0496ZM125.557 14.7737C125.557 12.9058 125.086 11.3813 123.076 11.3813C121.322 11.3813 120.402 12.3046 119.76 12.8628C119.503 11.9611 118.498 11.3813 117.578 11.3813C115.888 11.3813 114.947 12.3046 114.306 12.8628C114.07 11.8537 113.899 11.3813 113.621 11.3813C113.536 11.3813 113.429 11.4028 113.3 11.4458L111.675 11.9825C111.525 12.0255 111.439 12.1113 111.439 12.2187C111.439 12.7125 111.846 12.5408 111.846 15.5681V22.0522C111.846 22.2884 111.889 22.3528 112.145 22.3528H114.263C114.52 22.3528 114.562 22.2884 114.562 22.0522V14.5161C114.84 14.2584 115.546 13.6358 116.445 13.6358C117.257 13.6358 117.343 14.6234 117.343 15.4393V22.0522C117.343 22.2884 117.386 22.3528 117.642 22.3528H119.76C120.017 22.3528 120.06 22.2884 120.06 22.0522V14.5161C120.338 14.2584 121.043 13.6358 121.942 13.6358C122.755 13.6358 122.84 14.6234 122.84 15.4393V22.0522C122.84 22.2884 122.883 22.3528 123.14 22.3528H125.257C125.514 22.3528 125.557 22.2884 125.557 22.0522V14.7737ZM142.205 14.7737C142.205 12.9058 141.734 11.3813 139.724 11.3813C137.97 11.3813 137.05 12.3046 136.408 12.8628C136.151 11.9611 135.146 11.3813 134.226 11.3813C132.537 11.3813 131.595 12.3046 130.954 12.8628C130.718 11.8537 130.547 11.3813 130.269 11.3813C130.184 11.3813 130.077 11.4028 129.948 11.4458L128.323 11.9825C128.173 12.0255 128.087 12.1113 128.087 12.2187C128.087 12.7125 128.494 12.5408 128.494 15.5681V22.0522C128.494 22.2884 128.537 22.3528 128.793 22.3528H130.911C131.168 22.3528 131.21 22.2884 131.21 22.0522V14.5161C131.488 14.2584 132.194 13.6358 133.093 13.6358C133.906 13.6358 133.991 14.6234 133.991 15.4393V22.0522C133.991 22.2884 134.034 22.3528 134.291 22.3528H136.408C136.665 22.3528 136.708 22.2884 136.708 22.0522V14.5161C136.986 14.2584 137.692 13.6358 138.59 13.6358C139.403 13.6358 139.488 14.6234 139.488 15.4393V22.0522C139.488 22.2884 139.531 22.3528 139.788 22.3528H141.905C142.162 22.3528 142.205 22.2884 142.205 22.0522V14.7737ZM152.5 19.9266C152.458 19.8408 152.372 19.7549 152.265 19.7549C151.966 19.7549 151.089 20.4634 149.549 20.4634C147.538 20.4634 147.196 18.9819 147.196 17.7796H152.95C153.356 17.7796 153.441 17.6508 153.441 17.2428C153.441 14.6449 152.8 11.3813 149.164 11.3813C146.297 11.3813 144.479 13.7431 144.479 17.1569C144.479 21.1075 146.447 22.7178 149.27 22.7178C150.96 22.7178 153.099 22.0093 153.099 21.451C153.099 21.3652 153.078 21.2793 153.035 21.2149L152.5 19.9266ZM147.196 15.7828C147.26 15.1816 147.345 13.3781 149.014 13.3781C150.49 13.3781 150.554 14.9025 150.554 15.7828H147.196ZM158.511 14.8811C158.789 14.5805 159.473 13.8505 160.137 13.8505C160.628 13.8505 161.014 14.0866 161.142 14.0866C161.227 14.0866 161.292 13.9578 161.313 13.8934L161.976 12.0899C161.997 12.0469 162.019 11.9611 162.019 11.8752C162.019 11.5961 161.399 11.3813 160.778 11.3813C159.324 11.3813 158.532 12.5837 158.126 13.0775C158.019 12.3475 157.591 11.3813 157.334 11.3813C157.249 11.3813 157.142 11.4458 157.056 11.4672L155.431 12.1328C155.324 12.1758 155.238 12.2402 155.238 12.3261C155.238 12.8199 155.794 13.2063 155.794 15.5681V22.0522C155.794 22.2884 155.837 22.3528 156.094 22.3528H158.211C158.468 22.3528 158.511 22.2884 158.511 22.0522V14.8811ZM169.462 19.9481C169.419 19.8837 169.377 19.8408 169.312 19.8408C168.927 19.8408 168.5 20.5708 167.409 20.5708C165.762 20.5708 165.206 19.4758 165.206 17.114C165.206 14.6449 165.847 13.5284 167.302 13.5284C168.414 13.5284 169.12 14.3872 169.334 14.3872C169.398 14.3872 169.441 14.3228 169.484 14.2799L170.275 12.8843C170.296 12.8199 170.339 12.7555 170.339 12.6911C170.339 12.0255 168.457 11.3813 167.302 11.3813C164.136 11.3813 162.318 13.6358 162.318 17.2643C162.318 20.8928 164.093 22.7178 167.067 22.7178C168.35 22.7178 170.083 22.0952 170.083 21.5799C170.083 21.5155 170.04 21.4296 170.018 21.3652L169.462 19.9481ZM179.447 19.9266C179.404 19.8408 179.318 19.7549 179.211 19.7549C178.912 19.7549 178.035 20.4634 176.495 20.4634C174.484 20.4634 174.142 18.9819 174.142 17.7796H179.896C180.302 17.7796 180.388 17.6508 180.388 17.2428C180.388 14.6449 179.746 11.3813 176.11 11.3813C173.244 11.3813 171.425 13.7431 171.425 17.1569C171.425 21.1075 173.393 22.7178 176.217 22.7178C177.907 22.7178 180.046 22.0093 180.046 21.451C180.046 21.3652 180.024 21.2793 179.981 21.2149L179.447 19.9266ZM174.142 15.7828C174.206 15.1816 174.292 13.3781 175.96 13.3781C177.436 13.3781 177.5 14.9025 177.5 15.7828H174.142ZM86.7458 32.7149C86.7458 30.8469 86.2752 29.3225 84.2646 29.3225C82.5106 29.3225 81.5909 30.2458 80.9492 30.804C80.6925 29.9022 79.6872 29.3225 78.7674 29.3225C77.0776 29.3225 76.1364 30.2458 75.4947 30.804C75.2595 29.7949 75.0883 29.3225 74.8103 29.3225C74.7247 29.3225 74.6178 29.344 74.4894 29.3869L72.8638 29.9237C72.7141 29.9666 72.6285 30.0525 72.6285 30.1599C72.6285 30.6537 73.0349 30.4819 73.0349 33.5093V39.9934C73.0349 40.2296 73.0777 40.294 73.3344 40.294H75.452C75.7086 40.294 75.7514 40.2296 75.7514 39.9934V32.4572C76.0295 32.1996 76.7354 31.5769 77.6337 31.5769C78.4465 31.5769 78.5321 32.5646 78.5321 33.3805V39.9934C78.5321 40.2296 78.5749 40.294 78.8316 40.294H80.9492C81.2058 40.294 81.2486 40.2296 81.2486 39.9934V32.4572C81.5267 32.1996 82.2326 31.5769 83.1309 31.5769C83.9438 31.5769 84.0293 32.5646 84.0293 33.3805V39.9934C84.0293 40.2296 84.0721 40.294 84.3288 40.294H86.4464C86.703 40.294 86.7458 40.2296 86.7458 39.9934V32.7149ZM93.1481 29.9881C93.1481 29.7519 93.1054 29.6875 92.8487 29.6875H88.7846C88.5279 29.6875 88.4851 29.7519 88.4851 29.9881V31.3837C88.4851 31.6199 88.5279 31.6843 88.7846 31.6843H90.4316V39.9934C90.4316 40.2296 90.4744 40.294 90.7311 40.294H92.8487C93.1054 40.294 93.1481 40.2296 93.1481 39.9934V29.9881ZM93.5332 26.5099C93.5332 25.5222 92.7417 24.7493 91.7792 24.7493C90.7952 24.7493 90.0038 25.5222 90.0038 26.5099C90.0038 27.4975 90.7952 28.2919 91.7792 28.2919C92.7417 28.2919 93.5332 27.4975 93.5332 26.5099ZM100.601 38.1255C100.58 38.0396 100.516 37.9966 100.43 37.9966C100.302 37.9966 100.024 38.1899 99.5959 38.1899C98.9969 38.1899 98.9969 37.5887 98.9969 36.9016V25.2002C98.9969 24.8352 98.9542 24.7493 98.783 24.7493C98.7403 24.7493 98.5478 24.8137 98.4836 24.8137L96.6868 25.1787C96.4302 25.2431 96.2804 25.2431 96.2804 25.5652V36.5152C96.2804 38.4905 96.2804 40.659 98.9114 40.659C99.9381 40.659 101.072 40.3584 101.072 40.0578C101.072 39.9934 101.05 39.9934 101.029 39.886L100.601 38.1255ZM106.93 38.1255C106.909 38.0396 106.845 37.9966 106.759 37.9966C106.631 37.9966 106.353 38.1899 105.925 38.1899C105.326 38.1899 105.326 37.5887 105.326 36.9016V25.2002C105.326 24.8352 105.283 24.7493 105.112 24.7493C105.069 24.7493 104.877 24.8137 104.813 24.8137L103.016 25.1787C102.759 25.2431 102.609 25.2431 102.609 25.5652V36.5152C102.609 38.4905 102.609 40.659 105.24 40.659C106.267 40.659 107.401 40.3584 107.401 40.0578C107.401 39.9934 107.379 39.9934 107.358 39.886L106.93 38.1255ZM112.554 29.9881C112.554 29.7519 112.511 29.6875 112.254 29.6875H108.19C107.934 29.6875 107.891 29.7519 107.891 29.9881V31.3837C107.891 31.6199 107.934 31.6843 108.19 31.6843H109.837V39.9934C109.837 40.2296 109.88 40.294 110.137 40.294H112.254C112.511 40.294 112.554 40.2296 112.554 39.9934V29.9881ZM112.939 26.5099C112.939 25.5222 112.147 24.7493 111.185 24.7493C110.201 24.7493 109.409 25.5222 109.409 26.5099C109.409 27.4975 110.201 28.2919 111.185 28.2919C112.147 28.2919 112.939 27.4975 112.939 26.5099ZM119.835 38.5119C118.338 38.5119 118.081 36.9875 118.081 34.9908C118.081 32.994 118.359 31.4696 119.835 31.4696C121.311 31.4696 121.589 32.994 121.589 34.9908C121.589 37.009 121.333 38.5119 119.835 38.5119ZM124.477 34.9908C124.477 31.534 122.702 29.3225 119.835 29.3225C116.948 29.3225 115.194 31.534 115.194 34.9908C115.194 38.4475 116.948 40.659 119.835 40.659C122.723 40.659 124.477 38.4475 124.477 34.9908ZM135.376 32.4572C135.376 29.8593 133.772 29.3225 132.596 29.3225C130.906 29.3225 129.943 30.2458 129.323 30.804C129.088 29.7949 128.917 29.3225 128.639 29.3225C128.553 29.3225 128.446 29.344 128.318 29.3869L126.692 29.9237C126.542 29.9666 126.457 30.0525 126.457 30.1599C126.457 30.6537 126.863 30.4819 126.863 33.5093V39.9934C126.863 40.2296 126.906 40.294 127.163 40.294H129.28C129.537 40.294 129.58 40.2296 129.58 39.9934V32.4572C129.858 32.1996 130.564 31.5769 131.462 31.5769C132.553 31.5769 132.66 32.5646 132.66 33.3805V39.9934C132.66 40.2296 132.703 40.294 132.959 40.294H135.077C135.334 40.294 135.376 40.2296 135.376 39.9934V32.4572ZM146.138 39.9075C146.245 39.8646 146.33 39.8002 146.33 39.7143C146.33 39.2849 145.774 39.0058 145.774 36.9231V32.7793C145.774 30.5463 144.769 29.3225 142.095 29.3225C140.448 29.3225 138.331 29.8378 138.331 30.3316C138.331 30.4175 138.352 30.5034 138.395 30.5893L138.823 31.899C138.844 31.9849 138.929 32.1137 139.036 32.1137C139.315 32.1137 140.491 31.4696 141.689 31.4696C143.036 31.4696 143.207 32.0922 143.207 33.0584V33.724C141.518 33.724 137.625 33.724 137.625 37.3525C137.625 39.3708 138.865 40.659 140.833 40.659C142.437 40.659 143.186 39.8002 143.614 39.3707C143.721 39.9075 144.042 40.659 144.234 40.659C144.32 40.659 144.427 40.5946 144.512 40.5731L146.138 39.9075ZM143.207 37.8463C142.951 38.104 142.395 38.6622 141.603 38.6622C140.79 38.6622 140.191 38.0396 140.191 37.2022C140.191 35.3128 142.673 35.4846 143.207 35.4846V37.8463ZM152.179 29.9881C152.179 29.7519 152.136 29.6875 151.88 29.6875H147.816C147.559 29.6875 147.516 29.7519 147.516 29.9881V31.3837C147.516 31.6199 147.559 31.6843 147.816 31.6843H149.463V39.9934C149.463 40.2296 149.505 40.294 149.762 40.294H151.88C152.136 40.294 152.179 40.2296 152.179 39.9934V29.9881ZM152.564 26.5099C152.564 25.5222 151.773 24.7493 150.81 24.7493C149.826 24.7493 149.035 25.5222 149.035 26.5099C149.035 27.4975 149.826 28.2919 150.81 28.2919C151.773 28.2919 152.564 27.4975 152.564 26.5099ZM158.135 32.8222C158.413 32.5216 159.098 31.7916 159.761 31.7916C160.253 31.7916 160.638 32.0278 160.766 32.0278C160.851 32.0278 160.916 31.899 160.937 31.8346L161.6 30.031C161.622 29.9881 161.643 29.9022 161.643 29.8163C161.643 29.5372 161.023 29.3225 160.402 29.3225C158.948 29.3225 158.156 30.5249 157.75 31.0187C157.643 30.2887 157.215 29.3225 156.959 29.3225C156.873 29.3225 156.766 29.3869 156.68 29.4084L155.055 30.074C154.948 30.1169 154.862 30.1813 154.862 30.2672C154.862 30.761 155.418 31.1475 155.418 33.5093V39.9934C155.418 40.2296 155.461 40.294 155.718 40.294H157.836C158.092 40.294 158.135 40.2296 158.135 39.9934V32.8222ZM169.963 37.8678C169.921 37.7819 169.835 37.696 169.728 37.696C169.429 37.696 168.552 38.4046 167.011 38.4046C165.001 38.4046 164.659 36.9231 164.659 35.7208H170.412C170.819 35.7208 170.904 35.5919 170.904 35.184C170.904 32.586 170.263 29.3225 166.626 29.3225C163.76 29.3225 161.942 31.6843 161.942 35.0981C161.942 39.0487 163.91 40.659 166.733 40.659C168.423 40.659 170.562 39.9505 170.562 39.3922C170.562 39.3063 170.541 39.2205 170.498 39.156L169.963 37.8678ZM164.659 33.724C164.723 33.1228 164.808 31.3193 166.477 31.3193C167.953 31.3193 168.017 32.8437 168.017 33.724H164.659ZM179.824 30.6537C179.867 30.5678 179.931 30.439 179.931 30.3746C179.931 29.8808 177.899 29.3225 176.594 29.3225C174.284 29.3225 172.808 30.8684 172.808 32.8222C172.808 34.0675 173.428 34.819 174.07 35.2484C175.482 36.1931 177.578 36.1931 177.578 37.4384C177.578 38.2113 176.979 38.5119 176.273 38.5119C174.947 38.5119 173.3 37.5672 173.215 37.5672C173.129 37.5672 173.086 37.6531 173.043 37.7605L172.573 38.9843C172.551 39.0702 172.466 39.199 172.466 39.2634C172.466 39.8431 174.904 40.659 176.487 40.659C178.755 40.659 180.145 39.1775 180.145 37.2022C180.145 35.9569 179.546 35.141 178.712 34.5828C177.193 33.5737 175.268 33.6596 175.268 32.5002C175.268 31.7702 175.867 31.4696 176.68 31.4696C178.048 31.4696 179.097 32.0278 179.161 32.0278C179.182 32.0278 179.289 31.9419 179.332 31.8346L179.824 30.6537ZM181.753 39.6949C181.753 39.4975 181.811 39.3328 181.925 39.201C182.044 39.0693 182.221 39.0034 182.455 39.0034C182.688 39.0034 182.865 39.0693 182.984 39.201C183.107 39.3328 183.168 39.4975 183.168 39.6949C183.168 39.8843 183.107 40.0428 182.984 40.1705C182.865 40.2981 182.688 40.3619 182.455 40.3619C182.221 40.3619 182.044 40.2981 181.925 40.1705C181.811 40.0428 181.753 39.8843 181.753 39.6949ZM187.721 39.4852C188.127 39.4852 188.482 39.3616 188.785 39.1146C189.088 38.8675 189.257 38.5587 189.289 38.1881H190.366C190.346 38.571 190.215 38.9355 189.972 39.2813C189.73 39.6269 189.406 39.9028 189 40.1087C188.599 40.3146 188.172 40.4175 187.721 40.4175C186.814 40.4175 186.092 40.1149 185.555 39.5096C185.022 38.9005 184.755 38.0687 184.755 37.0149V36.8234C184.755 36.1731 184.874 35.5946 185.112 35.0881C185.35 34.5819 185.69 34.1887 186.133 33.9087C186.581 33.6287 187.108 33.4887 187.715 33.4887C188.461 33.4887 189.08 33.7131 189.573 34.1619C190.069 34.6108 190.333 35.1931 190.366 35.9096H189.289C189.257 35.4772 189.093 35.1231 188.797 34.8472C188.506 34.5675 188.145 34.4275 187.715 34.4275C187.136 34.4275 186.687 34.6375 186.367 35.0572C186.051 35.4731 185.893 36.0763 185.893 36.8666V37.0828C185.893 37.8528 186.051 38.4455 186.367 38.8613C186.683 39.2772 187.134 39.4852 187.721 39.4852ZM191.344 36.8913C191.344 36.2369 191.472 35.6481 191.726 35.1252C191.984 34.6025 192.341 34.199 192.796 33.9149C193.256 33.6308 193.778 33.4887 194.365 33.4887C195.271 33.4887 196.004 33.8037 196.561 34.4337C197.123 35.0634 197.404 35.9013 197.404 36.9469V37.0272C197.404 37.6778 197.279 38.2622 197.029 38.781C196.783 39.2957 196.428 39.6969 195.965 39.9852C195.505 40.2734 194.976 40.4175 194.377 40.4175C193.475 40.4175 192.743 40.1025 192.181 39.4728C191.623 38.8428 191.344 38.009 191.344 36.9716V36.8913ZM192.489 37.0272C192.489 37.7684 192.659 38.3631 192.999 38.8119C193.344 39.2607 193.803 39.4852 194.377 39.4852C194.956 39.4852 195.415 39.2587 195.755 38.8057C196.096 38.3487 196.266 37.7108 196.266 36.8913C196.266 36.1587 196.092 35.5658 195.743 35.1128C195.398 34.656 194.939 34.4275 194.365 34.4275C193.803 34.4275 193.35 34.6519 193.005 35.1005C192.661 35.5493 192.489 36.1916 192.489 37.0272ZM199.902 33.6122L199.933 34.3534C200.421 33.7769 201.079 33.4887 201.907 33.4887C202.839 33.4887 203.472 33.8469 203.809 34.5634C204.03 34.2422 204.317 33.9828 204.67 33.7852C205.027 33.5875 205.447 33.4887 205.931 33.4887C207.391 33.4887 208.133 34.2649 208.158 35.8169V40.294H207.02V35.8849C207.02 35.4072 206.911 35.051 206.694 34.8163C206.476 34.5778 206.112 34.4584 205.599 34.4584C205.176 34.4584 204.826 34.586 204.547 34.841C204.268 35.0922 204.106 35.4319 204.061 35.8602V40.294H202.917V35.9158C202.917 34.944 202.443 34.4584 201.495 34.4584C200.749 34.4584 200.238 34.7772 199.963 35.4155V40.294H198.825V33.6122H199.902Z" fill="white"/>
<path d="M32.543 16.7708C32.507 15.7961 33.4092 15.0569 34.3533 15.2872L63.2785 22.3443C64.1148 22.5483 64.5965 23.4283 64.3199 24.2462L59.9092 37.2839C59.7032 37.8927 59.1271 38.2968 58.4869 38.2812L34.6937 37.7074C33.9196 37.6889 33.2934 37.0686 33.2647 36.2918L32.543 16.7708Z" fill="#FF9A01"/>
<path fill-rule="evenodd" clip-rule="evenodd" d="M54.2986 43.8577H26.7818C25.7711 43.8577 25.064 42.8547 25.4001 41.898L27.9336 34.6859C27.9919 34.5197 28.0201 34.3444 28.0167 34.168L27.5922 12.4207C27.5791 11.7477 27.1125 11.1697 26.4595 11.0171L18.7727 9.22186C18.0254 9.04645 17.559 8.29586 17.7337 7.54674C17.9087 6.80012 18.659 6.33224 19.4057 6.5075L29.1851 8.7898L29.1998 8.79145C29.201 8.79171 29.2037 8.79236 29.2082 8.79353L29.2179 8.79618L29.2311 8.79977C29.2405 8.80227 29.2526 8.80542 29.2662 8.8085L29.268 8.80889L63.5982 16.8248C64.4655 17.0273 64.9537 17.9528 64.6331 18.7865L58.3586 35.1097C58.1406 35.6771 57.5973 36.0512 56.9917 36.0512H31.4445C30.823 36.0512 30.2692 36.4447 30.0627 37.033L29.3337 39.11C28.9978 40.0668 29.7049 41.0694 30.7155 41.0694H54.2986C55.0718 41.0694 55.6948 41.6947 55.6948 42.4615C55.6948 43.2324 55.0683 43.8577 54.2986 43.8577ZM55.0795 33.2665C55.6851 33.2665 56.2284 32.8924 56.4464 32.325L60.884 20.7754C61.2043 19.9417 60.7161 19.0163 59.8491 18.8138L32.2075 12.36C31.2775 12.1428 30.3923 12.8626 30.4108 13.821L30.7609 31.8247C30.7765 32.6256 31.4275 33.2665 32.2257 33.2665H55.0795Z" fill="white"/>
<path d="M12.8519 14.8398C12.0874 14.6381 11.776 13.7187 12.2597 13.0912C12.5306 12.7397 12.9847 12.5848 13.4128 12.6978L22.394 15.0686C22.8784 15.1965 23.216 15.636 23.216 16.1388C23.216 16.8642 22.5324 17.3934 21.8335 17.209L12.8519 14.8398Z" fill="white"/>
<path d="M23.2161 20.9076C23.2161 20.4048 22.8784 19.9653 22.394 19.8374L5.20434 15.3018C4.84983 15.2082 4.47219 15.2976 4.19659 15.5401C3.53183 16.1252 3.78845 17.2182 4.64352 17.4437L21.8336 21.9778C22.5325 22.1621 23.2161 21.6329 23.2161 20.9076Z" fill="white"/>
<path d="M7.48757 23.1087C6.66681 22.8921 6.38772 21.8647 6.98531 21.2599C7.26241 20.9794 7.66747 20.8686 8.04807 20.969L22.3941 24.7551C22.8785 24.883 23.2161 25.3225 23.2161 25.8252C23.2161 26.5505 22.5324 27.0797 21.8335 26.8952L7.48757 23.1087Z" fill="white"/>
<path d="M2.71521 26.855C1.84487 26.6254 1.59981 25.5027 2.29478 24.9289C2.56837 24.703 2.93341 24.6227 3.27603 24.7132L22.3976 29.7587C22.882 29.8863 23.2197 30.326 23.2197 30.8287C23.2197 31.554 22.536 32.0831 21.8371 31.899L2.71521 26.855Z" fill="white"/>
<path d="M35.1286 48.4326C35.1286 49.7846 34.0331 50.8823 32.6797 50.8823C31.3265 50.8823 30.231 49.7846 30.231 48.4326C30.231 47.0808 31.3265 45.9832 32.6797 45.9832C34.0331 45.9832 35.1286 47.0808 35.1286 48.4326Z" fill="white"/>
<path d="M50.9439 48.4326C50.9439 49.7846 49.8483 50.8823 48.4949 50.8823C47.1418 50.8823 46.0459 49.7846 46.0459 48.4326C46.0459 47.0808 47.1418 45.9832 48.4949 45.9832C49.8483 45.9832 50.9439 47.0808 50.9439 48.4326Z" fill="white"/>
<path d="M153.609 50.7788L153.608 50.7791C149.455 52.5561 145.311 54.3285 141.047 55.552L141.046 55.5523C131.782 58.2941 122.492 58.5885 113.204 55.8905C109.057 54.6655 104.984 53.1903 101.189 50.6232L101.188 50.6229C99.9316 49.78 98.7364 48.895 97.5406 47.9253C97.065 47.5202 96.6425 47.0476 96.2124 46.5664C96.0667 46.4038 95.9205 46.2402 95.7711 46.0779L95.7702 46.077C95.6299 45.9267 95.4737 45.792 95.2982 45.7494C95.1016 45.7014 94.9199 45.7758 94.757 45.9503C94.4262 46.3038 94.4364 46.8417 94.643 47.2211L94.6445 47.2235L94.6459 47.2258C94.9272 47.6985 95.2413 48.1311 95.6199 48.5217L95.6211 48.5229C97.4756 50.3932 99.4844 51.9229 101.585 53.197C106.278 56.0417 111.215 57.6535 116.206 58.755C122.84 60.2403 129.504 60.1547 136.163 58.8829C141.992 57.78 147.602 55.5752 153.17 53.1641L153.173 53.1629C153.349 53.082 153.521 53.0208 153.708 52.9891C153.704 52.9958 153.699 53.0023 153.695 53.0091C153.631 53.102 153.567 53.19 153.497 53.2667C153.497 53.2673 153.496 53.2676 153.496 53.2682L152.161 54.6608L150.823 56.0567L150.822 56.0579C150.536 56.3635 150.282 56.7132 150.06 57.1491C149.827 57.6064 149.838 58.2041 150.256 58.5179L150.259 58.5197L150.261 58.5214C150.4 58.6164 150.577 58.6229 150.732 58.5853C150.888 58.5476 151.044 58.4603 151.158 58.3317C151.942 57.55 152.725 56.747 153.508 55.945L153.509 55.9444C154.293 55.1405 155.077 54.3379 155.86 53.5561L155.861 53.555C156.534 52.8679 157.222 52.2029 157.906 51.5423C158.188 51.2691 158.47 50.9967 158.75 50.7238L158.753 50.7208L158.756 50.7173C158.83 50.6358 158.912 50.5538 158.997 50.4688L158.998 50.4673C159.082 50.3838 159.169 50.297 159.248 50.21L159.253 50.2041L159.258 50.1976C159.731 49.547 159.607 48.7279 158.973 48.3379C158.859 48.2605 158.739 48.2238 158.627 48.2011C158.571 48.1897 158.514 48.1811 158.461 48.1732C158.408 48.1653 158.359 48.1582 158.31 48.1485C157.923 48.0555 157.537 47.9623 157.152 47.8694C154.562 47.2444 151.989 46.6232 149.392 46.0344L153.609 50.7788ZM153.609 50.7788L149.392 46.0344L153.609 50.7788ZM153.609 50.7788C154.053 50.5926 154.48 50.3758 154.915 50.1547C155.143 50.0385 155.374 49.9214 155.61 49.8067V49.8064V49.8058V49.8055V49.805V49.8047V49.8041V49.8038V49.8032V49.8029V49.8023V49.8017V49.8014V49.8008V49.8005V49.8V49.7997V49.7991V49.7988V49.7982V49.7976V49.7973V49.7967L155.299 49.7017L154.886 49.5755L153.609 50.7788ZM153.609 50.7788L154.886 49.5755L153.609 50.7788ZM149.392 46.0344C149.332 46.0202 149.268 46.0047 149.202 45.9885C149.078 45.9579 148.946 45.9255 148.819 45.9011C148.62 45.8629 148.411 45.8388 148.206 45.8623L148.2 45.8632L148.194 45.8641C148.036 45.895 147.886 46.022 147.776 46.1508C147.663 46.2838 147.564 46.452 147.526 46.6082L147.524 46.6164L147.523 46.6253C147.503 46.7888 147.552 46.9855 147.622 47.1538C147.691 47.3232 147.794 47.4929 147.908 47.5973L147.91 47.5988L147.911 47.6005C148.054 47.7232 148.212 47.7941 148.364 47.845C148.44 47.8703 148.516 47.8911 148.587 47.9103C148.598 47.9132 148.608 47.9161 148.619 47.9188C148.68 47.935 148.738 47.9505 148.795 47.9676L148.797 47.9685L148.799 47.9691C149.814 48.2441 150.83 48.5088 151.845 48.7729C152.859 49.037 153.873 49.3011 154.886 49.5755L149.392 46.0344ZM149.392 46.0344L154.886 49.5755L149.392 46.0344Z" fill="#FF9A01"/>
<path d="M149.392 46.0344L154.886 49.5755M153.609 50.7788L153.608 50.7791C149.455 52.5561 145.311 54.3285 141.047 55.552L141.046 55.5523C131.782 58.2941 122.492 58.5885 113.204 55.8905C109.057 54.6655 104.984 53.1903 101.189 50.6232L101.188 50.6229C99.9316 49.78 98.7364 48.895 97.5406 47.9252C97.065 47.5202 96.6425 47.0476 96.2124 46.5664C96.0667 46.4038 95.9205 46.2402 95.7711 46.0779L95.7702 46.077C95.6299 45.9267 95.4737 45.792 95.2982 45.7494C95.1016 45.7014 94.9199 45.7758 94.757 45.9503C94.4262 46.3038 94.4364 46.8417 94.643 47.2211L94.6445 47.2235L94.6459 47.2258C94.9272 47.6985 95.2413 48.1311 95.6199 48.5217L95.6211 48.5229C97.4756 50.3932 99.4844 51.9229 101.585 53.197C106.278 56.0417 111.215 57.6535 116.206 58.755C122.84 60.2403 129.504 60.1547 136.163 58.8829C141.992 57.78 147.602 55.5753 153.17 53.1641L153.173 53.1629C153.349 53.082 153.521 53.0208 153.708 52.9891C153.704 52.9958 153.699 53.0023 153.695 53.0091C153.631 53.102 153.567 53.19 153.497 53.2667C153.497 53.2673 153.496 53.2676 153.496 53.2682L152.161 54.6608L150.823 56.0567L150.822 56.0579C150.536 56.3635 150.282 56.7132 150.06 57.1491C149.827 57.6064 149.838 58.2041 150.256 58.5179L150.259 58.5197L150.261 58.5214C150.4 58.6164 150.577 58.6229 150.732 58.5853C150.888 58.5476 151.044 58.4603 151.158 58.3317C151.942 57.55 152.725 56.747 153.508 55.945L153.509 55.9444C154.293 55.1405 155.077 54.3379 155.86 53.5561L155.861 53.555C156.534 52.8679 157.222 52.2029 157.906 51.5423C158.188 51.2691 158.47 50.9967 158.75 50.7238L158.753 50.7208L158.756 50.7173C158.83 50.6358 158.912 50.5538 158.997 50.4688L158.998 50.4673C159.082 50.3838 159.169 50.297 159.248 50.21L159.253 50.2041L159.258 50.1976C159.731 49.547 159.607 48.7279 158.973 48.3379C158.859 48.2605 158.739 48.2238 158.627 48.2011C158.571 48.1897 158.514 48.1811 158.461 48.1732C158.408 48.1653 158.359 48.1582 158.31 48.1485C157.923 48.0555 157.537 47.9623 157.152 47.8694C154.562 47.2444 151.989 46.6232 149.392 46.0344L153.609 50.7788ZM153.609 50.7788L149.392 46.0344L153.609 50.7788ZM153.609 50.7788C154.053 50.5926 154.48 50.3758 154.915 50.1547C155.143 50.0385 155.374 49.9214 155.61 49.8067V49.8064V49.8058V49.8055V49.805V49.8047V49.8041V49.8038V49.8032V49.8029V49.8023V49.8017V49.8014V49.8008V49.8005V49.8V49.7997V49.7991V49.7988V49.7982V49.7976V49.7973V49.7967L155.299 49.7017L154.886 49.5755L153.609 50.7788ZM153.609 50.7788L154.886 49.5755L153.609 50.7788ZM149.392 46.0344C149.332 46.0202 149.268 46.0047 149.202 45.9885C149.078 45.9579 148.946 45.9255 148.819 45.9011C148.62 45.8629 148.411 45.8388 148.206 45.8623L148.2 45.8632L148.194 45.8641C148.036 45.895 147.886 46.022 147.776 46.1508C147.663 46.2838 147.564 46.452 147.526 46.6082L147.524 46.6164L147.523 46.6253C147.503 46.7888 147.552 46.9855 147.622 47.1538C147.691 47.3232 147.794 47.4929 147.908 47.5973L147.91 47.5988L147.911 47.6005C148.054 47.7232 148.212 47.7941 148.364 47.845C148.44 47.8703 148.516 47.8911 148.587 47.9103C148.598 47.9132 148.608 47.9161 148.619 47.9188C148.68 47.935 148.738 47.9505 148.795 47.9676L148.797 47.9685L148.799 47.9691C149.814 48.2441 150.83 48.5088 151.845 48.7729C152.859 49.037 153.873 49.3011 154.886 49.5755L149.392 46.0344Z" stroke="#FF9A01"/>
</g>
<defs>
<clipPath id="clip0">
<rect width="209.211" height="60" fill="white"/>
</clipPath>
</defs>
</svg>
