<svg width="30" height="26" viewBox="0 0 30 26" fill="none" xmlns="http://www.w3.org/2000/svg">
<path d="M22.5 19.25V25.5H20V19.25C20 13.6862 23.305 8.89375 28.0587 6.73L29.0937 9.005C27.1271 9.89947 25.4596 11.3412 24.2904 13.1579C23.1211 14.9746 22.4996 17.0895 22.5 19.25ZM9.99999 19.25V25.5H7.49999V19.25C7.50018 17.0897 6.87853 14.9751 5.70929 13.1586C4.54005 11.3422 2.87265 9.90064 0.906242 9.00625L1.94124 6.73C4.3446 7.82311 6.3825 9.58495 7.81152 11.8051C9.24054 14.0252 10.0003 16.6097 9.99999 19.25ZM15 13C13.3424 13 11.7527 12.3415 10.5806 11.1694C9.40847 9.99732 8.74999 8.4076 8.74999 6.75C8.74999 5.0924 9.40847 3.50269 10.5806 2.33058C11.7527 1.15848 13.3424 0.5 15 0.5C16.6576 0.5 18.2473 1.15848 19.4194 2.33058C20.5915 3.50269 21.25 5.0924 21.25 6.75C21.25 8.4076 20.5915 9.99732 19.4194 11.1694C18.2473 12.3415 16.6576 13 15 13ZM15 10.5C15.4924 10.5 15.9801 10.403 16.4351 10.2145C16.89 10.0261 17.3034 9.74987 17.6516 9.40165C17.9999 9.05343 18.2761 8.64003 18.4645 8.18506C18.653 7.73009 18.75 7.24246 18.75 6.75C18.75 6.25754 18.653 5.76991 18.4645 5.31494C18.2761 4.85997 17.9999 4.44657 17.6516 4.09835C17.3034 3.75013 16.89 3.47391 16.4351 3.28545C15.9801 3.097 15.4924 3 15 3C14.0054 3 13.0516 3.39509 12.3483 4.09835C11.6451 4.80161 11.25 5.75544 11.25 6.75C11.25 7.74456 11.6451 8.69839 12.3483 9.40165C13.0516 10.1049 14.0054 10.5 15 10.5Z" fill="white"/>
</svg>
