<svg width="36" height="36" viewBox="0 0 36 36" fill="none" xmlns="http://www.w3.org/2000/svg">
<path d="M16.1666 0.5L32.665 2.85833L35.0216 19.3583L19.7016 34.6783C19.3891 34.9908 18.9652 35.1663 18.5233 35.1663C18.0814 35.1663 17.6575 34.9908 17.345 34.6783L0.844972 18.1783C0.53252 17.8658 0.356995 17.4419 0.356995 17C0.356995 16.5581 0.53252 16.1342 0.844972 15.8217L16.1666 0.5ZM17.345 4.03667L4.37997 17L18.5233 31.1417L31.4866 18.1783L29.72 5.80333L17.345 4.03667ZM20.8783 14.6433C20.2531 14.0179 19.9019 13.1696 19.902 12.2852C19.9021 11.8473 19.9884 11.4137 20.1561 11.0092C20.3237 10.6047 20.5694 10.2371 20.8791 9.9275C21.1888 9.61791 21.5565 9.37235 21.9611 9.20484C22.3657 9.03733 22.7993 8.95116 23.2372 8.95123C24.1216 8.95139 24.9697 9.30286 25.595 9.92833C26.2202 10.5538 26.5714 11.402 26.5712 12.2864C26.5711 13.1708 26.2196 14.0189 25.5941 14.6442C24.9687 15.2694 24.1204 15.6206 23.2361 15.6204C22.3517 15.6203 21.5036 15.2688 20.8783 14.6433Z" fill="white"/>
</svg>
