<svg width="44" height="44" viewBox="0 0 44 44" fill="none" xmlns="http://www.w3.org/2000/svg">
<circle cx="22" cy="22" r="21" stroke="#FF9A01" stroke-width="2"/>
<path d="M22.9999 30.9999H27.9999V32.9999H15.9999V30.9999H20.9999V29.9499C19.4144 29.7907 17.8899 29.255 16.5533 28.3874C15.2167 27.5197 14.1068 26.3453 13.3159 24.9619L15.0529 23.9699C15.6637 25.0372 16.5123 25.9493 17.5328 26.6353C18.5533 27.3214 19.7182 27.763 20.937 27.9258C22.1558 28.0886 23.3958 27.9683 24.5606 27.5741C25.7254 27.18 26.7836 26.5226 27.6531 25.6531C28.5226 24.7836 29.18 23.7254 29.5741 22.5606C29.9683 21.3958 30.0886 20.1558 29.9258 18.937C29.763 17.7182 29.3214 16.5533 28.6353 15.5328C27.9493 14.5123 27.0372 13.6637 25.9699 13.0529L26.9619 11.3159C28.4929 12.1905 29.7654 13.4544 30.6502 14.9796C31.535 16.5047 32.0007 18.2367 31.9999 19.9999C31.9999 25.1849 28.0529 29.4489 22.9999 29.9499V30.9999ZM21.9999 26.9999C21.0807 26.9999 20.1704 26.8189 19.3211 26.4671C18.4719 26.1153 17.7002 25.5997 17.0502 24.9497C16.4002 24.2997 15.8845 23.528 15.5328 22.6787C15.181 21.8294 14.9999 20.9192 14.9999 19.9999C14.9999 19.0807 15.181 18.1704 15.5328 17.3211C15.8845 16.4719 16.4002 15.7002 17.0502 15.0502C17.7002 14.4002 18.4719 13.8845 19.3211 13.5328C20.1704 13.181 21.0807 12.9999 21.9999 12.9999C23.8564 12.9999 25.6369 13.7374 26.9497 15.0502C28.2624 16.3629 28.9999 18.1434 28.9999 19.9999C28.9999 21.8564 28.2624 23.6369 26.9497 24.9497C25.6369 26.2624 23.8564 26.9999 21.9999 26.9999ZM21.9999 24.9999C23.326 24.9999 24.5978 24.4731 25.5355 23.5354C26.4731 22.5978 26.9999 21.326 26.9999 19.9999C26.9999 18.6738 26.4731 17.4021 25.5355 16.4644C24.5978 15.5267 23.326 14.9999 21.9999 14.9999C20.6738 14.9999 19.4021 15.5267 18.4644 16.4644C17.5267 17.4021 16.9999 18.6738 16.9999 19.9999C16.9999 21.326 17.5267 22.5978 18.4644 23.5354C19.4021 24.4731 20.6738 24.9999 21.9999 24.9999Z" fill="#FF9A01" stroke="#232F3E"/>
</svg>
