<svg width="29" height="11" viewBox="0 0 29 11" fill="none" xmlns="http://www.w3.org/2000/svg">
<path fill-rule="evenodd" clip-rule="evenodd" d="M7.44705 9.96799H4.96324L3.10069 2.89114C3.01229 2.56561 2.82458 2.27782 2.54846 2.14218C1.85939 1.80131 1.10008 1.53003 0.271744 1.39321V1.12075H4.27296C4.82519 1.12075 5.23935 1.53003 5.30838 2.00536L6.27478 7.11013L8.75737 1.12075H11.1722L7.44705 9.96799ZM12.5525 9.96799H10.2067L12.1383 1.12075H14.4841L12.5525 9.96799ZM17.5193 3.57163C17.5883 3.09512 18.0025 2.82266 18.4857 2.82266C19.245 2.75425 20.0721 2.89107 20.7624 3.23076L21.1765 1.3259C20.4863 1.05345 19.7269 0.916626 19.0379 0.916626C16.7612 0.916626 15.1045 2.1421 15.1045 3.8429C15.1045 5.13679 16.278 5.81617 17.1063 6.22544C18.0025 6.63354 18.3476 6.906 18.2786 7.3141C18.2786 7.92625 17.5883 8.19871 16.8992 8.19871C16.0709 8.19871 15.2425 7.99466 14.4844 7.65379L14.0703 9.55982C14.8986 9.89951 15.7948 10.0363 16.6231 10.0363C19.1759 10.1036 20.7624 8.87926 20.7624 7.04164C20.7624 4.72751 17.5193 4.59187 17.5193 3.57163ZM28.9719 9.96799L27.1094 1.12075H25.1088C24.6946 1.12075 24.2804 1.39321 24.1424 1.80131L20.6934 9.96799H23.1082L23.5901 8.67529H26.5571L26.8333 9.96799H28.9719ZM25.4538 3.50308L26.1429 6.83746H24.2113L25.4538 3.50308Z" fill="#172B85"/>
</svg>
