<svg xmlns="http://www.w3.org/2000/svg" width="53" height="52" viewBox="0 0 53 52">
  <g id="Group_304" data-name="Group 304" transform="translate(0.198 0.064)">
    <rect id="Rectangle_78" data-name="Rectangle 78" width="53" height="52" rx="8" transform="translate(-0.198 -0.064)" fill="#0086e8"/>
    <path id="Icon_awesome-money-bill-wave" data-name="Icon awesome-money-bill-wave" d="M32.813,3.436A15.643,15.643,0,0,0,26.664,2.25c-6.507,0-13.013,3.293-19.519,3.293A16.028,16.028,0,0,1,2.25,4.818,1.806,1.806,0,0,0,1.7,4.733,1.681,1.681,0,0,0,0,6.413v16.76a1.68,1.68,0,0,0,1,1.556,15.635,15.635,0,0,0,6.149,1.187c6.507,0,13.013-3.294,19.52-3.294a16.028,16.028,0,0,1,4.894.725,1.806,1.806,0,0,0,.547.086,1.681,1.681,0,0,0,1.7-1.68V4.993a1.682,1.682,0,0,0-1-1.557ZM2.536,7.544a18.384,18.384,0,0,0,3.313.472,3.385,3.385,0,0,1-3.313,2.723Zm0,15.055V20.076A3.38,3.38,0,0,1,5.9,23.319,12.762,12.762,0,0,1,2.536,22.6ZM16.9,19.154c-2.334,0-4.226-2.271-4.226-5.071S14.57,9.012,16.9,9.012s4.226,2.27,4.226,5.071S19.238,19.154,16.9,19.154Zm14.369,1.468a18.163,18.163,0,0,0-2.87-.446,3.374,3.374,0,0,1,2.87-2.6Zm0-12.473A3.374,3.374,0,0,1,28.325,4.9a12.7,12.7,0,0,1,2.948.669Z" transform="translate(9.811 12.079)" fill="#fff"/>
  </g>
</svg>
