<svg xmlns="http://www.w3.org/2000/svg" width="18.719" height="16.317" viewBox="0 0 18.719 16.317">
  <path id="Icon_payment-ideal" data-name="Icon payment-ideal" d="M27.866,24.473q0,4.45-2.4,6.428a8.32,8.32,0,0,1-5.51,1.766H9.148V16.35H19.955a7.923,7.923,0,0,1,5.51,1.907A6.1,6.1,0,0,1,27.23,20.8a9.67,9.67,0,0,1,.636,3.673Zm-1.06,0a6.932,6.932,0,0,0-2.048-5.439,7.3,7.3,0,0,0-5.015-1.624H10.207v14.2h9.536q7.062,0,7.064-7.134ZM12.75,21.365a1.688,1.688,0,1,0,1.2.494,1.638,1.638,0,0,0-1.2-.494ZM11.2,30.548h3.037V25.533H11.2v5.015Zm12.5-5.863h2.119q0,5.864-6.569,5.863h-3.6V24.685H16a1.47,1.47,0,0,0,.565-.07,1.622,1.622,0,0,0,.424-.212,1.663,1.663,0,0,0,.353-.565,1.772,1.772,0,0,0,.07-.636,2.265,2.265,0,0,0-.035-.353,2,2,0,0,1-.035-.283,1.937,1.937,0,0,0-.177-.283.429.429,0,0,1-.106-.212.779.779,0,0,0-.494-.283,1.489,1.489,0,0,0-.565-.07h-.353V18.751h3.6q6.215,0,6.569,5.3H24.476V21.718H23.7v2.967ZM16.635,23.2V23.7l-.141.212c-.095.095-.166.141-.212.141h-.636v-1.7h.565a.41.41,0,0,1,.283.141c0,.047.046.118.141.212V23.2Zm3.6.847H18.613v-.565h1.413v-.636H18.613v-.494h1.554v-.636H17.907v2.967h2.331v-.636Zm3.179.636-1.13-2.967h-.777l-1.13,2.967h.777l.212-.636h1.06a4.2,4.2,0,0,0,.212.636ZM21.65,23.413l.141-.424a1.18,1.18,0,0,0,.07-.353,2.244,2.244,0,0,1,.283.777Z" transform="translate(-9.148 -16.35)" fill="#b7c0d5"/>
</svg>
