<svg id="Group_305" data-name="Group 305" xmlns="http://www.w3.org/2000/svg" width="52.323" height="52.323" viewBox="0 0 52.323 52.323">
  <path id="Path_89" data-name="Path 89" d="M11.285,0H41.038A11.285,11.285,0,0,1,52.324,11.285V41.038A11.285,11.285,0,0,1,41.038,52.324H11.285A11.285,11.285,0,0,1,0,41.038V11.285A11.285,11.285,0,0,1,11.285,0Z" fill="#0086e8"/>
  <path id="Icon_metro-earth" data-name="Icon metro-earth" d="M17.454,1.928A14.884,14.884,0,1,0,32.338,16.812,14.884,14.884,0,0,0,17.454,1.928Zm0,27.907a12.979,12.979,0,0,1-5.152-1.06L19.08,21.15a.93.93,0,0,0,.235-.618V17.742a.93.93,0,0,0-.93-.93c-3.285,0-6.75-3.415-6.784-3.448a.93.93,0,0,0-.658-.272H7.222a.93.93,0,0,0-.93.93V19.6a.93.93,0,0,0,.514.832l3.207,1.6V27.5A13.031,13.031,0,0,1,5.685,11.23h3.4a.93.93,0,0,0,.658-.272l3.721-3.721a.93.93,0,0,0,.272-.658V4.329A13.06,13.06,0,0,1,23.16,5.1c-.12.1-.238.208-.35.321a5.582,5.582,0,0,0,3.943,9.529q.138,0,.277-.007a21.844,21.844,0,0,1-.244,10.824.928.928,0,0,0-.024.152,12.983,12.983,0,0,1-9.306,3.914Z" transform="translate(8.442 9.727)" fill="#fff"/>
</svg>
