<svg xmlns="http://www.w3.org/2000/svg" width="13.613" height="13.613" viewBox="0 0 13.613 13.613">
  <path id="Icon_awesome-phone-alt" data-name="Icon awesome-phone-alt" d="M13.225,9.62,10.247,8.344a.638.638,0,0,0-.744.183L8.183,10.138A9.855,9.855,0,0,1,3.472,5.427L5.084,4.108a.637.637,0,0,0,.183-.744L3.991.386A.642.642,0,0,0,3.26.016L.495.655A.638.638,0,0,0,0,1.276,12.335,12.335,0,0,0,12.337,13.613a.638.638,0,0,0,.622-.495l.638-2.765a.646.646,0,0,0-.372-.734Z" transform="translate(0 0)" fill="#b7c0d5"/>
</svg>
