<svg xmlns="http://www.w3.org/2000/svg" width="17.379" height="13.034" viewBox="0 0 17.379 13.034">
  <path id="Icon_metro-credit-card" data-name="Icon metro-credit-card" d="M18.32,5.784H4.2A1.634,1.634,0,0,0,2.571,7.413v9.775A1.634,1.634,0,0,0,4.2,18.818H18.32a1.634,1.634,0,0,0,1.629-1.629V7.413A1.634,1.634,0,0,0,18.32,5.784ZM4.2,6.87H18.32a.55.55,0,0,1,.543.543V9.043H3.657V7.413A.55.55,0,0,1,4.2,6.87ZM18.32,17.732H4.2a.55.55,0,0,1-.543-.543V12.3H18.863v4.888a.55.55,0,0,1-.543.543ZM4.743,14.473H5.829v2.172H4.743Zm2.172,0H8v2.172H6.915Zm2.172,0h1.086v2.172H9.088Z" transform="translate(-2.571 -5.784)" fill="#40527a"/>
</svg>
