<svg xmlns="http://www.w3.org/2000/svg" width="37" height="37" viewBox="0 0 37 37">
  <g id="Group_9" data-name="Group 9" transform="translate(-554 -12)">
    <g id="Ellipse_1" data-name="Ellipse 1" transform="translate(554 12)" fill="none" stroke="#bad9f4" stroke-width="1">
      <circle cx="18.5" cy="18.5" r="18.5" stroke="none"/>
      <circle cx="18.5" cy="18.5" r="18" fill="none"/>
    </g>
    <path id="Icon_metro-earth" data-name="Icon metro-earth" d="M11.035,1.928A8.464,8.464,0,1,0,19.5,10.393a8.464,8.464,0,0,0-8.464-8.464Zm0,15.871a7.382,7.382,0,0,1-2.93-.6L11.96,12.86a.529.529,0,0,0,.134-.351V10.922a.529.529,0,0,0-.529-.529c-1.868,0-3.839-1.942-3.858-1.961a.529.529,0,0,0-.374-.155H5.216a.529.529,0,0,0-.529.529V11.98a.529.529,0,0,0,.292.473l1.824.912v3.106A7.411,7.411,0,0,1,4.342,7.218H6.274a.529.529,0,0,0,.374-.155L8.764,4.947a.529.529,0,0,0,.155-.374V3.293a7.427,7.427,0,0,1,5.361.44c-.069.058-.135.118-.2.182a3.175,3.175,0,0,0,2.242,5.419q.079,0,.157,0a12.423,12.423,0,0,1-.139,6.155.528.528,0,0,0-.014.086A7.383,7.383,0,0,1,11.035,17.8Z" transform="translate(560.931 19.989)" fill="#00a0ff"/>
  </g>
</svg>
