<svg xmlns="http://www.w3.org/2000/svg" width="46" height="12.571" viewBox="0 0 46 12.571">
  <path id="Icon_payment-sepa" data-name="Icon payment-sepa" d="M12.791,23.857H9.643a2.021,2.021,0,0,0-.182-1.04q-.281-.391-1.55-.392a3.821,3.821,0,0,0-1.632.226q-.4.227-.4.985a.98.98,0,0,0,.354.9,1.472,1.472,0,0,0,.671.181l.635.045q2.041.135,2.549.19a3.891,3.891,0,0,1,2.34.858,2.275,2.275,0,0,1,.68,1.418,9.93,9.93,0,0,1,.063,1.184,6.265,6.265,0,0,1-.29,2.223,2.873,2.873,0,0,1-2.363,1.635,13.9,13.9,0,0,1-2.354.145A14.52,14.52,0,0,1,4.482,32.1,2.4,2.4,0,0,1,2.8,30.532a7.432,7.432,0,0,1-.227-2.192H5.718c0,.114,0,.2,0,.262q0,.819.47,1.053a1.851,1.851,0,0,0,.787.171H8.133a4.179,4.179,0,0,0,1.13-.091.92.92,0,0,0,.57-.55,2.1,2.1,0,0,0,.072-.6q0-.83-.605-1.011a18.868,18.868,0,0,0-2.105-.2q-1.509-.108-2.1-.208a2.8,2.8,0,0,1-2.06-1.191,4.682,4.682,0,0,1-.452-2.32,6,6,0,0,1,.244-1.9,2.073,2.073,0,0,1,.788-1.083A3.987,3.987,0,0,1,5.654,20q1.032-.09,2.29-.091a12.245,12.245,0,0,1,2.823.226q2.055.552,2.054,3.093,0,.207-.031.623Zm13.841,8.561V19.847h6.3a7.037,7.037,0,0,1,1.978.212,3.07,3.07,0,0,1,2.088,2,7.719,7.719,0,0,1,.276,2.382,8.86,8.86,0,0,1-.3,2.749,2.832,2.832,0,0,1-2.493,1.9q-.221.037-1.886.065l-.561.018H30.015v3.246H26.631Zm3.383-6.162h2.109a3.762,3.762,0,0,0,1.222-.156.9.9,0,0,0,.4-.66,5.553,5.553,0,0,0,.064-.98,4.03,4.03,0,0,0-.128-1.183,1.01,1.01,0,0,0-.874-.66q-.137-.018-.656-.018H30.015v3.658ZM44.5,30.245H39.975l-.608,2.173h-3.5l3.777-12.57h5.1l3.824,12.57H45.144ZM43.827,27.8l-1.585-5.449L40.7,27.8h3.123ZM21.962,21.615a4.447,4.447,0,0,1,3.459,1.65L26.15,21.7a6.41,6.41,0,0,0-10.287,2.147H14.441l-.84,1.8h1.829c-.014.167-.023.334-.023.5a5.985,5.985,0,0,0,.031.612h-.92l-.84,1.8h2.226a6.344,6.344,0,0,0,5.838,3.781,6.409,6.409,0,0,0,3.565-1.073V29.066a4.451,4.451,0,0,1-7.079-.5h4.662l.84-1.8H17.546A4.508,4.508,0,0,1,17.5,26.1c0-.153.008-.3.023-.453h6.734l.84-1.8H18.1a4.459,4.459,0,0,1,3.861-2.233Z" transform="translate(-2.571 -19.847)" fill="#b7c0d5"/>
</svg>
