<svg xmlns="http://www.w3.org/2000/svg" width="18.719" height="16.317"><rect id="backgroundrect" width="100%" height="100%" x="0" y="0" fill="none" stroke="none"/>
  
<g class="currentLayer" style=""><title>Layer 1</title><path id="Icon_payment-ideal" data-name="Icon payment-ideal" d="M18.71800023651123,8.122999618530272 q0,4.45 -2.4,6.428 a8.32,8.32 0 0 1 -5.51,1.766 H2.365112301561112e-7 V-3.8146972514141453e-7 H10.807000236511229 a7.923,7.923 0 0 1 5.51,1.907 A6.1,6.1 0 0 1 18.08200023651123,4.449999618530274 a9.67,9.67 0 0 1 0.6360000000000001,3.673 zm-1.06,0 a6.932,6.932 0 0 0 -2.048,-5.439 a7.3,7.3 0 0 0 -5.015,-1.624 H1.0590002365112312 v14.2 h9.536 q7.062,0 7.064,-7.134 zM3.6020002365112305,5.014999618530272 a1.6880000000000002,1.6880000000000002 0 1 0 1.2,0.49400000000000005 a1.6380000000000001,1.6380000000000001 0 0 0 -1.2,-0.49400000000000005 zM2.0520002365112298,14.197999618530275 h3.037 V9.182999618530275 H2.0520002365112298 v5.015 zm12.5,-5.863 h2.119 q0,5.864 -6.569,5.863 h-3.6 V8.334999618530272 H6.8520002365112305 a1.47,1.47 0 0 0 0.5650000000000001,-0.07 a1.622,1.622 0 0 0 0.42400000000000004,-0.21200000000000002 a1.6630000000000003,1.6630000000000003 0 0 0 0.35300000000000004,-0.5650000000000001 a1.772,1.772 0 0 0 0.07,-0.6360000000000001 a2.265,2.265 0 0 0 -0.035,-0.35300000000000004 a2,2 0 0 1 -0.035,-0.28300000000000003 a1.937,1.937 0 0 0 -0.17700000000000002,-0.28300000000000003 a0.42900000000000005,0.42900000000000005 0 0 1 -0.10600000000000001,-0.21200000000000002 a0.779,0.779 0 0 0 -0.49400000000000005,-0.28300000000000003 a1.489,1.489 0 0 0 -0.5650000000000001,-0.07 h-0.35300000000000004 V2.4009996185302747 h3.6 q6.215,0 6.569,5.3 H15.32800023651123 V5.367999618530273 H14.55200023651123 v2.967 zM7.487000236511232,6.849999618530273 V7.349999618530273 l-0.14100000000000001,0.21200000000000002 c-0.09500000000000003,0.09500000000000003 -0.16600000000000004,0.14100000000000001 -0.21200000000000002,0.14100000000000001 h-0.6360000000000001 v-1.7000000000000002 h0.5650000000000001 a0.41000000000000003,0.41000000000000003 0 0 1 0.28300000000000003,0.14100000000000001 c0,0.04700000000000001 0.04600000000000001,0.11800000000000002 0.14100000000000001,0.21200000000000002 V6.849999618530273 zm3.6,0.8470000000000001 H9.46500023651123 v-0.5650000000000001 h1.413 v-0.6360000000000001 H9.46500023651123 v-0.49400000000000005 h1.554 v-0.6360000000000001 H8.75900023651123 v2.967 h2.331 v-0.6360000000000001 zm3.179,0.6360000000000001 l-1.13,-2.967 h-0.777 l-1.13,2.967 h0.777 l0.21200000000000002,-0.6360000000000001 h1.06 a4.2,4.2 0 0 0 0.21200000000000002,0.6360000000000001 zM12.502000236511229,7.062999618530274 l0.14100000000000001,-0.42400000000000004 a1.18,1.18 0 0 0 0.07,-0.35300000000000004 a2.244,2.244 0 0 1 0.28300000000000003,0.777 z" fill="#40527a" class="" fill-opacity="1"/></g></svg>