<svg xmlns="http://www.w3.org/2000/svg" width="37" height="37" viewBox="0 0 37 37">
  <g id="Group_6" data-name="Group 6" transform="translate(-554 -12)">
    <g id="Ellipse_1" data-name="Ellipse 1" transform="translate(554 12)" fill="none" stroke="#bad9f4" stroke-width="1">
      <circle cx="18.5" cy="18.5" r="18.5" stroke="none"/>
      <circle cx="18.5" cy="18.5" r="18" fill="none"/>
    </g>
    <path id="Icon_open-clock" data-name="Icon open-clock" d="M8.848,0A8.848,8.848,0,1,0,17.7,8.848,8.874,8.874,0,0,0,8.848,0Zm0,2.212A6.636,6.636,0,1,1,2.212,8.848,6.627,6.627,0,0,1,8.848,2.212ZM7.742,4.424V9.334l.354.288L9.2,10.728l.752.841,1.593-1.593-.841-.752-.752-.752v-4H7.742Z" transform="translate(563.4 21.304)" fill="#00a0ff"/>
  </g>
</svg>
