<svg xmlns="http://www.w3.org/2000/svg" width="46" height="12.571"><rect id="backgroundrect" width="100%" height="100%" x="0" y="0" fill="none" stroke="none"/>
  
<g class="currentLayer" style=""><title>Layer 1</title><path id="Icon_payment-sepa" data-name="Icon payment-sepa" d="M10.219999900817871,4.009999877929687 H7.071999900817872 a2.021,2.021 0 0 0 -0.18200000000000002,-1.04 q-0.281,-0.39100000000000007 -1.55,-0.39200000000000007 a3.821,3.821 0 0 0 -1.6320000000000001,0.22600000000000003 q-0.4,0.22700000000000004 -0.4,0.985 a0.98,0.98 0 0 0 0.35400000000000004,0.9 a1.472,1.472 0 0 0 0.6710000000000002,0.18100000000000002 l0.6350000000000001,0.04500000000000001 q2.041,0.135 2.549,0.19000000000000003 a3.891,3.891 0 0 1 2.34,0.8580000000000001 a2.275,2.275 0 0 1 0.6800000000000002,1.4180000000000001 a9.93,9.93 0 0 1 0.06300000000000001,1.184 a6.265,6.265 0 0 1 -0.29000000000000004,2.223 a2.873,2.873 0 0 1 -2.363,1.6350000000000002 a13.9,13.9 0 0 1 -2.354,0.14500000000000002 A14.52,14.52 0 0 1 1.9109999008178713,12.252999877929689 A2.4,2.4 0 0 1 0.22899990081787092,10.684999877929688 a7.432,7.432 0 0 1 -0.22700000000000004,-2.192 H3.146999900817871 c0,0.11400000000000002 0,0.2 0,0.262 q0,0.8190000000000001 0.47000000000000003,1.053 a1.851,1.851 0 0 0 0.787,0.171 H5.56199990081787 a4.179,4.179 0 0 0 1.13,-0.09100000000000003 a0.92,0.92 0 0 0 0.5700000000000001,-0.55 a2.1,2.1 0 0 0 0.07200000000000001,-0.6000000000000001 q0,-0.8300000000000001 -0.6050000000000001,-1.011 a18.868,18.868 0 0 0 -2.105,-0.2 q-1.509,-0.10800000000000001 -2.1,-0.20800000000000002 a2.8,2.8 0 0 1 -2.06,-1.191 a4.682,4.682 0 0 1 -0.452,-2.3200000000000003 a6,6 0 0 1 0.24400000000000002,-1.9 a2.073,2.073 0 0 1 0.788,-1.083 A3.987,3.987 0 0 1 3.082999900817871,0.1529998779296875 q1.032,-0.09000000000000002 2.29,-0.09100000000000003 a12.245,12.245 0 0 1 2.823,0.22600000000000003 q2.055,0.552 2.054,3.093 q0,0.20700000000000002 -0.031000000000000007,0.6230000000000001 zm13.841,8.561 V-1.2207031119260137e-7 h6.3 a7.037,7.037 0 0 1 1.978,0.21200000000000002 a3.07,3.07 0 0 1 2.088,2 a7.719,7.719 0 0 1 0.276,2.382 a8.86,8.86 0 0 1 -0.30000000000000004,2.749 a2.832,2.832 0 0 1 -2.493,1.9 q-0.22100000000000003,0.037000000000000005 -1.8860000000000001,0.06500000000000002 l-0.561,0.018000000000000002 H27.44399990081787 v3.246 H24.05999990081787 zm3.383,-6.162 h2.109 a3.762,3.762 0 0 0 1.222,-0.15600000000000003 a0.9,0.9 0 0 0 0.4,-0.6600000000000001 a5.553,5.553 0 0 0 0.06400000000000002,-0.98 a4.03,4.03 0 0 0 -0.128,-1.183 a1.01,1.01 0 0 0 -0.8740000000000001,-0.6600000000000001 q-0.137,-0.018000000000000002 -0.6560000000000001,-0.018000000000000002 H27.44399990081787 v3.6580000000000004 zM41.92899990081787,10.397999877929688 H37.40399990081787 l-0.6080000000000001,2.173 h-3.5 l3.777,-12.57 h5.1 l3.824,12.57 H42.57299990081787 zM41.25599990081787,7.952999877929688 l-1.585,-5.449 L38.128999900817874,7.952999877929688 h3.123 zM19.39099990081787,1.767999877929686 a4.447,4.447 0 0 1 3.459,1.6500000000000001 L23.57899990081787,1.8529998779296868 a6.41,6.41 0 0 0 -10.287,2.1470000000000002 H11.869999900817872 l-0.8400000000000001,1.8 h1.8290000000000002 c-0.014000000000000002,0.16700000000000004 -0.023000000000000007,0.3340000000000001 -0.023000000000000007,0.5 a5.985,5.985 0 0 0 0.031000000000000007,0.6120000000000001 h-0.92 l-0.8400000000000001,1.8 h2.226 a6.344,6.344 0 0 0 5.838,3.781 a6.409,6.409 0 0 0 3.565,-1.073 V9.218999877929686 a4.451,4.451 0 0 1 -7.079,-0.5 h4.662 l0.8400000000000001,-1.8 H14.97499990081787 A4.508,4.508 0 0 1 14.928999900817871,6.252999877929689 c0,-0.15300000000000002 0.008000000000000002,-0.30000000000000004 0.023000000000000007,-0.453 h6.734 l0.8400000000000001,-1.8 H15.528999900817873 a4.459,4.459 0 0 1 3.861,-2.233 z" fill="#40527a" class="" fill-opacity="1"/></g></svg>