<svg xmlns="http://www.w3.org/2000/svg" width="53" height="52" viewBox="0 0 53 52">
  <g id="Group_179" data-name="Group 179" transform="translate(0.198 -0.323)">
    <rect id="Rectangle_80" data-name="Rectangle 80" width="53" height="52" rx="8" transform="translate(-0.198 0.324)" fill="#0086e8"/>
    <path id="Icon_ionic-md-people" data-name="Icon ionic-md-people" d="M23.206,16.108a4.117,4.117,0,1,0-4.191-4.116A4.167,4.167,0,0,0,23.206,16.108Zm-11.176,0a4.117,4.117,0,1,0-4.191-4.116A4.167,4.167,0,0,0,12.029,16.108Zm0,3.019c-3.283,0-9.779,1.578-9.779,4.8v3.7H22.008v-3.7C22.008,20.7,15.312,19.126,12.029,19.126Zm11.176.755a7.456,7.456,0,0,0-1.2.068c1.607,1.166,2.2,1.921,2.2,3.979v3.7h8.781v-3.7C32.985,20.7,26.489,19.881,23.206,19.881Z" transform="translate(8.217 8.571)" fill="#fff"/>
  </g>
</svg>
