<svg xmlns="http://www.w3.org/2000/svg" width="37" height="37" viewBox="0 0 37 37">
  <g id="Group_5" data-name="Group 5" transform="translate(-554 -12)">
    <g id="Ellipse_1" data-name="Ellipse 1" transform="translate(554 12)" fill="none" stroke="#bad9f4" stroke-width="1">
      <circle cx="18.5" cy="18.5" r="18.5" stroke="none"/>
      <circle cx="18.5" cy="18.5" r="18" fill="none"/>
    </g>
    <path id="Icon_material-euro-symbol" data-name="Icon material-euro-symbol" d="M13.7,16.383A4.968,4.968,0,0,1,9.284,13.7H13.7V12.167H8.778a4.822,4.822,0,0,1,0-1.533H13.7V9.1H9.284a4.974,4.974,0,0,1,7.659-1.48L18.3,6.263A6.89,6.89,0,0,0,7.2,9.1H4.5v1.533H6.846a6.412,6.412,0,0,0,0,1.533H4.5V13.7H7.2a6.89,6.89,0,0,0,11.1,2.837L16.935,15.18A4.911,4.911,0,0,1,13.7,16.383Z" transform="translate(559.5 19.1)" fill="#00a0ff"/>
  </g>
</svg>
