<svg xmlns="http://www.w3.org/2000/svg" width="52" height="52" viewBox="0 0 52 52">
  <g id="Group_180" data-name="Group 180" transform="translate(-0.323 -0.323)">
    <rect id="Rectangle_80" data-name="Rectangle 80" width="52" height="52" rx="8" transform="translate(0.324 0.324)" fill="#0086e8"/>
    <path id="Icon_awesome-trophy" data-name="Icon awesome-trophy" d="M31.562,3.659H25.616V1.372A1.369,1.369,0,0,0,24.243,0H8.691A1.369,1.369,0,0,0,7.319,1.372V3.659H1.372A1.369,1.369,0,0,0,0,5.032v3.2c0,2.041,1.286,4.14,3.539,5.758a13.4,13.4,0,0,0,6.29,2.384,12.648,12.648,0,0,0,3.894,4.208V24.7H10.978c-2.018,0-3.659,1.184-3.659,3.2v.686A.688.688,0,0,0,8,29.275H24.929a.688.688,0,0,0,.686-.686V27.9c0-2.018-1.641-3.2-3.659-3.2H19.212V20.584a12.648,12.648,0,0,0,3.894-4.208,13.349,13.349,0,0,0,6.29-2.384c2.247-1.618,3.539-3.717,3.539-5.758v-3.2A1.369,1.369,0,0,0,31.562,3.659ZM5.678,11.024a4.206,4.206,0,0,1-2.018-2.79V7.319H7.33a20.536,20.536,0,0,0,.732,4.929A9.214,9.214,0,0,1,5.678,11.024Zm23.6-2.79c0,.921-1.012,2.064-2.018,2.79a9.25,9.25,0,0,1-2.39,1.224A20.536,20.536,0,0,0,25.6,7.319h3.677Z" transform="translate(10.53 12.584)" fill="#fff"/>
  </g>
</svg>
