<svg width="14" height="16" viewBox="0 0 14 16" fill="none" xmlns="http://www.w3.org/2000/svg">
<g clip-path="url(#clip0)">
<path d="M12.1 6.77503H11.374V4.60003C11.3943 3.98352 11.2905 3.36921 11.0686 2.79366C10.8467 2.21811 10.5113 1.69306 10.0824 1.24976C9.65344 0.806453 9.13974 0.453942 8.57181 0.213197C8.00389 -0.0275486 7.39334 -0.151611 6.7765 -0.151611C6.15966 -0.151611 5.54911 -0.0275486 4.98119 0.213197C4.41326 0.453942 3.89956 0.806453 3.47063 1.24976C3.04171 1.69306 2.70632 2.21811 2.48443 2.79366C2.26253 3.36921 2.15867 3.98352 2.179 4.60003V6.77503H1.452C1.06691 6.77503 0.697584 6.928 0.425281 7.20031C0.152978 7.47261 0 7.84193 0 8.22703L0 14.034C0 14.4191 0.152978 14.7884 0.425281 15.0607C0.697584 15.333 1.06691 15.486 1.452 15.486H12.1C12.4851 15.486 12.8544 15.333 13.1267 15.0607C13.399 14.7884 13.552 14.4191 13.552 14.034V8.22703C13.552 7.84193 13.399 7.47261 13.1267 7.20031C12.8544 6.928 12.4851 6.77503 12.1 6.77503ZM8.954 6.77503H4.6V4.60003C4.59379 4.31015 4.64552 4.02194 4.75216 3.75232C4.85879 3.48269 5.0182 3.23708 5.22101 3.02987C5.42382 2.82266 5.66597 2.65803 5.93325 2.54564C6.20053 2.43325 6.48755 2.37536 6.7775 2.37536C7.06745 2.37536 7.35447 2.43325 7.62175 2.54564C7.88903 2.65803 8.13118 2.82266 8.33399 3.02987C8.53681 3.23708 8.69621 3.48269 8.80284 3.75232C8.90948 4.02194 8.96121 4.31015 8.955 4.60003L8.954 6.77503Z" fill="#2DCB83"/>
</g>
<defs>
<clipPath id="clip0">
<rect width="13.55" height="15.486" fill="white"/>
</clipPath>
</defs>
</svg>
