<svg width="64" height="18" viewBox="0 0 64 18" fill="none" xmlns="http://www.w3.org/2000/svg">
<g clip-path="url(#clip0)">
<path d="M29.2319 4.23241H28.1846V7.78001H26.9747V4.23241H26.3083V3.64585L26.9747 3.3186V2.99134C26.9747 2.48316 27.0991 2.11214 27.3475 1.87803C27.5962 1.64391 27.9941 1.52686 28.5415 1.52686C28.9594 1.52686 29.3308 1.5892 29.6563 1.71415L29.347 2.60811C29.1036 2.531 28.8787 2.49258 28.6726 2.49258C28.5005 2.49258 28.3763 2.54373 28.2997 2.64603C28.223 2.74858 28.1846 2.87938 28.1846 3.03919V3.3186H29.2319V4.23241Z" fill="white"/>
<path d="M31.7034 4.17382C31.4469 4.17382 31.2458 4.25551 31.1006 4.41939C30.9548 4.58301 30.8716 4.81509 30.8506 5.11562H32.5483C32.543 4.81509 32.4648 4.58301 32.3143 4.41939C32.1635 4.25551 31.9599 4.17382 31.7034 4.17382ZM31.8741 7.93289C31.16 7.93289 30.602 7.73491 30.1995 7.33844C29.798 6.94197 29.5969 6.38061 29.5969 5.65434C29.5969 4.90696 29.7829 4.32905 30.1542 3.92062C30.5256 3.51194 31.0396 3.30811 31.6955 3.30811C32.3224 3.30811 32.8101 3.48751 33.1592 3.84657C33.5083 4.20588 33.6826 4.70185 33.6826 5.33523V5.92586H30.8228C30.8359 6.27169 30.9374 6.54169 31.1281 6.73585C31.3186 6.93001 31.5857 7.02722 31.9295 7.02722C32.1966 7.02722 32.4494 6.99948 32.6869 6.9435C32.9252 6.88751 33.1739 6.79845 33.4329 6.67605V7.61785C33.2214 7.72422 32.9953 7.80336 32.7547 7.85527C32.5139 7.90719 32.2204 7.93289 31.8741 7.93289Z" fill="white"/>
<path d="M36.5098 4.17382C36.2533 4.17382 36.0522 4.25551 35.9067 4.41939C35.7612 4.58301 35.678 4.81509 35.6568 5.11562H37.3547C37.3494 4.81509 37.2714 4.58301 37.1207 4.41939C36.9699 4.25551 36.766 4.17382 36.5098 4.17382ZM36.6803 7.93289C35.9661 7.93289 35.4081 7.73491 35.0061 7.33844C34.6042 6.94197 34.4033 6.38061 34.4033 5.65434C34.4033 4.90696 34.589 4.32905 34.9606 3.92062C35.3322 3.51194 35.8457 3.30811 36.5017 3.30811C37.1285 3.30811 37.6165 3.48751 37.9656 3.84657C38.3147 4.20588 38.4892 4.70185 38.4892 5.33523V5.92586H35.6289C35.6423 6.27169 35.7438 6.54169 35.9345 6.73585C36.1248 6.93001 36.3921 7.02722 36.7357 7.02722C37.003 7.02722 37.2555 6.99948 37.4936 6.9435C37.7316 6.88751 37.98 6.79845 38.2393 6.67605V7.61785C38.0276 7.72422 37.8017 7.80336 37.5611 7.85527C37.32 7.90719 37.0266 7.93289 36.6803 7.93289Z" fill="white"/>
<path d="M41.3081 6.84635C41.6177 6.84635 41.8444 6.75575 41.9885 6.57508C42.1322 6.39415 42.2114 6.087 42.2246 5.65313V5.52156C42.2246 5.04265 42.1512 4.69962 42.0045 4.49197C41.8578 4.28457 41.619 4.18075 41.2883 4.18075C41.0187 4.18075 40.809 4.29577 40.6595 4.52581C40.51 4.75586 40.4356 5.09049 40.4356 5.52945C40.4356 5.96842 40.5107 6.29771 40.6615 6.51706C40.8123 6.73642 41.0278 6.84635 41.3081 6.84635ZM40.8836 7.81589C40.3627 7.81589 39.9534 7.61256 39.6559 7.20541C39.3585 6.79825 39.2097 6.2346 39.2097 5.51368C39.2097 4.78207 39.361 4.21205 39.6638 3.80362C39.9666 3.39494 40.3837 3.19111 40.9155 3.19111C41.4735 3.19111 41.8992 3.40919 42.1927 3.84535H42.2327C42.1717 3.51276 42.1413 3.21604 42.1413 2.95546V1.52686H43.3553V7.73624H42.4269L42.1927 7.15782H42.1413C41.8661 7.59653 41.4469 7.81589 40.8836 7.81589Z" fill="white"/>
<path d="M46.8535 4.16472C46.5548 4.16472 46.3364 4.25709 46.1991 4.44209C46.0615 4.62684 45.9901 4.93246 45.9848 5.35768V5.4895C45.9848 5.96842 46.0554 6.31145 46.1968 6.5191C46.3385 6.72649 46.5626 6.83032 46.8694 6.83032C47.1181 6.83032 47.3157 6.71529 47.4621 6.48525C47.6094 6.25521 47.6827 5.92032 47.6827 5.48161C47.6827 5.04265 47.6086 4.71336 47.4606 4.494C47.3124 4.27439 47.11 4.16472 46.8535 4.16472ZM47.2423 3.19111C47.766 3.19111 48.1758 3.39646 48.472 3.80769C48.7682 4.21867 48.9164 4.78207 48.9164 5.49739C48.9164 6.2346 48.7634 6.80512 48.4581 7.20948C48.1527 7.61409 47.7369 7.81589 47.2104 7.81589C46.6896 7.81589 46.281 7.6258 45.9848 7.24536H45.9016L45.6992 7.73624H44.7749V1.52686H45.9848V2.9715C45.9848 3.15497 45.9689 3.44889 45.9373 3.85324H45.9848C46.2676 3.41173 46.6871 3.19111 47.2423 3.19111Z" fill="white"/>
<path d="M52.3343 5.7943L51.8663 5.81008C51.5145 5.82077 51.2526 5.88464 51.0809 6.0017C50.9089 6.11875 50.8231 6.29714 50.8231 6.5366C50.8231 6.87988 51.0186 7.05114 51.4102 7.05114C51.69 7.05114 51.9146 6.97022 52.0826 6.80787C52.2503 6.64577 52.3343 6.43023 52.3343 6.16125V5.7943ZM52.6913 7.86138L52.4575 7.25472H52.4256C52.222 7.51301 52.0123 7.6919 51.7968 7.79166C51.5812 7.89115 51.3002 7.94103 50.9539 7.94103C50.5281 7.94103 50.1927 7.81888 49.9484 7.57408C49.7035 7.32928 49.5813 6.98091 49.5813 6.52871C49.5813 6.05488 49.746 5.70574 50.0753 5.48105C50.4044 5.25635 50.901 5.13191 51.5648 5.10799L52.3343 5.08381V4.88863C52.3343 4.43618 52.1044 4.21021 51.6442 4.21021C51.2893 4.21021 50.8732 4.3176 50.3946 4.53314L49.9939 3.71094C50.5039 3.44247 51.0702 3.30811 51.6918 3.30811C52.2868 3.30811 52.7431 3.4384 53.0603 3.69923C53.3778 3.95981 53.5364 4.35653 53.5364 4.88863V7.86138H52.6913Z" fill="white"/>
<path d="M56.4585 7.93289C55.0778 7.93289 54.3877 7.17074 54.3877 5.64645C54.3877 4.88838 54.5754 4.30895 54.9508 3.90841C55.3265 3.50812 55.8648 3.30811 56.5655 3.30811C57.0785 3.30811 57.5386 3.40913 57.9459 3.61118L57.5887 4.55298C57.3985 4.47588 57.2214 4.41277 57.0572 4.3634C56.8933 4.31429 56.7291 4.28961 56.5655 4.28961C55.9361 4.28961 55.6214 4.73926 55.6214 5.63856C55.6214 6.51115 55.9361 6.94732 56.5655 6.94732C56.798 6.94732 57.0137 6.91602 57.2121 6.85342C57.4104 6.79107 57.6087 6.69335 57.807 6.56026V7.60182C57.6112 7.72702 57.4137 7.81329 57.2141 7.86113C57.014 7.90922 56.7625 7.93289 56.4585 7.93289Z" fill="white"/>
<path d="M60.103 5.3101L60.6305 4.63167L61.8725 3.27483H63.2373L61.4759 5.21009L63.3443 7.73624H61.9479L60.6707 5.92872L60.1509 6.34758V7.73624H58.9409V1.52686H60.1509V4.29628L60.0874 5.3101H60.103Z" fill="white"/>
<path d="M28.541 15.7302C27.9114 15.7302 27.4241 15.5353 27.0791 15.1457C26.7338 14.7558 26.5613 14.2046 26.5613 13.4914C26.5613 12.76 26.7366 12.1946 27.0869 11.7956C27.4373 11.3963 27.9361 11.1968 28.5845 11.1968C28.7934 11.1968 29.0024 11.2194 29.2113 11.2647C29.42 11.31 29.5842 11.3632 29.7031 11.4243L29.5007 11.9869C29.3553 11.9284 29.1967 11.88 29.0249 11.8411C28.8529 11.8027 28.7006 11.7836 28.5686 11.7836C27.6852 11.7836 27.2435 12.35 27.2435 13.4835C27.2435 14.0209 27.3513 14.4332 27.5671 14.7205C27.7826 15.008 28.1018 15.1515 28.525 15.1515C28.8873 15.1515 29.2589 15.0732 29.6396 14.9159V15.5027C29.3487 15.6544 28.9824 15.7302 28.541 15.7302Z" fill="white"/>
<path d="M31.0385 13.4595C31.0385 14.0181 31.1498 14.4438 31.3719 14.7365C31.594 15.0291 31.9205 15.1755 32.3516 15.1755C32.7827 15.1755 33.11 15.0299 33.3336 14.7385C33.557 14.4472 33.6688 14.0209 33.6688 13.4595C33.6688 12.9035 33.557 12.4811 33.3336 12.1923C33.11 11.904 32.7801 11.7594 32.3438 11.7594C31.9127 11.7594 31.5874 11.9019 31.3678 12.1864C31.1482 12.4712 31.0385 12.8954 31.0385 13.4595ZM34.351 13.4595C34.351 14.1726 34.1724 14.7291 33.8155 15.1294C33.4586 15.5302 32.9648 15.7302 32.3359 15.7302C31.9471 15.7302 31.6018 15.6383 31.3003 15.4549C30.999 15.2711 30.7663 15.008 30.6023 14.6647C30.4382 14.3217 30.356 13.9196 30.356 13.4595C30.356 12.7465 30.5335 12.191 30.8879 11.7935C31.2421 11.3958 31.7341 11.1968 32.3632 11.1968C32.9719 11.1968 33.455 11.4004 33.8135 11.8075C34.1714 12.2144 34.351 12.7651 34.351 13.4595Z" fill="white"/>
<path d="M41.2102 15.6503V12.805C41.2102 12.4564 41.1361 12.1951 40.9881 12.021C40.8398 11.8467 40.6099 11.7594 40.2977 11.7594C39.8879 11.7594 39.5849 11.878 39.3893 12.1147C39.1933 12.3513 39.0957 12.716 39.0957 13.2081V15.6503H38.4372V12.805C38.4372 12.4564 38.3631 12.1951 38.2151 12.021C38.0668 11.8467 37.8356 11.7594 37.5209 11.7594C37.1084 11.7594 36.8061 11.8839 36.6143 12.1327C36.4226 12.3816 36.3264 12.789 36.3264 13.3557V15.6503H35.668V11.2767H36.2038L36.3108 11.8752H36.3426C36.4671 11.6622 36.6421 11.496 36.8683 11.3764C37.0944 11.2568 37.3477 11.1968 37.6277 11.1968C38.3077 11.1968 38.7519 11.4444 38.9608 11.9391H38.9927C39.1222 11.7103 39.3099 11.5294 39.5561 11.3963C39.8019 11.2634 40.0822 11.1968 40.3969 11.1968C40.8889 11.1968 41.257 11.3238 41.5016 11.5777C41.7462 11.8319 41.8687 12.2383 41.8687 12.7969V15.6503H41.2102Z" fill="white"/>
<path d="M45.1852 11.7594C44.7407 11.7594 44.4195 11.8833 44.2211 12.1307C44.0228 12.378 43.9206 12.772 43.9155 13.312V13.4595C43.9155 14.0741 44.0175 14.5136 44.2211 14.7782C44.4248 15.0431 44.7513 15.1755 45.2009 15.1755C45.5765 15.1755 45.8707 15.0225 46.0837 14.7164C46.2965 14.4105 46.403 13.9888 46.403 13.4517C46.403 12.9061 46.2965 12.4877 46.0837 12.1966C45.8707 11.905 45.5712 11.7594 45.1852 11.7594ZM45.2803 15.7302C44.9972 15.7302 44.7384 15.6778 44.5047 15.5727C44.2707 15.4673 44.0742 15.306 43.9155 15.0877H43.868C43.8996 15.3432 43.9155 15.5852 43.9155 15.8139V17.6138H43.2571V11.2767H43.7926L43.8839 11.8752H43.9155C44.0848 11.6357 44.2818 11.463 44.5067 11.3563C44.7316 11.25 44.9894 11.1968 45.2803 11.1968C45.8568 11.1968 46.3018 11.3953 46.6152 11.7915C46.9286 12.1879 47.0852 12.7437 47.0852 13.4595C47.0852 14.1777 46.9258 14.7357 46.6074 15.1335C46.2886 15.5312 45.8462 15.7302 45.2803 15.7302Z" fill="white"/>
<path d="M49.3223 15.1752C49.7321 15.1752 50.0541 15.0622 50.2881 14.836C50.5223 14.61 50.6392 14.2932 50.6392 13.8863V13.4914L49.9807 13.5191C49.4571 13.5379 49.0797 13.6196 48.8482 13.7647C48.6167 13.9097 48.5011 14.1349 48.5011 14.441C48.5011 14.6805 48.573 14.8627 48.7172 14.9876C48.8614 15.1129 49.063 15.1752 49.3223 15.1752ZM50.8097 15.6422L50.6789 15.0197H50.647C50.4303 15.2938 50.214 15.4793 49.9984 15.5762C49.7829 15.6735 49.514 15.7221 49.1915 15.7221C48.7602 15.7221 48.422 15.6103 48.1779 15.3867C47.933 15.1632 47.8105 14.8454 47.8105 14.4329C47.8105 13.5499 48.513 13.0867 49.9172 13.0442L50.6551 13.0203V12.7491C50.6551 12.4058 50.5818 12.1523 50.4348 11.9889C50.2881 11.8251 50.0533 11.7434 49.7308 11.7434C49.3686 11.7434 48.9585 11.8551 48.5011 12.0785L48.2988 11.5719C48.513 11.4548 48.7478 11.3629 49.0025 11.2965C49.258 11.2299 49.514 11.1968 49.7705 11.1968C50.2888 11.1968 50.6728 11.3126 50.9228 11.5439C51.1727 11.7754 51.2977 12.1465 51.2977 12.6572V15.6422H50.8097Z" fill="white"/>
<path d="M55.5918 15.6503V12.8211C55.5918 12.4646 55.5111 12.1986 55.35 12.0228C55.1886 11.8472 54.9359 11.7594 54.5924 11.7594C54.1373 11.7594 53.8041 11.8833 53.5924 12.1307C53.3809 12.378 53.2749 12.7865 53.2749 13.3557V15.6503H52.6167V11.2767H53.1522L53.2592 11.8752H53.2909C53.4259 11.6599 53.6149 11.4927 53.8583 11.3747C54.1016 11.2561 54.3725 11.1968 54.6713 11.1968C55.1952 11.1968 55.589 11.3238 55.8536 11.5777C56.118 11.8319 56.2503 12.2383 56.2503 12.7969V15.6503H55.5918Z" fill="white"/>
<path d="M56.9172 11.4512H57.6235L58.5757 13.9453C58.7844 14.5148 58.9139 14.9257 58.9642 15.1784H58.9961C59.0303 15.0428 59.1026 14.8107 59.2124 14.4819C59.3219 14.1534 59.6809 13.1432 60.2893 11.4512H60.9953L59.1269 16.4314C58.9417 16.9236 58.7257 17.2727 58.4783 17.4789C58.2311 17.6852 57.9273 17.7883 57.5679 17.7883C57.367 17.7883 57.1684 17.7656 56.9729 17.7204V17.1898C57.1183 17.2216 57.281 17.2376 57.4609 17.2376C57.9132 17.2376 58.2357 16.9821 58.4285 16.4711L58.6708 15.8487L56.9172 11.4512Z" fill="white"/>
<path d="M7.17713 7.63417C7.48778 7.63417 7.73948 7.88737 7.73948 8.19961C7.73948 8.5121 7.48778 8.7653 7.17713 8.7653H6.24015C5.93002 8.7653 5.67806 9.01901 5.67806 9.33074V16.3567L7.30817 15.2694C7.40025 15.2078 7.50827 15.175 7.61881 15.175H11.4877C11.7975 15.175 12.0498 14.9212 12.0498 14.6095V11.8772C12.0498 11.565 12.3015 11.3116 12.6118 11.3116C12.9225 11.3116 13.1742 11.565 13.1742 11.8772V14.6095C13.1742 15.545 12.4176 16.3061 11.4877 16.3061H7.7883L5.42661 17.882C5.33276 17.9444 5.22424 17.9762 5.11572 17.9762C5.0244 17.9762 4.93308 17.9538 4.84985 17.909C4.66746 17.8103 4.55338 17.6189 4.55338 17.4105V9.33074C4.55338 8.3953 5.31025 7.63417 6.24015 7.63417H7.17713ZM7.14551 2.7992C7.43946 2.7992 7.7076 3.01194 7.73669 3.30611C7.77059 3.64481 7.507 3.93033 7.17764 3.93033H1.68652C1.37613 3.93033 1.12468 4.18353 1.12468 4.49576V11.5217L2.21016 10.7975C2.49677 10.6062 2.88532 10.7163 3.03078 11.0299C3.14815 11.2836 3.06341 11.5854 2.83169 11.7401L0.873237 13.0468C0.779386 13.1094 0.670864 13.141 0.562342 13.141C0.471022 13.141 0.379954 13.1188 0.296475 13.0738C0.114087 12.9753 0 12.7837 0 12.5755V4.49576C0 3.5588 0.755355 2.7992 1.68652 2.7992H7.14551ZM17.2601 0C18.1902 0 18.9469 0.761127 18.9469 1.69657V10.9637C18.9469 11.1721 18.833 11.3635 18.6506 11.4619C18.5669 11.507 18.4758 11.5294 18.3845 11.5294C18.276 11.5294 18.1677 11.4976 18.0739 11.435L15.3894 9.644H11.0462C10.1166 9.644 9.35972 8.88287 9.35972 7.94717V1.69657C9.35972 0.761127 10.1166 0 11.0462 0H17.2601ZM17.2601 1.13113H11.0462C10.7366 1.13113 10.4844 1.38484 10.4844 1.69657V7.94717C10.4844 8.25916 10.7366 8.51287 11.0462 8.51287H15.5589C15.6694 8.51287 15.7775 8.54569 15.8695 8.60728L17.8224 9.90992V1.69657C17.8224 1.38484 17.5702 1.13113 17.2601 1.13113Z" fill="white"/>
</g>
<defs>
<clipPath id="clip0">
<rect width="63.36" height="18" fill="white"/>
</clipPath>
</defs>
</svg>
