<svg width="717" height="177" viewBox="0 0 717 177" fill="none" xmlns="http://www.w3.org/2000/svg">
<g filter="url(#filter0_d)">
<path d="M277.368 41.751C277.222 41.459 276.93 41.167 276.565 41.167C275.543 41.167 272.55 43.576 267.294 43.576C260.432 43.576 259.264 38.539 259.264 34.451H278.901C280.288 34.451 280.58 34.013 280.58 32.626C280.58 23.793 278.39 12.697 265.98 12.697C256.198 12.697 249.993 20.727 249.993 32.334C249.993 45.766 256.709 51.241 266.345 51.241C272.112 51.241 279.412 48.832 279.412 46.934C279.412 46.642 279.339 46.35 279.193 46.131L277.368 41.751ZM259.264 27.662C259.483 25.618 259.775 19.486 265.469 19.486C270.506 19.486 270.725 24.669 270.725 27.662H259.264ZM307.444 28.684C307.444 27.37 307.225 27.151 305.911 27.151H288.099C286.785 27.151 286.566 27.37 286.566 28.684V34.013C286.566 35.327 286.785 35.546 288.099 35.546H305.911C307.225 35.546 307.444 35.327 307.444 34.013V28.684ZM337.894 41.824C337.748 41.605 337.602 41.459 337.383 41.459C336.069 41.459 334.609 43.941 330.886 43.941C325.265 43.941 323.367 40.218 323.367 32.188C323.367 23.793 325.557 19.997 330.521 19.997C334.317 19.997 336.726 22.917 337.456 22.917C337.675 22.917 337.821 22.698 337.967 22.552L340.668 17.807C340.741 17.588 340.887 17.369 340.887 17.15C340.887 14.887 334.463 12.697 330.521 12.697C319.717 12.697 313.512 20.362 313.512 32.699C313.512 45.036 319.571 51.241 329.718 51.241C334.098 51.241 340.011 49.124 340.011 47.372C340.011 47.153 339.865 46.861 339.792 46.642L337.894 41.824ZM360.508 43.941C355.398 43.941 354.522 38.758 354.522 31.969C354.522 25.18 355.471 19.997 360.508 19.997C365.545 19.997 366.494 25.18 366.494 31.969C366.494 38.831 365.618 43.941 360.508 43.941ZM376.349 31.969C376.349 20.216 370.29 12.697 360.508 12.697C350.653 12.697 344.667 20.216 344.667 31.969C344.667 43.722 350.653 51.241 360.508 51.241C370.363 51.241 376.349 43.722 376.349 31.969ZM431.504 24.231C431.504 17.88 429.898 12.697 423.036 12.697C417.05 12.697 413.911 15.836 411.721 17.734C410.845 14.668 407.414 12.697 404.275 12.697C398.508 12.697 395.296 15.836 393.106 17.734C392.303 14.303 391.719 12.697 390.77 12.697C390.478 12.697 390.113 12.77 389.675 12.916L384.127 14.741C383.616 14.887 383.324 15.179 383.324 15.544C383.324 17.223 384.711 16.639 384.711 26.932V48.978C384.711 49.781 384.857 50 385.733 50H392.96C393.836 50 393.982 49.781 393.982 48.978V23.355C394.931 22.479 397.34 20.362 400.406 20.362C403.18 20.362 403.472 23.72 403.472 26.494V48.978C403.472 49.781 403.618 50 404.494 50H411.721C412.597 50 412.743 49.781 412.743 48.978V23.355C413.692 22.479 416.101 20.362 419.167 20.362C421.941 20.362 422.233 23.72 422.233 26.494V48.978C422.233 49.781 422.379 50 423.255 50H430.482C431.358 50 431.504 49.781 431.504 48.978V24.231ZM488.321 24.231C488.321 17.88 486.715 12.697 479.853 12.697C473.867 12.697 470.728 15.836 468.538 17.734C467.662 14.668 464.231 12.697 461.092 12.697C455.325 12.697 452.113 15.836 449.923 17.734C449.12 14.303 448.536 12.697 447.587 12.697C447.295 12.697 446.93 12.77 446.492 12.916L440.944 14.741C440.433 14.887 440.141 15.179 440.141 15.544C440.141 17.223 441.528 16.639 441.528 26.932V48.978C441.528 49.781 441.674 50 442.55 50H449.777C450.653 50 450.799 49.781 450.799 48.978V23.355C451.748 22.479 454.157 20.362 457.223 20.362C459.997 20.362 460.289 23.72 460.289 26.494V48.978C460.289 49.781 460.435 50 461.311 50H468.538C469.414 50 469.56 49.781 469.56 48.978V23.355C470.509 22.479 472.918 20.362 475.984 20.362C478.758 20.362 479.05 23.72 479.05 26.494V48.978C479.05 49.781 479.196 50 480.072 50H487.299C488.175 50 488.321 49.781 488.321 48.978V24.231ZM523.458 41.751C523.312 41.459 523.02 41.167 522.655 41.167C521.633 41.167 518.64 43.576 513.384 43.576C506.522 43.576 505.354 38.539 505.354 34.451H524.991C526.378 34.451 526.67 34.013 526.67 32.626C526.67 23.793 524.48 12.697 512.07 12.697C502.288 12.697 496.083 20.727 496.083 32.334C496.083 45.766 502.799 51.241 512.435 51.241C518.202 51.241 525.502 48.832 525.502 46.934C525.502 46.642 525.429 46.35 525.283 46.131L523.458 41.751ZM505.354 27.662C505.573 25.618 505.865 19.486 511.559 19.486C516.596 19.486 516.815 24.669 516.815 27.662H505.354ZM543.971 24.596C544.92 23.574 547.256 21.092 549.519 21.092C551.198 21.092 552.512 21.895 552.95 21.895C553.242 21.895 553.461 21.457 553.534 21.238L555.797 15.106C555.87 14.96 555.943 14.668 555.943 14.376C555.943 13.427 553.826 12.697 551.709 12.697C546.745 12.697 544.044 16.785 542.657 18.464C542.292 15.982 540.832 12.697 539.956 12.697C539.664 12.697 539.299 12.916 539.007 12.989L533.459 15.252C533.094 15.398 532.802 15.617 532.802 15.909C532.802 17.588 534.7 18.902 534.7 26.932V48.978C534.7 49.781 534.846 50 535.722 50H542.949C543.825 50 543.971 49.781 543.971 48.978V24.596ZM581.346 41.824C581.2 41.605 581.054 41.459 580.835 41.459C579.521 41.459 578.061 43.941 574.338 43.941C568.717 43.941 566.819 40.218 566.819 32.188C566.819 23.793 569.009 19.997 573.973 19.997C577.769 19.997 580.178 22.917 580.908 22.917C581.127 22.917 581.273 22.698 581.419 22.552L584.12 17.807C584.193 17.588 584.339 17.369 584.339 17.15C584.339 14.887 577.915 12.697 573.973 12.697C563.169 12.697 556.964 20.362 556.964 32.699C556.964 45.036 563.023 51.241 573.17 51.241C577.55 51.241 583.463 49.124 583.463 47.372C583.463 47.153 583.317 46.861 583.244 46.642L581.346 41.824ZM615.421 41.751C615.275 41.459 614.983 41.167 614.618 41.167C613.596 41.167 610.603 43.576 605.347 43.576C598.485 43.576 597.317 38.539 597.317 34.451H616.954C618.341 34.451 618.633 34.013 618.633 32.626C618.633 23.793 616.443 12.697 604.033 12.697C594.251 12.697 588.046 20.727 588.046 32.334C588.046 45.766 594.762 51.241 604.398 51.241C610.165 51.241 617.465 48.832 617.465 46.934C617.465 46.642 617.392 46.35 617.246 46.131L615.421 41.751ZM597.317 27.662C597.536 25.618 597.828 19.486 603.522 19.486C608.559 19.486 608.778 24.669 608.778 27.662H597.317ZM299.049 85.231C299.049 78.88 297.443 73.697 290.581 73.697C284.595 73.697 281.456 76.836 279.266 78.734C278.39 75.668 274.959 73.697 271.82 73.697C266.053 73.697 262.841 76.836 260.651 78.734C259.848 75.303 259.264 73.697 258.315 73.697C258.023 73.697 257.658 73.77 257.22 73.916L251.672 75.741C251.161 75.887 250.869 76.179 250.869 76.544C250.869 78.223 252.256 77.639 252.256 87.932V109.978C252.256 110.781 252.402 111 253.278 111H260.505C261.381 111 261.527 110.781 261.527 109.978V84.355C262.476 83.479 264.885 81.362 267.951 81.362C270.725 81.362 271.017 84.72 271.017 87.494V109.978C271.017 110.781 271.163 111 272.039 111H279.266C280.142 111 280.288 110.781 280.288 109.978V84.355C281.237 83.479 283.646 81.362 286.712 81.362C289.486 81.362 289.778 84.72 289.778 87.494V109.978C289.778 110.781 289.924 111 290.8 111H298.027C298.903 111 299.049 110.781 299.049 109.978V85.231ZM320.899 75.96C320.899 75.157 320.753 74.938 319.877 74.938H306.007C305.131 74.938 304.985 75.157 304.985 75.96V80.705C304.985 81.508 305.131 81.727 306.007 81.727H311.628V109.978C311.628 110.781 311.774 111 312.65 111H319.877C320.753 111 320.899 110.781 320.899 109.978V75.96ZM322.213 64.134C322.213 60.776 319.512 58.148 316.227 58.148C312.869 58.148 310.168 60.776 310.168 64.134C310.168 67.492 312.869 70.193 316.227 70.193C319.512 70.193 322.213 67.492 322.213 64.134ZM346.335 103.627C346.262 103.335 346.043 103.189 345.751 103.189C345.313 103.189 344.364 103.846 342.904 103.846C340.86 103.846 340.86 101.802 340.86 99.466V59.681C340.86 58.44 340.714 58.148 340.13 58.148C339.984 58.148 339.327 58.367 339.108 58.367L332.976 59.608C332.1 59.827 331.589 59.827 331.589 60.922V98.152C331.589 104.868 331.589 112.241 340.568 112.241C344.072 112.241 347.941 111.219 347.941 110.197C347.941 109.978 347.868 109.978 347.795 109.613L346.335 103.627ZM367.935 103.627C367.862 103.335 367.643 103.189 367.351 103.189C366.913 103.189 365.964 103.846 364.504 103.846C362.46 103.846 362.46 101.802 362.46 99.466V59.681C362.46 58.44 362.314 58.148 361.73 58.148C361.584 58.148 360.927 58.367 360.708 58.367L354.576 59.608C353.7 59.827 353.189 59.827 353.189 60.922V98.152C353.189 104.868 353.189 112.241 362.168 112.241C365.672 112.241 369.541 111.219 369.541 110.197C369.541 109.978 369.468 109.978 369.395 109.613L367.935 103.627ZM387.127 75.96C387.127 75.157 386.981 74.938 386.105 74.938H372.235C371.359 74.938 371.213 75.157 371.213 75.96V80.705C371.213 81.508 371.359 81.727 372.235 81.727H377.856V109.978C377.856 110.781 378.002 111 378.878 111H386.105C386.981 111 387.127 110.781 387.127 109.978V75.96ZM388.441 64.134C388.441 60.776 385.74 58.148 382.455 58.148C379.097 58.148 376.396 60.776 376.396 64.134C376.396 67.492 379.097 70.193 382.455 70.193C385.74 70.193 388.441 67.492 388.441 64.134ZM411.978 104.941C406.868 104.941 405.992 99.758 405.992 92.969C405.992 86.18 406.941 80.997 411.978 80.997C417.015 80.997 417.964 86.18 417.964 92.969C417.964 99.831 417.088 104.941 411.978 104.941ZM427.819 92.969C427.819 81.216 421.76 73.697 411.978 73.697C402.123 73.697 396.137 81.216 396.137 92.969C396.137 104.722 402.123 112.241 411.978 112.241C421.833 112.241 427.819 104.722 427.819 92.969ZM465.017 84.355C465.017 75.522 459.542 73.697 455.527 73.697C449.76 73.697 446.475 76.836 444.358 78.734C443.555 75.303 442.971 73.697 442.022 73.697C441.73 73.697 441.365 73.77 440.927 73.916L435.379 75.741C434.868 75.887 434.576 76.179 434.576 76.544C434.576 78.223 435.963 77.639 435.963 87.932V109.978C435.963 110.781 436.109 111 436.985 111H444.212C445.088 111 445.234 110.781 445.234 109.978V84.355C446.183 83.479 448.592 81.362 451.658 81.362C455.381 81.362 455.746 84.72 455.746 87.494V109.978C455.746 110.781 455.892 111 456.768 111H463.995C464.871 111 465.017 110.781 465.017 109.978V84.355ZM501.744 109.686C502.109 109.54 502.401 109.321 502.401 109.029C502.401 107.569 500.503 106.62 500.503 99.539V85.45C500.503 77.858 497.072 73.697 487.947 73.697C482.326 73.697 475.099 75.449 475.099 77.128C475.099 77.42 475.172 77.712 475.318 78.004L476.778 82.457C476.851 82.749 477.143 83.187 477.508 83.187C478.457 83.187 482.472 80.997 486.56 80.997C491.159 80.997 491.743 83.114 491.743 86.399V88.662C485.976 88.662 472.69 88.662 472.69 100.999C472.69 107.861 476.924 112.241 483.64 112.241C489.115 112.241 491.67 109.321 493.13 107.861C493.495 109.686 494.59 112.241 495.247 112.241C495.539 112.241 495.904 112.022 496.196 111.949L501.744 109.686ZM491.743 102.678C490.867 103.554 488.969 105.452 486.268 105.452C483.494 105.452 481.45 103.335 481.45 100.488C481.45 94.064 489.918 94.648 491.743 94.648V102.678ZM522.362 75.96C522.362 75.157 522.216 74.938 521.34 74.938H507.47C506.594 74.938 506.448 75.157 506.448 75.96V80.705C506.448 81.508 506.594 81.727 507.47 81.727H513.091V109.978C513.091 110.781 513.237 111 514.113 111H521.34C522.216 111 522.362 110.781 522.362 109.978V75.96ZM523.676 64.134C523.676 60.776 520.975 58.148 517.69 58.148C514.332 58.148 511.631 60.776 511.631 64.134C511.631 67.492 514.332 70.193 517.69 70.193C520.975 70.193 523.676 67.492 523.676 64.134ZM542.688 85.596C543.637 84.574 545.973 82.092 548.236 82.092C549.915 82.092 551.229 82.895 551.667 82.895C551.959 82.895 552.178 82.457 552.251 82.238L554.514 76.106C554.587 75.96 554.66 75.668 554.66 75.376C554.66 74.427 552.543 73.697 550.426 73.697C545.462 73.697 542.761 77.785 541.374 79.464C541.009 76.982 539.549 73.697 538.673 73.697C538.381 73.697 538.016 73.916 537.724 73.989L532.176 76.252C531.811 76.398 531.519 76.617 531.519 76.909C531.519 78.588 533.417 79.902 533.417 87.932V109.978C533.417 110.781 533.563 111 534.439 111H541.666C542.542 111 542.688 110.781 542.688 109.978V85.596ZM583.056 102.751C582.91 102.459 582.618 102.167 582.253 102.167C581.231 102.167 578.238 104.576 572.982 104.576C566.12 104.576 564.952 99.539 564.952 95.451H584.589C585.976 95.451 586.268 95.013 586.268 93.626C586.268 84.793 584.078 73.697 571.668 73.697C561.886 73.697 555.681 81.727 555.681 93.334C555.681 106.766 562.397 112.241 572.033 112.241C577.8 112.241 585.1 109.832 585.1 107.934C585.1 107.642 585.027 107.35 584.881 107.131L583.056 102.751ZM564.952 88.662C565.171 86.618 565.463 80.486 571.157 80.486C576.194 80.486 576.413 85.669 576.413 88.662H564.952ZM616.709 78.223C616.855 77.931 617.074 77.493 617.074 77.274C617.074 75.595 610.139 73.697 605.686 73.697C597.802 73.697 592.765 78.953 592.765 85.596C592.765 89.83 594.882 92.385 597.072 93.845C601.89 97.057 609.044 97.057 609.044 101.291C609.044 103.919 607 104.941 604.591 104.941C600.065 104.941 594.444 101.729 594.152 101.729C593.86 101.729 593.714 102.021 593.568 102.386L591.962 106.547C591.889 106.839 591.596 107.277 591.596 107.496C591.596 109.467 599.918 112.241 605.321 112.241C613.059 112.241 617.804 107.204 617.804 100.488C617.804 96.254 615.76 93.48 612.913 91.582C607.73 88.151 601.16 88.443 601.16 84.501C601.16 82.019 603.204 80.997 605.978 80.997C610.649 80.997 614.227 82.895 614.446 82.895C614.519 82.895 614.884 82.603 615.03 82.238L616.709 78.223ZM623.293 108.963C623.293 108.292 623.489 107.732 623.881 107.284C624.287 106.836 624.889 106.612 625.687 106.612C626.484 106.612 627.086 106.836 627.492 107.284C627.912 107.732 628.122 108.292 628.122 108.963C628.122 109.607 627.912 110.146 627.492 110.58C627.086 111.014 626.484 111.231 625.687 111.231C624.889 111.231 624.287 111.014 623.881 110.58C623.489 110.146 623.293 109.607 623.293 108.963ZM643.659 108.25C645.045 108.25 646.256 107.83 647.292 106.99C648.327 106.15 648.901 105.1 649.013 103.84H652.688C652.618 105.142 652.17 106.381 651.344 107.557C650.518 108.732 649.412 109.67 648.026 110.37C646.655 111.07 645.199 111.42 643.659 111.42C640.566 111.42 638.102 110.391 636.269 108.333C634.449 106.262 633.539 103.434 633.539 99.8511V99.2002C633.539 96.9886 633.945 95.022 634.757 93.3003C635.569 91.5786 636.73 90.2419 638.242 89.29C639.768 88.3382 641.567 87.8623 643.638 87.8623C646.186 87.8623 648.299 88.6252 649.979 90.1509C651.673 91.6766 652.576 93.6572 652.688 96.0928H649.013C648.901 94.623 648.341 93.4193 647.333 92.4814C646.34 91.5296 645.108 91.0537 643.638 91.0537C641.665 91.0537 640.132 91.7676 639.04 93.1953C637.962 94.609 637.423 96.6597 637.423 99.3472V100.082C637.423 102.7 637.962 104.715 639.04 106.129C640.118 107.543 641.658 108.25 643.659 108.25ZM656.026 99.4312C656.026 97.2056 656.46 95.2039 657.328 93.4263C658.209 91.6486 659.427 90.2769 660.981 89.311C662.549 88.3452 664.333 87.8623 666.335 87.8623C669.428 87.8623 671.927 88.9331 673.831 91.0747C675.748 93.2163 676.707 96.0648 676.707 99.6201V99.8931C676.707 102.105 676.28 104.092 675.426 105.856C674.586 107.606 673.376 108.97 671.794 109.95C670.226 110.93 668.421 111.42 666.377 111.42C663.298 111.42 660.799 110.349 658.881 108.208C656.978 106.066 656.026 103.231 656.026 99.7041V99.4312ZM659.931 99.8931C659.931 102.413 660.512 104.435 661.674 105.961C662.85 107.487 664.417 108.25 666.377 108.25C668.351 108.25 669.918 107.48 671.08 105.94C672.242 104.386 672.823 102.217 672.823 99.4312C672.823 96.9396 672.228 94.924 671.038 93.3843C669.862 91.8306 668.295 91.0537 666.335 91.0537C664.417 91.0537 662.871 91.8166 661.695 93.3423C660.519 94.868 659.931 97.0516 659.931 99.8931ZM685.231 88.2822L685.336 90.8018C687.002 88.8421 689.249 87.8623 692.076 87.8623C695.254 87.8623 697.416 89.0801 698.564 91.5156C699.32 90.4238 700.3 89.542 701.503 88.8701C702.721 88.1982 704.156 87.8623 705.808 87.8623C710.791 87.8623 713.324 90.5008 713.408 95.7778V111H709.524V96.0088C709.524 94.3851 709.153 93.1743 708.411 92.3765C707.669 91.5646 706.424 91.1587 704.674 91.1587C703.232 91.1587 702.035 91.5926 701.083 92.4604C700.132 93.3143 699.579 94.4691 699.425 95.9248V111H695.52V96.1138C695.52 92.8104 693.903 91.1587 690.669 91.1587C688.122 91.1587 686.379 92.2435 685.441 94.4131V111H681.557V88.2822H685.231Z" fill="#131921"/>
</g>
<path d="M111.064 36.0204C110.941 32.7066 114.02 30.1932 117.242 30.9764L215.959 54.9704C218.813 55.664 220.457 58.6559 219.513 61.4367L204.46 105.765C203.757 107.835 201.791 109.209 199.606 109.156L118.404 107.205C115.762 107.142 113.625 105.033 113.527 102.392L111.064 36.0204Z" fill="#FF9A01"/>
<path fill-rule="evenodd" clip-rule="evenodd" d="M185.312 128.116H91.4018C87.9526 128.116 85.5394 124.706 86.6864 121.453L95.3327 96.9321C95.5319 96.3669 95.628 95.7706 95.6163 95.1714L94.1678 21.2301C94.123 18.9422 92.5307 16.9767 90.3019 16.4581L64.0682 10.3542C61.518 9.75785 59.926 7.20583 60.5223 4.6588C61.1197 2.12033 63.6801 0.529483 66.2284 1.12535L99.6041 8.88522L99.6541 8.89077C99.6583 8.89173 99.6674 8.89386 99.6829 8.89794L99.716 8.90687L99.7611 8.91908C99.7931 8.92762 99.8344 8.93835 99.8808 8.94876L99.8868 8.95009L217.05 36.2042C220.01 36.8926 221.676 40.0395 220.582 42.8741L199.168 98.3734C198.424 100.302 196.57 101.574 194.503 101.574H107.315C105.194 101.574 103.304 102.912 102.599 104.912L100.111 111.974C98.9648 115.227 101.378 118.636 104.827 118.636H185.312C187.951 118.636 190.077 120.762 190.077 123.369C190.077 125.99 187.939 128.116 185.312 128.116ZM187.977 92.1061C190.044 92.1061 191.898 90.834 192.642 88.9053L207.787 49.6361C208.88 46.8016 207.214 43.6552 204.255 42.9669L109.919 21.0238C106.745 20.2854 103.724 22.7328 103.787 25.9914L104.982 87.2037C105.035 89.9265 107.257 92.1061 109.981 92.1061H187.977Z" fill="#131921"/>
<path d="M43.8611 29.455C41.2522 28.7694 40.1895 25.6433 41.8402 23.5098V23.5098C42.7648 22.3147 44.3143 21.7882 45.7756 22.1724L76.4269 30.233C78.08 30.6678 79.2323 32.1623 79.2323 33.8716V33.8716C79.2323 36.3379 76.8991 38.1372 74.5138 37.5103L43.8611 29.455Z" fill="#131921"/>
<path d="M79.2323 50.0857C79.2323 48.3763 78.0799 46.8818 76.4266 46.4472L17.7613 31.0259C16.5514 30.7079 15.2626 31.0116 14.322 31.8363V31.8363C12.0533 33.8256 12.9291 37.5418 15.8473 38.3086L74.514 53.7244C76.8992 54.3511 79.2323 52.5519 79.2323 50.0857V50.0857Z" fill="#131921"/>
<path d="M25.5536 57.5694C22.7525 56.8329 21.8 53.3397 23.8395 51.2833V51.2833C24.7852 50.3298 26.1676 49.9528 27.4665 50.2943L76.4271 63.1672C78.0801 63.6019 79.2323 65.0962 79.2323 66.8053V66.8053C79.2323 69.2715 76.899 71.0706 74.5139 70.4434L25.5536 57.5694Z" fill="#131921"/>
<path d="M9.26681 70.3066C6.29648 69.526 5.46014 65.7089 7.83196 63.7579V63.7579C8.76568 62.9898 10.0115 62.7169 11.1808 63.0243L76.4393 80.1786C78.0925 80.6132 79.245 82.1077 79.245 83.8171V83.8171C79.245 86.2833 76.9119 88.0825 74.5267 87.4557L9.26681 70.3066Z" fill="#131921"/>
<path d="M119.888 143.671C119.888 148.268 116.149 152 111.53 152C106.912 152 103.173 148.268 103.173 143.671C103.173 139.075 106.912 135.343 111.53 135.343C116.149 135.343 119.888 139.075 119.888 143.671Z" fill="#131921"/>
<path d="M173.863 143.671C173.863 148.268 170.124 152 165.505 152C160.887 152 157.147 148.268 157.147 143.671C157.147 139.075 160.887 135.343 165.505 135.343C170.124 135.343 173.863 139.075 173.863 143.671Z" fill="#131921"/>
<path d="M521.241 145.648L521.238 145.649C507.063 151.691 492.923 157.717 478.369 161.877L478.365 161.878C446.749 171.2 415.045 172.201 383.344 163.028C369.192 158.863 355.291 153.847 342.34 145.119L342.338 145.118C338.049 142.252 333.97 139.243 329.889 135.946C328.266 134.569 326.824 132.962 325.356 131.326C324.859 130.773 324.36 130.217 323.85 129.665L323.847 129.662C323.368 129.151 322.835 128.693 322.236 128.548C321.565 128.385 320.945 128.638 320.389 129.231C319.26 130.433 319.295 132.262 320 133.552L320.005 133.56L320.01 133.568C320.97 135.175 322.042 136.646 323.334 137.974L323.338 137.978L323.338 137.978C329.667 144.337 336.523 149.538 343.691 153.87L343.691 153.87C359.707 163.542 376.557 169.022 393.592 172.767C416.233 177.817 438.973 177.526 461.7 173.202C481.595 169.452 500.74 161.956 519.743 153.758L519.752 153.754C520.353 153.479 520.941 153.271 521.58 153.163C521.565 153.186 521.549 153.208 521.534 153.231C521.316 153.547 521.096 153.846 520.859 154.107C520.858 154.109 520.856 154.11 520.855 154.112L516.298 158.847L511.732 163.593L511.728 163.597C510.753 164.636 509.885 165.825 509.128 167.307C508.333 168.862 508.372 170.894 509.799 171.961L509.807 171.967L509.816 171.973C510.288 172.296 510.895 172.318 511.423 172.19C511.954 172.062 512.488 171.765 512.876 171.328C515.551 168.67 518.225 165.94 520.897 163.213L520.899 163.211C523.576 160.478 526.25 157.749 528.923 155.091L528.927 155.087C531.225 152.751 533.573 150.49 535.905 148.244C536.87 147.315 537.831 146.389 538.786 145.461L538.796 145.451L538.806 145.439C539.059 145.162 539.339 144.883 539.63 144.594L539.634 144.589C539.92 144.305 540.215 144.01 540.486 143.714L540.504 143.694L540.52 143.672C542.135 141.46 541.712 138.675 539.548 137.349C539.159 137.086 538.75 136.961 538.366 136.884C538.174 136.845 537.981 136.816 537.8 136.789C537.619 136.762 537.451 136.738 537.284 136.705C535.965 136.389 534.648 136.072 533.332 135.756C524.495 133.631 515.712 131.519 506.85 129.517M521.241 145.648L506.85 129.517M521.241 145.648C522.757 145.015 524.213 144.278 525.698 143.526C526.476 143.131 527.263 142.733 528.071 142.343L528.071 142.342L528.071 142.34L528.071 142.339L528.071 142.337L528.071 142.336L528.071 142.334L528.071 142.333L528.071 142.331L528.071 142.33L528.071 142.328L528.071 142.326L528.071 142.325L528.071 142.323L528.071 142.322L528.071 142.32L528.071 142.319L528.071 142.317L528.071 142.316L528.071 142.314L528.071 142.312L528.071 142.311L528.071 142.309L527.008 141.986L525.599 141.557M521.241 145.648L525.599 141.557M506.85 129.517C506.644 129.469 506.426 129.416 506.201 129.361C505.776 129.257 505.327 129.147 504.892 129.064C504.215 128.934 503.502 128.852 502.8 128.932L502.78 128.935L502.76 128.938C502.223 129.043 501.71 129.475 501.335 129.913C500.947 130.365 500.61 130.937 500.481 131.468L500.474 131.496L500.471 131.526C500.403 132.082 500.57 132.751 500.807 133.323C501.045 133.899 501.395 134.476 501.784 134.831L501.79 134.836L501.796 134.842C502.283 135.259 502.822 135.5 503.341 135.673C503.599 135.759 503.858 135.83 504.103 135.895C504.14 135.905 504.175 135.915 504.211 135.924C504.42 135.979 504.617 136.032 504.81 136.09L504.817 136.093L504.825 136.095C508.291 137.03 511.757 137.93 515.221 138.828C518.682 139.726 522.141 140.624 525.599 141.557M506.85 129.517L525.599 141.557" fill="#FF9A01" stroke="#FF9A01"/>
<defs>
<filter id="filter0_d" x="249.993" y="12.697" width="463.415" height="99.544" filterUnits="userSpaceOnUse" color-interpolation-filters="sRGB">
<feFlood flood-opacity="0" result="BackgroundImageFix"/>
<feColorMatrix in="SourceAlpha" type="matrix" values="0 0 0 0 0 0 0 0 0 0 0 0 0 0 0 0 0 0 127 0" result="hardAlpha"/>
<feOffset/>
<feComposite in2="hardAlpha" operator="out"/>
<feColorMatrix type="matrix" values="0 0 0 0 0 0 0 0 0 0 0 0 0 0 0 0 0 0 1 0"/>
<feBlend mode="normal" in2="BackgroundImageFix" result="effect1_dropShadow"/>
<feBlend mode="normal" in="SourceGraphic" in2="effect1_dropShadow" result="shape"/>
</filter>
</defs>
</svg>
