<svg width="26" height="25" viewBox="0 0 26 25" fill="none" xmlns="http://www.w3.org/2000/svg">
<path d="M14.25 8V18C14.25 18.9946 13.8549 19.9484 13.1517 20.6517C12.4484 21.3549 11.4946 21.75 10.5 21.75H7.7875C7.49262 22.5844 6.91225 23.2876 6.14899 23.7355C5.38573 24.1833 4.48872 24.3469 3.61651 24.1973C2.74431 24.0477 1.95307 23.5945 1.38266 22.918C0.812246 22.2414 0.49939 21.3849 0.49939 20.5C0.49939 19.6151 0.812246 18.7586 1.38266 18.082C1.95307 17.4055 2.74431 16.9523 3.61651 16.8027C4.48872 16.6531 5.38573 16.8167 6.14899 17.2646C6.91225 17.7124 7.49262 18.4156 7.7875 19.25H10.5C10.8315 19.25 11.1495 19.1183 11.3839 18.8839C11.6183 18.6495 11.75 18.3315 11.75 18V8C11.75 7.00544 12.1451 6.05161 12.8483 5.34835C13.5516 4.64509 14.5054 4.25 15.5 4.25H19.25V0.5L25.5 5.5L19.25 10.5V6.75H15.5C15.1685 6.75 14.8505 6.8817 14.6161 7.11612C14.3817 7.35054 14.25 7.66848 14.25 8ZM4.25 21.75C4.58152 21.75 4.89946 21.6183 5.13388 21.3839C5.3683 21.1495 5.5 20.8315 5.5 20.5C5.5 20.1685 5.3683 19.8505 5.13388 19.6161C4.89946 19.3817 4.58152 19.25 4.25 19.25C3.91848 19.25 3.60054 19.3817 3.36612 19.6161C3.1317 19.8505 3 20.1685 3 20.5C3 20.8315 3.1317 21.1495 3.36612 21.3839C3.60054 21.6183 3.91848 21.75 4.25 21.75Z" fill="white"/>
</svg>
