<svg xmlns="http://www.w3.org/2000/svg" width="149" height="149" fill="none"><rect id="backgroundrect" width="100%" height="100%" x="0" y="0" fill="none" stroke="none"/>

<g class="currentLayer" style=""><title>Layer 1</title><path d="M92.51670021820068,2.0579998840332046 L97.09070021820068,9.243599884033202 L105.13370021820069,6.439199884033204 L108.35170021820069,14.326199884033205 L116.76570021820069,13.002999884033201 L118.52370021820067,21.337699884033206 L127.03870021820069,21.5382998840332 L127.27970021820067,30.052799884033206 L135.6227002182007,31.770699884033206 L134.33970021820068,40.191499884033206 L142.2417002182007,43.371499884033206 L139.47570021820067,51.42789988403321 L146.68370021820067,55.96769988403321 L142.52370021820067,63.4006998840332 L148.80370021820067,69.1544998840332 L143.3837002182007,75.7252998840332 L148.53670021820068,82.5080998840332 L142.02970021820067,88.0055998840332 L145.88870021820068,95.5995998840332 L138.5047002182007,99.8465998840332 L140.94570021820067,108.0075998840332 L132.92170021820067,110.8675998840332 L133.8667002182007,119.33359988403319 L125.46070021820069,120.71459988403319 L124.87870021820069,129.2125998840332 L116.3617002182007,129.0715998840332 L114.27170021820069,137.3295998840332 L105.91670021820069,135.6695998840332 L102.38570021820068,143.4215998840332 L94.46170021820069,140.2965998840332 L89.60270021820068,147.2925998840332 L82.36380021820068,142.8035998840332 L76.33400021820069,148.8195998840332 L70.01300021820069,143.1105998840332 L63.00590021820068,147.9535998840332 L57.80600021820068,141.2065998840332 L50.046700218200684,144.7205998840332 L46.135100218200684,137.1535998840332 L37.87300021820069,139.22559988403322 L35.37540021820068,131.08259988403321 L26.876100218200683,131.6455998840332 L25.872700218200684,123.1875998840332 L17.409300218200684,122.22459988403321 L17.932400218200684,113.7225998840332 L9.777000218200683,111.2635998840332 L11.809800218200685,102.9915998840332 L4.224500218200685,99.1155998840332 L7.701600218200685,91.3395998840332 L0.9302002182006852,86.1725998840332 L5.739900218200685,79.1422998840332 L2.1820068418776373e-7,72.8485998840332 L5.987700218200683,66.7901998840332 L1.4639002182006848,59.5727998840332 L8.437100218200683,54.68089988403321 L5.274700218200685,46.771699884033204 L13.009300218200682,43.2035998840332 L11.309900218200685,34.8567998840332 L19.557400218200684,32.7270998840332 L19.375700218200684,24.2109998840332 L27.87090021820068,23.588099884033205 L29.212800218200684,15.176499884033202 L37.68260021820068,16.080499884033202 L40.50490021820068,8.043699884033202 L48.67720021820068,10.445499884033204 L52.889200218200685,3.0416998840332035 L60.50130021820068,6.864199884033205 L65.96750021820068,0.3314998840332031 L72.77480021820068,5.451699884033204 L79.31970021820068,-1.1596679705405677e-7 L85.10370021820069,6.253399884033204 L92.51670021820068,2.0579998840332046 z" fill="#232F3E" id="svg_1" class=""/></g></svg>