<svg width="36" height="36" viewBox="0 0 36 36" fill="none" xmlns="http://www.w3.org/2000/svg">
<path d="M0.333313 35.6667C0.333313 32.1305 1.73807 28.7391 4.23856 26.2386C6.73904 23.7381 10.1304 22.3334 13.6666 22.3334C17.2029 22.3334 20.5943 23.7381 23.0947 26.2386C25.5952 28.7391 27 32.1305 27 35.6667H23.6666C23.6666 33.0145 22.6131 30.471 20.7377 28.5956C18.8624 26.7203 16.3188 25.6667 13.6666 25.6667C11.0145 25.6667 8.47094 26.7203 6.59558 28.5956C4.72021 30.471 3.66665 33.0145 3.66665 35.6667H0.333313ZM13.6666 20.6667C8.14165 20.6667 3.66665 16.1917 3.66665 10.6667C3.66665 5.14169 8.14165 0.666687 13.6666 0.666687C19.1916 0.666687 23.6666 5.14169 23.6666 10.6667C23.6666 16.1917 19.1916 20.6667 13.6666 20.6667ZM13.6666 17.3334C17.35 17.3334 20.3333 14.35 20.3333 10.6667C20.3333 6.98335 17.35 4.00002 13.6666 4.00002C9.98331 4.00002 6.99998 6.98335 6.99998 10.6667C6.99998 14.35 9.98331 17.3334 13.6666 17.3334ZM27.4733 23.505C29.8155 24.5599 31.8033 26.2688 33.1976 28.4262C34.592 30.5837 35.3336 33.0979 35.3333 35.6667H32C32.0004 33.74 31.4442 31.8542 30.3985 30.236C29.3527 28.6178 27.8618 27.3361 26.105 26.545L27.4716 23.505H27.4733ZM26.3266 4.68835C28.0059 5.38052 29.4416 6.55592 30.4517 8.0654C31.4618 9.57489 32.0007 11.3504 32 13.1667C32.0007 15.4539 31.1461 17.6587 29.6042 19.3481C28.0623 21.0374 25.9444 22.0891 23.6666 22.2967V18.9417C24.9016 18.7648 26.0472 18.1967 26.9355 17.3208C27.8237 16.4448 28.4078 15.3072 28.6019 14.0749C28.796 12.8426 28.5899 11.5805 28.014 10.4739C27.438 9.36737 26.5224 8.4746 25.4016 7.92669L26.3266 4.68835Z" fill="white"/>
</svg>
