<svg width="26" height="26" viewBox="0 0 26 26" fill="none" xmlns="http://www.w3.org/2000/svg">
<path d="M13 11.75C14.6576 11.75 16.2473 12.4085 17.4194 13.5806C18.5915 14.7527 19.25 16.3424 19.25 18V25.5H16.75V18C16.7501 17.0435 16.3846 16.1231 15.7284 15.4272C15.0722 14.7312 14.1749 14.3124 13.22 14.2563L13 14.25C12.0435 14.2499 11.1231 14.6154 10.4272 15.2716C9.73124 15.9278 9.31237 16.8251 9.25625 17.78L9.25 18V25.5H6.75V18C6.75 16.3424 7.40848 14.7527 8.58058 13.5806C9.75268 12.4085 11.3424 11.75 13 11.75ZM4.875 15.5C5.22375 15.5 5.5625 15.5413 5.8875 15.6175C5.67378 16.2538 5.54721 16.916 5.51125 17.5863L5.5 18V18.1075C5.35632 18.0561 5.20687 18.0225 5.055 18.0075L4.875 18C4.4089 18 3.95951 18.1736 3.61448 18.487C3.26944 18.8004 3.0535 19.2311 3.00875 19.695L3 19.875V25.5H0.5V19.875C0.5 18.7147 0.960936 17.6019 1.78141 16.7814C2.60188 15.9609 3.71468 15.5 4.875 15.5ZM21.125 15.5C22.2853 15.5 23.3981 15.9609 24.2186 16.7814C25.0391 17.6019 25.5 18.7147 25.5 19.875V25.5H23V19.875C23 19.4089 22.8264 18.9595 22.513 18.6145C22.1996 18.2694 21.7689 18.0535 21.305 18.0088L21.125 18C20.9062 18 20.6963 18.0375 20.5 18.1062V18C20.5 17.1675 20.365 16.3675 20.1138 15.62C20.4375 15.5412 20.7763 15.5 21.125 15.5ZM4.875 8C5.7038 8 6.49866 8.32924 7.08471 8.91529C7.67076 9.50134 8 10.2962 8 11.125C8 11.9538 7.67076 12.7487 7.08471 13.3347C6.49866 13.9208 5.7038 14.25 4.875 14.25C4.0462 14.25 3.25134 13.9208 2.66529 13.3347C2.07924 12.7487 1.75 11.9538 1.75 11.125C1.75 10.2962 2.07924 9.50134 2.66529 8.91529C3.25134 8.32924 4.0462 8 4.875 8ZM21.125 8C21.9538 8 22.7487 8.32924 23.3347 8.91529C23.9208 9.50134 24.25 10.2962 24.25 11.125C24.25 11.9538 23.9208 12.7487 23.3347 13.3347C22.7487 13.9208 21.9538 14.25 21.125 14.25C20.2962 14.25 19.5013 13.9208 18.9153 13.3347C18.3292 12.7487 18 11.9538 18 11.125C18 10.2962 18.3292 9.50134 18.9153 8.91529C19.5013 8.32924 20.2962 8 21.125 8ZM4.875 10.5C4.70924 10.5 4.55027 10.5658 4.43306 10.6831C4.31585 10.8003 4.25 10.9592 4.25 11.125C4.25 11.2908 4.31585 11.4497 4.43306 11.5669C4.55027 11.6842 4.70924 11.75 4.875 11.75C5.04076 11.75 5.19973 11.6842 5.31694 11.5669C5.43415 11.4497 5.5 11.2908 5.5 11.125C5.5 10.9592 5.43415 10.8003 5.31694 10.6831C5.19973 10.5658 5.04076 10.5 4.875 10.5ZM21.125 10.5C20.9592 10.5 20.8003 10.5658 20.6831 10.6831C20.5658 10.8003 20.5 10.9592 20.5 11.125C20.5 11.2908 20.5658 11.4497 20.6831 11.5669C20.8003 11.6842 20.9592 11.75 21.125 11.75C21.2908 11.75 21.4497 11.6842 21.5669 11.5669C21.6842 11.4497 21.75 11.2908 21.75 11.125C21.75 10.9592 21.6842 10.8003 21.5669 10.6831C21.4497 10.5658 21.2908 10.5 21.125 10.5ZM13 0.5C14.3261 0.5 15.5979 1.02678 16.5355 1.96447C17.4732 2.90215 18 4.17392 18 5.5C18 6.82608 17.4732 8.09785 16.5355 9.03553C15.5979 9.97322 14.3261 10.5 13 10.5C11.6739 10.5 10.4021 9.97322 9.46447 9.03553C8.52678 8.09785 8 6.82608 8 5.5C8 4.17392 8.52678 2.90215 9.46447 1.96447C10.4021 1.02678 11.6739 0.5 13 0.5ZM13 3C12.337 3 11.7011 3.26339 11.2322 3.73223C10.7634 4.20107 10.5 4.83696 10.5 5.5C10.5 6.16304 10.7634 6.79893 11.2322 7.26777C11.7011 7.73661 12.337 8 13 8C13.663 8 14.2989 7.73661 14.7678 7.26777C15.2366 6.79893 15.5 6.16304 15.5 5.5C15.5 4.83696 15.2366 4.20107 14.7678 3.73223C14.2989 3.26339 13.663 3 13 3Z" fill="white"/>
</svg>
