<?xml version="1.0" encoding="utf-8"?>
<!-- Generator: Adobe Illustrator 25.0.1, SVG Export Plug-In . SVG Version: 6.00 Build 0)  -->
<svg version="1.1" id="_x2014_ÎÓÈ_x5F_1" xmlns="http://www.w3.org/2000/svg" xmlns:xlink="http://www.w3.org/1999/xlink"
	 x="0px" y="0px" viewBox="0 0 365 27.2" style="enable-background:new 0 0 365 27.2;" xml:space="preserve">
<g id="XMLID_1_">
	<path id="XMLID_18_" d="M14.5,23.9c0,2.6,3.8,1.3,3.8,2.3c0,0.5-0.4,0.5-1,0.5c-1.8,0-2.8-0.1-5.1-0.1c-2.3,0-3.3,0.1-5.1,0.1
		c-0.6,0-1-0.1-1-0.5c0-1,3.8,0.3,3.8-2.3l0-22.2C6,1.7,2.7,5.1,1.2,8.2C0.8,9,0.6,9.5,0.3,9.5C0.1,9.5,0,9.4,0,9.2
		c0-0.5,0.2-1.4,0.4-2.1l1.2-6.3c0-0.2,0.1-0.7,0.4-0.7c0.2,0,0.3,0.2,0.5,0.3c0.2,0.2,0.6,0.3,1.4,0.3h16.5c0.8,0,1.1-0.2,1.4-0.3
		C22,0.3,22,0.2,22.3,0.2c0.3,0,0.4,0.5,0.4,0.7l1.2,6.3c0.2,0.7,0.4,1.6,0.4,2.1c0,0.2-0.1,0.3-0.3,0.3c-0.2,0-0.4-0.5-0.8-1.4
		c-1.5-3.1-4.8-6.5-8.7-6.5V23.9z"/>
	<path id="XMLID_17_" d="M31.7,13.4v10.4c0,2.6,3.2,1.3,3.2,2.3c0,0.5-0.2,0.5-0.8,0.5c-1.3,0-2.3-0.1-4.6-0.1
		c-2.3,0-3.3,0.1-4.6,0.1c-0.6,0-0.8-0.1-0.8-0.5c0-1,3.2,0.3,3.2-2.3V3.5c0-2.6-3.2-1.3-3.2-2.3c0-0.5,0.2-0.5,0.8-0.5
		c1.3,0,2.3,0.1,4.6,0.1c2.3,0,3.3-0.1,4.6-0.1c0.6,0,0.8,0.1,0.8,0.5c0,1-3.2-0.3-3.2,2.3v9h11v-9c0-2.6-3.2-1.3-3.2-2.3
		c0-0.5,0.2-0.5,0.8-0.5c1.3,0,2.3,0.1,4.6,0.1c2.3,0,3.3-0.1,4.6-0.1c0.6,0,0.8,0.1,0.8,0.5c0,1-3.2-0.3-3.2,2.3v20.4
		c0,2.6,3.2,1.3,3.2,2.3c0,0.5-0.2,0.5-0.8,0.5c-1.3,0-2.3-0.1-4.6-0.1c-2.3,0-3.3,0.1-4.6,0.1c-0.6,0-0.8-0.1-0.8-0.5
		c0-1,3.2,0.3,3.2-2.3V13.4L31.7,13.4L31.7,13.4z"/>
	<path id="XMLID_16_" d="M54.4,3.5c0-2.6-3.2-1.3-3.2-2.3c0-0.5,0.2-0.5,0.8-0.5c1.3,0,2.3,0.1,4.6,0.1c8.4,0,11.2-0.1,14-0.1
		l1.8,7.1c0.1,0.5,0.2,0.8,0.2,1c0,0.3-0.1,0.4-0.3,0.4c-0.5,0-0.3-1-2.2-3.6c-2.3-3.3-5.6-4-10.1-4h-1.1v11.2h0.8
		c3.3,0,5.8-1.3,5.8-5.1c0-0.6,0.2-0.7,0.5-0.7c0.3,0,0.5,0.2,0.5,0.7v11.4c0,0.6-0.2,0.7-0.5,0.7c-0.3,0-0.5-0.1-0.5-0.7
		c0-4-2.5-5.3-5.8-5.3h-0.8v9.9c0,1.4,0.9,2.1,3.2,2.1c7.1,0,10.1-4.7,11.2-8.4c0.2-0.6,0.3-0.8,0.6-0.8c0.3,0,0.3,0.2,0.3,0.4
		c0,0.2,0,0.6-0.1,1.1l-1.6,8.6c-3.2,0-6.4-0.1-15.9-0.1c-2.3,0-3.3,0.1-4.6,0.1c-0.6,0-0.8-0.1-0.8-0.5c0-1,3.2,0.3,3.2-2.3
		L54.4,3.5L54.4,3.5z"/>
	<path id="XMLID_15_" d="M97.3,23.9c0,2.6,3.8,1.3,3.8,2.3c0,0.5-0.4,0.5-1,0.5c-1.8,0-2.8-0.1-5.1-0.1s-3.3,0.1-5.1,0.1
		c-0.6,0-1-0.1-1-0.5c0-1,3.8,0.3,3.8-2.3l0-22.2c-3.9,0-7.2,3.4-8.7,6.5c-0.4,0.9-0.6,1.4-0.8,1.4c-0.3,0-0.3-0.2-0.3-0.3
		c0-0.5,0.2-1.4,0.4-2.1l1.2-6.3c0-0.2,0.1-0.7,0.4-0.7c0.2,0,0.3,0.2,0.5,0.3c0.2,0.2,0.6,0.3,1.4,0.3h16.5c0.8,0,1.1-0.2,1.4-0.3
		c0.2-0.2,0.3-0.3,0.5-0.3c0.3,0,0.4,0.5,0.4,0.7l1.2,6.3c0.2,0.7,0.4,1.6,0.4,2.1c0,0.2-0.1,0.3-0.3,0.3c-0.2,0-0.4-0.5-0.8-1.4
		c-1.5-3.1-4.8-6.5-8.7-6.5L97.3,23.9L97.3,23.9z"/>
	<path id="XMLID_14_" d="M110.3,3.5c0-2.6-3.2-1.3-3.2-2.3c0-0.5,0.2-0.5,0.8-0.5c1.3,0,2.3,0.1,4.6,0.1c2.3,0,3.3-0.1,4.6-0.1
		c0.6,0,0.8,0.1,0.8,0.5c0,1-3.2-0.3-3.2,2.3v20.4c0,2.6,3.2,1.3,3.2,2.3c0,0.5-0.2,0.5-0.8,0.5c-1.3,0-2.3-0.1-4.6-0.1
		c-2.3,0-3.3,0.1-4.6,0.1c-0.6,0-0.8-0.1-0.8-0.5c0-1,3.2,0.3,3.2-2.3V3.5z"/>
	<path id="XMLID_13_" d="M134.5,20.2l8.2-19.5h1.8c2.3,0,3.3-0.1,4.6-0.1c0.6,0,0.8,0.1,0.8,0.5c0,1-3.2-0.3-3.2,2.3v20.4
		c0,2.6,3.2,1.3,3.2,2.3c0,0.5-0.2,0.5-0.8,0.5c-1.3,0-2.3-0.1-4.6-0.1c-2.3,0-3.3,0.1-4.6,0.1c-0.6,0-0.8-0.1-0.8-0.5
		c0-1,3.2,0.3,3.2-2.3V4h-0.1l-8.9,21.8c-0.2,0.3-0.3,0.8-0.6,0.8c-0.2,0-0.3-0.4-0.5-0.8l-8.7-21.5h-0.1v16c0,3.2,1.1,4.8,2.6,5.3
		c1,0.3,1.4,0.2,1.4,0.7c0,0.3-0.2,0.4-0.8,0.4c-1.1,0-2.1-0.1-3.6-0.1c-2.4,0-3.4,0.1-4,0.1c-0.5,0-0.9,0-0.9-0.4
		c0-0.6,0.4-0.4,1.4-0.7c2.7-0.8,3-3.7,3-8.3V4.3c0-3.4-3.9-2.2-3.9-3.1c0-0.5,0.2-0.5,0.8-0.5c1.3,0,2.3,0.1,4.6,0.1h2.4
		L134.5,20.2z"/>
	<path id="XMLID_12_" d="M153.8,3.5c0-2.6-3.2-1.3-3.2-2.3c0-0.5,0.2-0.5,0.8-0.5c1.3,0,2.3,0.1,4.6,0.1c8.4,0,11.2-0.1,14-0.1
		l1.8,7.1c0.1,0.5,0.2,0.8,0.2,1c0,0.3-0.1,0.4-0.3,0.4c-0.5,0-0.3-1-2.2-3.6c-2.3-3.3-5.6-4-10.1-4h-1.1v11.2h0.8
		c3.3,0,5.8-1.3,5.8-5.1c0-0.6,0.2-0.7,0.5-0.7c0.3,0,0.5,0.2,0.5,0.7v11.4c0,0.6-0.2,0.7-0.5,0.7c-0.3,0-0.5-0.1-0.5-0.7
		c0-4-2.5-5.3-5.8-5.3h-0.8v9.9c0,1.4,0.9,2.1,3.2,2.1c7.1,0,10.1-4.7,11.2-8.4c0.2-0.6,0.3-0.8,0.6-0.8c0.3,0,0.3,0.2,0.3,0.4
		c0,0.2,0,0.6-0.1,1.1l-1.6,8.6c-3.2,0-6.4-0.1-15.9-0.1c-2.3,0-3.3,0.1-4.6,0.1c-0.6,0-0.8-0.1-0.8-0.5c0-1,3.2,0.3,3.2-2.3
		L153.8,3.5L153.8,3.5z"/>
	<path id="XMLID_11_" d="M175.1,16.1c0-0.3,0.2-0.5,0.4-0.5c0.4,0,0.4,0.3,0.6,1.1c0.7,4.7,2.9,9.5,8.2,9.5c4.1,0,5.9-2.3,5.9-4.9
		c0-7.7-15.1-4.6-15.1-14c0-4,3.9-7.3,8.6-7.3c3.6,0,5,1.5,6.6,1.5c1.2,0,0.7-1.2,1.4-1.2c0.3,0,0.4,0.2,0.4,0.6
		c0.5,5.3,0.7,8,0.7,8.5c0,0.4-0.2,0.5-0.4,0.5c-0.3,0-0.4-0.5-0.5-0.9c-1.4-4.3-3.6-8-8.2-8c-3.1,0-4.9,1.7-4.9,4.1
		c0,7,15.1,4.7,15.1,13.9c0,4-3.1,8.1-9.7,8.1c-3,0-5.7-1.4-6.8-1.4c-1.7,0-1.1,1.3-1.8,1.3c-0.2,0-0.4-0.1-0.4-0.5L175.1,16.1
		L175.1,16.1z"/>
	<path id="XMLID_56_" d="M232.4,13.7c0,8.5-7.2,13.5-13.7,13.5c-6.4,0-13.7-5-13.7-13.5c0-8.5,7.2-13.5,13.7-13.5
		C225.2,0.2,232.4,5.1,232.4,13.7z M218.7,1.1c-5,0-8.7,4-8.7,12.6c0,8.6,3.7,12.6,8.7,12.6s8.7-4,8.7-12.6
		C227.4,5.1,223.7,1.1,218.7,1.1z"/>
	<path id="XMLID_8_" d="M236.6,3.5c0-2.6-3.2-1.3-3.2-2.3c0-0.5,0.2-0.5,0.8-0.5c1.3,0,2.3,0.1,4.6,0.1c8.4,0,11.2-0.1,13.7-0.1
		l1.8,7.1c0.1,0.5,0.2,0.8,0.2,1c0,0.3-0.1,0.4-0.3,0.4c-0.5,0-0.3-1-2.2-3.6c-2.3-3.3-5.6-4-10.1-4h-0.8v11.2h0.8
		c3.3,0,5.8-1.3,5.8-5.1c0-0.6,0.2-0.7,0.5-0.7c0.3,0,0.5,0.2,0.5,0.7v11.4c0,0.6-0.2,0.7-0.5,0.7c-0.3,0-0.5-0.1-0.5-0.7
		c0-4-2.5-5.3-5.8-5.3h-0.8v10.1c0,2.6,3.2,1.3,3.2,2.3c0,0.5-0.2,0.5-0.8,0.5c-1.3,0-2.3-0.1-4.6-0.1c-2.3,0-3.3,0.1-4.6,0.1
		c-0.6,0-0.8-0.1-0.8-0.5c0-1,3.2,0.3,3.2-2.3L236.6,3.5L236.6,3.5z"/>
	<path id="XMLID_7_" d="M267.3,3.5c0-2.6-3.2-1.3-3.2-2.3c0-0.5,0.2-0.5,0.8-0.5c1.3,0,2.3,0.1,4.6,0.1c2.3,0,3.3-0.1,4.6-0.1
		c0.6,0,0.8,0.1,0.8,0.5c0,1-3.2-0.3-3.2,2.3v20.4c0,2.6,3.2,1.3,3.2,2.3c0,0.5-0.2,0.5-0.8,0.5c-1.3,0-2.3-0.1-4.6-0.1
		c-2.3,0-3.3,0.1-4.6,0.1c-0.6,0-0.8-0.1-0.8-0.5c0-1,3.2,0.3,3.2-2.3V3.5z"/>
	<path id="XMLID_6_" d="M297.2,7.1c0-3.2-1.4-4.8-2.9-5.3c-1-0.3-1.4-0.2-1.4-0.7c0-0.3,0.2-0.4,0.8-0.4c1.4,0,2.4,0.1,4,0.1
		c1.6,0,2.6-0.1,4-0.1c0.6,0,0.8,0.1,0.8,0.4c0,0.5-0.5,0.4-1.4,0.7c-1.4,0.5-2.9,2-2.9,5.3v19.6c0,0.3-0.2,0.5-0.5,0.5
		c-0.3,0-0.6-0.1-0.8-0.4L280.9,5.3h-0.1v15c0,3.2,1.4,4.8,2.9,5.3c1,0.3,1.4,0.2,1.4,0.7c0,0.3-0.2,0.4-0.8,0.4
		c-1.4,0-2.4-0.1-4-0.1c-1.6,0-2.6,0.1-4,0.1c-0.6,0-0.8-0.1-0.8-0.4c0-0.5,0.5-0.4,1.4-0.7c1.4-0.5,2.9-2,2.9-5.3V4
		c-2.2-3.2-4.3-2.1-4.3-2.8c0-0.4,0.3-0.5,0.8-0.5c0.9,0,1.7,0.1,2.9,0.1h3.5l14.4,19.3h0.1L297.2,7.1L297.2,7.1z"/>
	<path id="XMLID_46_" d="M304.6,3.5c0-2.6-3.2-1.3-3.2-2.3c0-0.5,0.2-0.5,0.8-0.5c1.3,0,2.3,0.1,4.6,0.1c1.6,0,3.3-0.1,5.4-0.1
		c9,0,14.6,5.3,14.6,13.1c0,7.1-4.4,12.9-13,12.9c-2.6,0-4.8-0.1-7-0.1c-2.3,0-3.3,0.1-4.6,0.1c-0.6,0-0.8-0.1-0.8-0.5
		c0-1,3.2,0.3,3.2-2.3V3.5z M309.2,22.3c0,2.4,1.4,3.4,4.2,3.4c4.3,0,8.5-2,8.5-11.7c0-7.3-2.9-12.5-8.7-12.5h-3.9V22.3z"/>
	<path id="XMLID_3_" d="M331.9,3.5c0-2.6-3.2-1.3-3.2-2.3c0-0.5,0.2-0.5,0.8-0.5c1.3,0,2.3,0.1,4.6,0.1s3.3-0.1,4.6-0.1
		c0.6,0,0.8,0.1,0.8,0.5c0,1-3.2-0.3-3.2,2.3v20.4c0,2.6,3.2,1.3,3.2,2.3c0,0.5-0.2,0.5-0.8,0.5c-1.3,0-2.3-0.1-4.6-0.1
		s-3.3,0.1-4.6,0.1c-0.6,0-0.8-0.1-0.8-0.5c0-1,3.2,0.3,3.2-2.3V3.5z"/>
	<path id="XMLID_42_" d="M346,17.3c-1,2.9-1.5,4-1.5,5.1c0,3.8,3.2,2.9,3.2,3.8c0,0.4-0.2,0.4-0.6,0.4c-0.8,0-1.7-0.1-4.3-0.1
		c-1.3,0-2.5,0.1-3.9,0.1c-0.4,0-0.5-0.2-0.5-0.5c0-0.7,1.5-0.3,2.6-1.2c1-0.8,2.2-2.9,3.3-5.5c4.6-11.4,5.2-12.8,5.2-13.2
		c0-0.3-0.9-1-0.9-1.4c0-0.6,0.6-0.5,1.7-2.7c0.8-1.7,0.6-2.2,1.1-2.2c0.5,0,0.5,1.3,2.7,6.3l8.1,18c1,2.2,2.8,1.1,2.8,2
		c0,0.4-0.3,0.5-0.6,0.5c-1.5,0-3-0.1-4.6-0.1c-1.5,0-3,0.1-4.6,0.1c-0.4,0-0.6-0.1-0.6-0.5c0-1,2.7,0.2,2.7-1.9
		c0-0.3-0.4-1.5-0.6-2.1l-2.2-5L346,17.3L346,17.3z M349.9,7l-3.6,9.4h7.7L349.9,7z"/>
</g>
</svg>
